<svg xmlns="http://www.w3.org/2000/svg" viewBox="0 0 76 76" >
    <circle cx="38" cy="38" r="36" fill="#F90132"/>
    <path d="M38 0a38 38 0 1038 38A38 38 0 0038 0zm0 72a34 34 0 1134-34 34 34 0 01-34 34z" fill="#1E0E00"/>
    <path d="M45.93 18.37H30.07a11.72 11.72 0 00-11.7 11.7v15.86a11.72 11.72 0 0011.7 11.7h15.86a11.72 11.72 0 0011.7-11.7V30.07a11.72 11.72 0 00-11.7-11.7zM38 48.59A10.59 10.59 0 1148.59 38 10.6 10.6 0 0138 48.59zm11-19.3a2.44 2.44 0 112.43-2.43 2.43 2.43 0 01-2.38 2.43z" fill="#fff" />
    <path d="M38 31.53A6.47 6.47 0 1044.47 38 6.47 6.47 0 0038 31.53z" fill="#fff"/>
</svg>