<svg xmlns="http://www.w3.org/2000/svg" viewBox="0 0 76 76">
    <circle cx="38" cy="38" r="36" fill="#F90132"/>
    <path d="M38 0a38 38 0 1038 38A38 38 0 0038 0zm0 72a34 34 0 1134-34 34 34 0 01-34 34z" fill="#1E0E00"/>
    <path d="M54.41 37.9c.65-.83 1.15-1.5 1.53-2 2.7-3.59 3.88-5.89 3.52-6.89l-.14-.24a1.37 1.37 0 00-.73-.38 3.6 3.6 0 00-1.5-.06l-6.75.05a.84.84 0 00-.47 0l-.31.07-.12.06-.09.07a1.09 1.09 0 00-.26.24 1.81 1.81 0 00-.23.41 39 39 0 01-2.51 5.28c-.58 1-1.11 1.81-1.6 2.52a12.18 12.18 0 01-1.21 1.57 7.6 7.6 0 01-.9.81c-.26.2-.46.29-.61.26l-.39-.1a1.53 1.53 0 01-.53-.57 2.5 2.5 0 01-.27-.92 7.14 7.14 0 01-.08-.94v-1.13-1-1.93c0-.7 0-1.25.06-1.65s0-.84 0-1.29a5.83 5.83 0 00-.08-1.07 3.89 3.89 0 00-.25-.75 1.26 1.26 0 00-.48-.56 2.51 2.51 0 00-.79-.32 15 15 0 00-3.16-.3q-4.36-.06-5.61.56a3.43 3.43 0 00-.89.7c-.28.35-.32.53-.11.56a2.93 2.93 0 012 1l.14.28a4.69 4.69 0 01.41 1.11 10.8 10.8 0 01.21 1.71 17.91 17.91 0 010 2.94c-.08.81-.15 1.44-.22 1.9a4 4 0 01-.6 1.61.44.44 0 01-.12.12 1.68 1.68 0 01-.63.12 1.48 1.48 0 01-.8-.33 5.62 5.62 0 01-1-.9 11.88 11.88 0 01-1.14-1.61c-.42-.69-.86-1.5-1.31-2.44l-.39-.68c-.23-.44-.55-1.07-1-1.91s-.77-1.65-1.08-2.43a1.5 1.5 0 00-.56-.75l-.12-.07a1.7 1.7 0 00-.37-.2 2.39 2.39 0 00-.54-.15H15.9a1.64 1.64 0 00-1.33.44l-.1.14a.88.88 0 00-.07.38 2 2 0 00.14.63c.94 2.21 2 4.33 3.06 6.38s2.06 3.7 2.87 5 1.73 2.43 2.53 3.54 1.4 1.82 1.68 2.13.49.55.64.71l.59.56a14.31 14.31 0 001.65 1.35A26.68 26.68 0 0030 51.08a13 13 0 003.08 1.25 10.43 10.43 0 003.42.38h2.7a1.8 1.8 0 001.24-.51l.1-.12a1.52 1.52 0 00.17-.43 2.23 2.23 0 00.08-.65 7.82 7.82 0 01.21-1.81 4.43 4.43 0 01.4-1.22 2.45 2.45 0 01.5-.69 2.18 2.18 0 01.4-.35l.19-.08a1.5 1.5 0 011.32.37 7.29 7.29 0 011.43 1.36c.45.54 1 1.14 1.61 1.81a9.9 9.9 0 001.64 1.5l.47.29a5.74 5.74 0 001.22.51 2.56 2.56 0 001.31.12l6-.09a2.68 2.68 0 001.39-.3 1.12 1.12 0 00.58-.64 1.78 1.78 0 000-.8 3.48 3.48 0 00-.17-.62 1.54 1.54 0 00-.15-.29 23.42 23.42 0 00-4.48-5.19c-1-.95-1.63-1.6-1.9-1.92A1.83 1.83 0 0152.3 41a18.07 18.07 0 012.11-3.1z" fill="#fff"/>
</svg>