<svg xmlns="http://www.w3.org/2000/svg" viewBox="0 0 76 76">
    <circle cx="38" cy="38" r="36" fill="#F90132"/>
    <path d="M38 0a38 38 0 1038 38A38 38 0 0038 0zm0 72a34 34 0 1134-34 34 34 0 01-34 34z" fill="#1E0E00"/>
    <path d="M53.27 22.16a20.49 20.49 0 00-29.52 0 21.66 21.66 0 00-6.12 15.15 22.22 22.22 0 00.76 5.75 21.28 21.28 0 002.13 5.13l-2.75 10.86 10.82-2.87a20.48 20.48 0 0024.68-3.7 21.66 21.66 0 006.12-15.16 21.66 21.66 0 00-6.12-15.16zm-2.35 22a8.59 8.59 0 01-.41 1.74 4.48 4.48 0 01-1.66 1.95A6.32 6.32 0 0146.21 49l-.42.09c-.81.2-1.72.43-6.74-1.6-5.54-2.24-9.18-7.75-10-9l-.05-.13c-.31-.43-2.46-3.36-2.46-6.44a7.1 7.1 0 012.05-5.16l.1-.11a2.68 2.68 0 01.86-.66 2.3 2.3 0 011-.24h1.21c.39 0 1.08-.07 1.62 1.28l.62 1.71c.49 1.22 1 2.54 1.11 2.73a1.84 1.84 0 01.19.64 1.5 1.5 0 01-.14.81l-.09.18a3.68 3.68 0 01-.55.91l-.31.37c-.2.26-.41.52-.59.71-.16.17-.34.35-.18.64a17.57 17.57 0 001.47 2.19 14.74 14.74 0 005.81 4.51c.16.07.29.12.42.19a.91.91 0 00.47.14.49.49 0 00.25-.18c.21-.25.72-.86 1.15-1.4.26-.34.51-.66.65-.88a1.24 1.24 0 01.92-.66 2 2 0 01.91.18c.23.08.82.36 1.47.68 1 .5 2.2 1.1 2.55 1.28l.28.13a2.2 2.2 0 011 .73 3 3 0 01.13 1.5z" fill="#fff"/>
</svg>