<?xml version="1.0" encoding="UTF-8"?> <svg xmlns="http://www.w3.org/2000/svg" viewBox="0 0 275.99 151.57"> <defs> <style>.cls-1{fill:#fff;}.cls-2{fill:#e0002f;}</style> </defs> <title>Ресурс 2</title> <g id="Слой_2" data-name="Слой 2"> <g id="Слой_1-2" data-name="Слой 1"> <polygon class="cls-1" points="0 75.78 138.04 151.57 275.99 75.78 275.99 75.78 138 0 0 75.78"></polygon> <path class="cls-2" d="M25.87,75.76,138.21,14l112.6,61.78-112.6,61.78ZM138.25,4.57,8.61,75.76,138.25,147,267.81,75.76Z"></path> <path class="cls-2" d="M145.29,91.54a11.38,11.38,0,0,0,.91-1.71,22.09,22.09,0,0,0,6.34-4.36,17.42,17.42,0,0,1-7.25,6.07M123.54,84.9a10.74,10.74,0,0,0,1.26-.12,9.72,9.72,0,0,0,1.3-.25l0,0a12.49,12.49,0,0,0,2.71,2.83,19.2,19.2,0,0,0,3.68,2l0,0a11,11,0,0,0,.49,1.78c.13.41.29.82.45,1.22A17.37,17.37,0,0,1,123.54,84.9Zm14.73-26.45a17.16,17.16,0,0,1,7.24,1.6c.09.07.19.13.28.21.49.4,1,.88,1.49,1.35a3.1,3.1,0,0,1,.65.85l-3.21,3.35a30.1,30.1,0,0,0-5.1-.49,25.46,25.46,0,0,0-3,.06l-.24,0-4.34-3.77A11.42,11.42,0,0,1,135,58.74a17.49,17.49,0,0,1,3.18-.29Zm9.89,4.14a2,2,0,0,1,1,.37c.64.35,1.26.73,1.87,1.13a17.28,17.28,0,0,1,4.47,10.46,16.82,16.82,0,0,1-2.19,2.61l-5.72-3.61c0-.13-.06-.28-.08-.38s-.1-.36-.13-.5A38.2,38.2,0,0,0,144.91,66l3.22-3.36Zm-8,23.71.61-8,1.42-.87c1.16-.74,2.36-1.54,3.56-2.35L147.26,74c.08-.07.2-.13.27-.2l5.67,3.58a17.29,17.29,0,0,1,0,3,29.59,29.59,0,0,1-.34,3.25,8.8,8.8,0,0,1-.35,1.56l0,0A19.59,19.59,0,0,1,149,88.06a19.83,19.83,0,0,1-2.82,1.54c-1.24-.58-2.48-1.22-3.66-1.91C142.23,87.55,140.61,86.57,140.14,86.3ZM122.42,72a31,31,0,0,1,.94-3.14,38.22,38.22,0,0,1,1.69-3.91,11.53,11.53,0,0,1,1.48-.94,22.58,22.58,0,0,1,3.23-1.53,8.84,8.84,0,0,1,2.11-.69l4.36,3.78A49.22,49.22,0,0,0,133.8,72c-.1.31-.19.67-.25.91l-7,3.22C125.19,74.87,122.89,72.39,122.42,72Zm2.42-7.14a37.11,37.11,0,0,0-1.7,3.92c-.53,1.46-.9,3-1,3.3v0a16.65,16.65,0,0,0-1.09,1.44,17.18,17.18,0,0,1,3.77-8.74S124.83,64.82,124.84,64.82Zm7.76,24.34a19.44,19.44,0,0,1-3.63-2,11.46,11.46,0,0,1-2.66-2.77l0-.06a32.5,32.5,0,0,1-.08-4.41c.08-1.16.18-2.32.38-3.57l7-3.18c1.09.9,2.3,1.71,3.46,2.58s2.32,1.77,3.49,2.56l-.6,8A71.21,71.21,0,0,1,132.6,89.16Zm18.76-26.47a18.39,18.39,0,0,0-13.09-5.46h-.05a18.52,18.52,0,0,0-.05,37h.05a18.53,18.53,0,0,0,13.14-31.58Z"></path> <path class="cls-2" d="M202.11,58.25,161.5,80.54a23.77,23.77,0,1,1-2.68-16.65h4.58V44.48l6.81-3.74-32-17.48L42.74,75.76,74.58,93.25,96,81.49A31.58,31.58,0,0,0,107.46,101a37.61,37.61,0,0,0,7.79,4.92l-8.78,4.83,31.69,17.48,95.78-52.5Zm-40,39.06,0,0A38.66,38.66,0,0,1,135,108.12c-10,0-19.36-3.11-26.22-8.74A29.68,29.68,0,0,1,97.62,75.74a29.67,29.67,0,0,1,11.17-23.63c6.86-5.63,16.18-8.74,26.22-8.74a39.81,39.81,0,0,1,21.51,6.28l1.09.71.74-1.91,2.94-1.61V61.76H160a25.88,25.88,0,1,0-21.76,39.87A26,26,0,0,0,160.3,89.24h1.85Z"></path> </g> </g> </svg> 