<?xml version="1.0" encoding="UTF-8"?> <!-- Generator: Adobe Illustrator 25.0.1, SVG Export Plug-In . SVG Version: 6.00 Build 0) --> <svg xmlns="http://www.w3.org/2000/svg" xmlns:xlink="http://www.w3.org/1999/xlink" id="Слой_1" x="0px" y="0px" viewBox="0 0 804.6 252.5" style="enable-background:new 0 0 804.6 252.5;" xml:space="preserve"> <style type="text/css"> .st0{fill:#F4063B;} .st1{fill:#FFFFFF;} .st2{fill:none;} </style> <g> <path class="st0" d="M386.3,80l-3.4,17.3h-27.1l3.4-17.3H386.3z"></path> <path class="st1" d="M358,78.5h22.1H358z"></path> <path class="st0" d="M191.5,80.3l-3.4,17h-28l3.4-17H191.5z"></path> <path class="st1" d="M162.3,78.8h23H162.3z"></path> <g> <path class="st0" d="M130.3,33.5l-8.8,3.3l-0.1-2c-0.1-2.1-0.5-3.8-1.1-5c-0.6-1.3-1.3-2.2-2.1-2.9c-0.4-0.3-0.8-0.6-1.3-0.8 c1.2-0.4,2.5-0.7,4-0.7c0.8,0.8,1.5,1.9,2.1,3.1s1,2.5,1.2,4.1l5.4-2C129.9,31.4,130.2,32.4,130.3,33.5L130.3,33.5z"></path> <path class="st0" d="M123.8,65.6c-0.5,1-0.9,1.9-1.4,2.7l-4.8-1.8c-1.8,3.7-3.7,6.4-5.9,8.1c-0.1,0.1-0.1,0.1-0.2,0.1 c-1.7-0.1-3.1-0.4-4.2-0.9l-0.1-0.1c0.9-0.4,1.8-0.9,2.7-1.5c2-1.5,3.8-4.3,5.5-8.2l0.6-1.3L123.8,65.6z"></path> <path class="st0" d="M99.5,96.8c3.3,1.3,7,2.1,11,2.5c-0.8,0-1.6,0.1-2.4,0.1c-6.5,0-12.3-1-17.3-2.9c-5.1-1.9-9.3-4.7-12.6-8.2 c-1.8-1.9-3.3-4.1-4.5-6.4h-5.8L67.5,81c-0.8-1.7-1.4-3.5-1.9-5.4c-1.2-4.8-1.2-10.2,0-16L70.1,38c1-4.9,2.6-9.8,4.6-14.3 c2.1-4.6,4.8-8.7,8.2-12.2c3.3-3.5,7.5-6.3,12.3-8.4c4.8-2,10.6-3.1,17-3.1c1.8,0,3.6,0.1,5.3,0.2c-5,0.3-9.4,1.3-13.3,3 c-0.6,0.2-1.1,0.5-1.6,0.7c-2.2,0.5-4.3,1.1-6.3,1.9c-4.4,1.9-8.2,4.5-11.3,7.7c-3.1,3.3-5.7,7.1-7.6,11.3c-2,4.4-3.5,9-4.4,13.7 l-4.5,21.7c-1.1,5.3-1.2,10.3,0,14.7c0.3,1.4,0.8,2.7,1.3,4h5.9c0.3,0.8,0.7,1.5,1,2.2l0.5,0.8c0.9,1.6,2,3,3.2,4.3 c2.9,3.2,6.8,5.7,11.4,7.4c1,0.4,2,0.7,3.1,1C96.4,95.4,97.9,96.1,99.5,96.8z"></path> <path class="st0" d="M314.6,98.8h-8.9l-1.8-16.9h3.1l1.4,13.9h5.9L314.6,98.8z"></path> <path class="st0" d="M317,1.2h-21.1l-1.5,2.6H289l-41.6,75h5.5l-0.2,0.3l-1.5,2.7l-0.1,0.1h0.1l-5.8,10.3l2-9.7l0.3-0.7h-5.4 l45-80.6L317,1.2z"></path> <path class="st0" d="M248.9,95.8l-1.6,3h-3.2l0.6-3H248.9z"></path> <path class="st0" d="M368.6,0L368,3h-6l-15,75.8h5.9l-0.6,3.1h-0.9l-2.8,13.9h6l-0.6,3h-9l3.3-16.9h-5L359.6,0H368.6z"></path> <path class="st0" d="M348.9,78.9H371H348.9z"></path> <path class="st0" d="M459,95.8h5.9l-0.6,3h-9l3.4-17h-5l11.8-59.3h3.1l-11.2,56.3h5.9l-0.6,3h-0.9L459,95.8z"></path> <path class="st0" d="M443.3,3L440,19.5h5.9l-0.5,3h-9L440.8,0h9l-0.6,3H443.3z"></path> <path class="st0" d="M693.3,82.2h-25.9H693.3z M614.9,81.9h21.9H614.9z"></path> <path class="st0" d="M689.4,1.5l-2.7,2.9h-5.1L655.7,33l1.1-5.7l23.4-25.9L689.4,1.5z"></path> <path class="st0" d="M682.1,98.8H673l-9.2-16.6h-5l-5.5-10.8l2.3-2.1l5,9.9h5.8l1.5,2.9h-0.7l0.1,0.1l7.5,13.6h5.7L682.1,98.8z"></path> <path class="st0" d="M652.8,1.4v0.1h-20.9l-0.6,2.9h-6.1l-14.8,74.4h6.1l-0.6,3h-1.1l-3,14h6.1l-0.7,3h-9.1l3.6-17h-5l16-80.4 L652.8,1.4z"></path> <path class="st0" d="M208.5,95.8h6l-0.6,3h-9l3.4-17h-6l11.3-56h3l-10.7,53h7l-0.6,3h-1L208.5,95.8z"></path> <path class="st0" d="M173,0l-0.6,3h-6.9l-15.2,75.8h2h9l-0.6,3h-6l-2.8,14h6.9l-0.6,3h-10l3.4-17h-5L163,0H173z"></path> <path class="st0" d="M559.4,1.5l-1.7,3h-5.5l-41.4,74.3h5.5l-1.7,3.1h5.6h-5.6l-7.7,13.9h5.6l-1.7,3h-9l9.4-16.9h-5.5l44.7-80.4 H559.4z"></path> <path class="st0" d="M578.1,98.8h-9l-1.6-16.9h3.1l1.2,13.9h6.1L578.1,98.8z"></path> <path class="st0" d="M612.4,79.2h21.8H612.4z"></path> <path class="st0" d="M688.4,79.2h-26H688.4z"></path> <path class="st0" d="M125.8,64.8l24.5,9.3c-1,2.4-2.2,4.5-3.4,6.5H78c-0.8-1.6-1.4-3.3-1.8-5.1c-1.2-4.7-1.2-9.8,0-15.4l0.1-0.3 l4.4-21.4c1-4.9,2.5-9.6,4.5-14c2-4.5,4.7-8.4,7.9-11.8s7.2-6.1,11.8-8.1c4.7-2,10.1-3,16.5-3c9.8,0,17.7,2,23.7,5.8 c6.1,3.9,9.8,10,11.2,18.3L132,34.7c-0.1-2.3-0.6-4.1-1.3-5.6c-0.7-1.4-1.5-2.6-2.5-3.4s-2.1-1.4-3.3-1.6 c-1.2-0.3-2.4-0.4-3.6-0.4c-4,0-7,1.3-9.2,3.9c-2.1,2.6-3.6,5.7-4.4,9.3l-4.6,22.8l-0.6,3c-0.4,1.8-0.5,3.5-0.4,5.1s0.5,3,1.3,4.2 s1.8,2.2,3.3,2.9c1.4,0.7,3.3,1.1,5.5,1.1c2.9,0,5.4-0.9,7.6-2.6C122,71.9,124,68.9,125.8,64.8z"></path> </g> <path class="st1" d="M122.4,68.3c-1.1,1.8-2.3,3.2-3.4,4.1c-2,1.5-4.2,2.3-6.7,2.3c-0.2,0-0.5,0-0.7,0c-1.4,1-2.9,1.8-4.4,2.2 c1.4,0.5,3.2,0.8,5.1,0.8c3.2,0,6.1-1,8.6-2.9c1.6-1.3,3.1-3,4.5-5.4L122.4,68.3z M151.7,74.7l0.6-1.4L125,62.9l-0.6,1.3 c-0.2,0.5-0.4,1-0.7,1.4c-0.5,1-0.9,1.9-1.4,2.7c-1.1,1.8-2.3,3.2-3.4,4.1c-2,1.5-4.2,2.3-6.7,2.3c-0.2,0-0.5,0-0.7,0 c-1.7-0.1-3.1-0.4-4.2-0.9l-0.1-0.1c-1.1-0.6-1.9-1.3-2.5-2.3s-1-2.2-1.1-3.5c-0.1-1.5,0-3,0.4-4.7l5.2-25.9 c0.7-3.4,2.1-6.3,4.1-8.6c1-1.2,2.2-2.1,3.6-2.6c1.2-0.4,2.5-0.7,4-0.7h0.4c1.1,0,2.1,0.1,3.3,0.4c1,0.2,1.9,0.7,2.7,1.3 c0.8,0.7,1.5,1.6,2.1,2.9c0.1,0.2,0.2,0.4,0.3,0.6c0.3,0.8,0.6,1.8,0.7,2.9c0,0.4,0.1,0.9,0.1,1.4l0.1,2l27.3-10.2l-0.2-1.2 c-1.4-8.7-5.4-15.2-11.9-19.3c-6.3-4-14.6-6.1-24.6-6.1c-1.3,0-2.5,0-3.7,0.1c-5,0.3-9.4,1.3-13.3,3c-0.6,0.2-1.1,0.5-1.6,0.7 c-4.1,2-7.7,4.6-10.7,7.7c-3.3,3.5-6.1,7.6-8.2,12.2s-3.6,9.4-4.6,14.3l-4.5,21.7c-1.2,5.8-1.2,11.2,0,16.1c0.3,1.1,0.6,2,1,3 c0.3,0.8,0.7,1.5,1,2.2l0.5,0.8h5.5c1.2,2.3,2.5,4.8,4.2,6.7c2.2,2.4,4.9,4.4,8,6.1c1.4,0.8,2.9,1.5,4.6,2.1c3.3,1.3,7,2.1,11,2.5 c2,0.2,4.1,0.3,6.3,0.3c9,0,17.1-1.9,24-5.7c5.1-2.8,9.4-7,12.8-12.4l1.7-2.7h-5.6C150.6,77.4,151,76.3,151.7,74.7L151.7,74.7z M77.6,60.5l4.5-21.7c1-4.7,2.5-9.3,4.4-13.7c1.9-4.3,4.5-8.1,7.6-11.4c3.1-3.2,6.9-5.8,11.3-7.7c3.5-1.5,7.6-2.4,12.1-2.7 c1.2-0.1,2.5-0.1,3.7-0.1c4.6,0,8.9,0.4,12.6,1.4c3.9,0.9,7.3,2.3,10.3,4.2c5.4,3.5,8.8,8.8,10.3,16.1l-21.3,8c0-0.1,0-0.2-0.1-0.3 c-0.2-1.1-0.4-2.1-0.8-2.9c-0.1-0.3-0.2-0.6-0.4-0.9c-0.8-1.7-1.8-2.9-2.9-3.9s-2.5-1.6-3.9-2c-1.4-0.3-2.6-0.4-3.9-0.4 c-1.5,0-3,0.2-4.3,0.6c-1.7,0.5-3.2,1.2-4.5,2.3c-0.6,0.5-1.1,1-1.5,1.5c-2.3,2.7-3.8,6.1-4.7,9.9l-5.2,25.9 c-0.4,1.9-0.6,3.8-0.5,5.5c0.1,1.8,0.6,3.4,1.5,4.9c0.3,0.5,0.7,1,1.1,1.5c0.8,0.8,1.7,1.5,2.7,2c0.3,0.2,0.7,0.3,1.1,0.5 c1.4,0.5,3.2,0.8,5.1,0.8c3.2,0,6.1-1,8.6-2.9c1.6-1.3,3.1-3,4.5-5.4c0.5-0.8,0.9-1.7,1.4-2.7l12,4.6l4.6,1.8l5,1.9 c-0.7,1.5-1.2,2.5-2,3.9H79.2c-0.7-1.2-1.2-2.2-1.6-3.6C76.5,70.8,76.5,65.8,77.6,60.5L77.6,60.5z M139.4,91.3 c-3.3,1.8-6.9,3.2-10.8,4.1c-3.7,0.9-7.6,1.3-11.8,1.3c-2.1,0-4.2-0.1-6.2-0.3c-0.8-0.1-1.6-0.2-2.5-0.3c-2.7-0.4-5.3-1.1-7.6-2 c-4.7-1.8-8.5-4.3-11.4-7.4c-1.2-1.3-2.1-3.1-3-4.6l54.6,0.2h3.7h5.3C146.7,86.1,143.3,89.1,139.4,91.3L139.4,91.3z M122.4,68.3 c-1.1,1.8-2.3,3.2-3.4,4.1c-2,1.5-4.2,2.3-6.7,2.3c-0.2,0-0.5,0-0.7,0c-1.4,1-2.9,1.8-4.4,2.2c1.4,0.5,3.2,0.8,5.1,0.8 c3.2,0,6.1-1,8.6-2.9c1.6-1.3,3.1-3,4.5-5.4L122.4,68.3z"></path> <path class="st0" d="M149.8,81.9c-2.8,3.9-6.5,7.2-10.4,9.3c-6.5,3.6-14.1,5.4-22.6,5.4c-3.1,0-6-0.2-8.7-0.7 c-2.7-0.4-5.3-1.1-7.6-2c-4.7-1.8-8.5-4.3-11.4-7.4c-1.2-1.3-2.1-3.1-3-4.6L149.8,81.9z"></path> <path class="st0" d="M332.5,59.7l-8.3-57h-27.5l-31.6,57l-11.6,20.9h82L332.5,59.7z M296.2,50.1l7.9-17h0.8l0.8,16.3l0.8,10.2 h-14.6L296.2,50.1z"></path> <path class="st1" d="M307,49.6l-0.9-17.7H303l-4.8,10.3l-2.7,5.8l-0.8,1.7l-3.7,8.1l-1.4,3l-0.3,0.6h18.6L307,49.6z M294,58.4 l0.3-0.6l1.6-3.5l2.6-5.6l5-10.8l0.6,11.8l0.6,8.6L294,58.4L294,58.4z M307,49.6l-0.9-17.7H303l-4.8,10.3l-2.7,5.8l-0.8,1.7 l-3.7,8.1l-1.4,3l-0.3,0.6h18.6L307,49.6z M294,58.4l0.3-0.6l1.6-3.5l2.6-5.6l5-10.8l0.6,11.8l0.6,8.6L294,58.4L294,58.4z M307,49.6l-0.9-17.7H303l-4.8,10.3l-2.7,5.8l-0.8,1.7l-3.7,8.1l-1.4,3l-0.3,0.6h18.6L307,49.6z M294,58.4l0.3-0.6l1.6-3.5l2.6-5.6 l5-10.8l0.6,11.8l0.6,8.6L294,58.4L294,58.4z"></path> <path class="st0" d="M299.2,58.4H294l0.2-0.6h1.9l-0.2-3.5l2.6-5.5v0.3L299.2,58.4z"></path> <path class="st1" d="M342.4,78.8h-5.5L325.6,1.2h-29.7l-1.4,2.6l-41.6,75l-0.2,0.3l-1.5,2.7l-0.1,0.1h5.5l-7.7,13.9l-1.7,3h32 l8.3-16.9h25.3l1.5,13.8l0.3,3h30.6L342.4,78.8z M297.7,4.2H323l10.8,74.6h-77.5L297.7,4.2z M283.9,82.3l-6.6,13.4h-25l7.6-13.7 H284L283.9,82.3z M317.3,95.8l-1.4-13.7h23.9l2,13.7H317.3z"></path> <path class="st0" d="M438.8,30.9c-0.6-8.3-2.5-14.8-7.8-19.7c-1.6-1.5-3.3-2.8-5.1-3.9c-6.7-4.1-14.9-5.8-25.7-5.8h-30.4l-1.2,5.8 l-10.4,52.3l-4,20.3h27.1l2.3-11.7h12.2c12,0,22.4-2.9,29.9-8.2c0.2-0.1,0.6-0.4,0.6-0.4C434.9,53.3,439.6,43.6,438.8,30.9z M393,20.5h5.7c6.3,0,10.4,1.4,13.4,4.3c2.2,2.1,3.5,4.8,3.7,7.9c0.8,10.8-8.3,17.1-22.2,17.1h-6.4L393,20.5z"></path> <path class="st1" d="M360.5,81.5h22.1H360.5z M417.3,32.6c-0.3-3.5-1.7-6.6-4.2-8.9c-3.4-3.2-7.9-4.7-14.5-4.7h-6.9v0.1l-0.6,3 L386,48.3l-0.6,3h8.2c8.7,0,15.7-2.4,19.7-6.8C416.3,41.4,417.7,37.3,417.3,32.6z M411.2,42.5c-2.4,2.6-6.2,4.4-10.9,5.3 c-2,0.4-4.2,0.6-6.6,0.6h-4.5v-0.3l5.1-25.7l0.1-0.3h4.5c1.3,0,2.5,0.1,3.6,0.2c3.8,0.4,6.6,1.6,8.8,3.6c1.9,1.8,3,4.2,3.2,6.9 C414.6,36.7,413.5,40,411.2,42.5L411.2,42.5z M417.3,32.6c-0.3-3.5-1.7-6.6-4.2-8.9c-3.4-3.2-7.9-4.7-14.5-4.7h-6.9v0.1l-0.6,3 L386,48.3l-0.6,3h8.2c8.7,0,15.7-2.4,19.7-6.8C416.3,41.4,417.7,37.3,417.3,32.6z M411.2,42.5c-2.4,2.6-6.2,4.4-10.9,5.3 c-2,0.4-4.2,0.6-6.6,0.6h-4.5v-0.3l5.1-25.7l0.1-0.3h4.5c1.3,0,2.5,0.1,3.6,0.2c3.8,0.4,6.6,1.6,8.8,3.6c1.9,1.8,3,4.2,3.2,6.9 C414.6,36.7,413.5,40,411.2,42.5L411.2,42.5z M417.3,32.6c-0.3-3.5-1.7-6.6-4.2-8.9c-3.4-3.2-7.9-4.7-14.5-4.7h-6.9v0.1l-0.6,3 L386,48.3l-0.6,3h8.2c8.7,0,15.7-2.4,19.7-6.8C416.3,41.4,417.7,37.3,417.3,32.6z M411.2,42.5c-2.4,2.6-6.2,4.4-10.9,5.3 c-2,0.4-4.2,0.6-6.6,0.6h-4.5v-0.3l5.1-25.7l0.1-0.3h4.5c1.3,0,2.5,0.1,3.6,0.2c3.8,0.4,6.6,1.6,8.8,3.6c1.9,1.8,3,4.2,3.2,6.9 C414.6,36.7,413.5,40,411.2,42.5L411.2,42.5z"></path> <path class="st0" d="M404.4,44.6c-1.1,1.2-2.5,2.3-4.1,3.2c-2,0.4-4.2,0.6-6.6,0.6h-4.5v-0.3c5.7-0.7,10.2-2.6,13-5.6 c2.4-2.6,3.5-5.8,3.2-9.7c-0.2-2.8-1.3-5.2-3.2-6.9c-2-1.9-4.6-3-7.9-3.5l0.1-0.3h4.5c1.3,0,2.5,0.1,3.6,0.2 c0.6,0.4,1.2,0.9,1.8,1.4c2.5,2.3,3.9,5.4,4.2,8.9C408.7,37.3,407.3,41.4,404.4,44.6z"></path> <path class="st1" d="M440.3,30.8c-0.7-9.7-3.2-15.9-8.2-20.7c-1.6-1.5-3.4-2.9-5.3-4.1c-6.7-4.1-15.1-6-26.5-6h-31.6L368,3 l-15.1,75.8l-0.6,3.1h5l-2.8,13.9l-0.6,3H384l4-20h-5l1.8-9h11c12.3,0,23-2.9,30.8-8.5l0.6-0.4C436.6,53.9,441.1,43.5,440.3,30.8 L440.3,30.8z M384.4,81.9l-2.8,13.9h-24l2.8-13.9H384.4z M425.4,58.5l-0.5,0.4c-3.8,2.7-8.4,4.8-13.6,6.1 c-4.7,1.2-9.9,1.8-15.4,1.8h-13.4l-0.6,3l-1.8,9h-24L371,3h29.2c5.6,0,10.4,0.5,14.6,1.5c3.9,0.9,7.3,2.3,10.3,4.1 c1.8,1.1,3.4,2.3,4.9,3.7c2.2,2.1,3.9,4.6,5.1,7.6s1.9,6.7,2.2,11.1C438.1,42.6,434,52.1,425.4,58.5L425.4,58.5z"></path> <path class="st0" d="M535.4,1.5L531.6,21h-29.2l-7.7,38.7l-4.1,20.6h-26l4-20.6l7.7-38.7h-29.1l2.7-13.7l1.1-5.8L535.4,1.5z"></path> <path class="st1" d="M469.2,19.5l-0.6,3h5.9l-11.2,56.4h3l11.8-59.4H469.2z M449.8,0l-0.6,3l-3.3,16.4l-0.6,3h29.2l-11.2,56.4 l-0.6,3h5l-2.8,14l-0.6,3h29.1l4-20h-5l11.2-56.4h29.2L537.2,0L449.8,0z M493.8,81.8l-2.8,14h-23l2.8-14H493.8z M530.3,19.5h-29.2 l-0.6,3l-11.2,56.4h-23l11.8-59.4H449L452.3,3h81.3L530.3,19.5z"></path> <path class="st0" d="M493.8,81.8l-2.8,14h-23l2.8-14H493.8z"></path> <path class="st0" d="M689,59.8l10.8,20.9h-31L660,63.4l-14.7,13.1l-0.8,4.2h-26.9l4.2-20.9L633.1,3h27l-8.4,42.4L690.1,3h28.4 L682,46.2L689,59.8z"></path> <path class="st1" d="M623.9,82.2h21.9H623.9z"></path> <path class="st1" d="M702.3,82.2h-25.9H702.3z"></path> <path class="st1" d="M700.7,79.2l-17-32.8l37.9-44.9h-32.3l-2.7,2.9l-32.5,35.9l1.4-7.3l1.1-5.7L662,1.5h-30.1l-0.6,2.9l-14.8,74.3 l-0.6,3v0.1h5l-3,13.9l-0.6,3h8.5H639h8.4l4-20h-5l0.3-1.5l6.6-5.9l2.3-2.1l3.9-3.5l6.8,13.4l1.5,3v0.1h5l7.5,13.6l1.6,3h34.5 l-10.9-19.6L700.7,79.2z M647.7,81.9l-0.1,0.3l-2.8,13.7h-24v-0.1l2.9-13.9H647.7z M660.4,61l-6.3,5.6l-2.3,2.1l-8,7.1l-0.6,3.1 h-23.8l14.8-74.3h24l-5.4,27.1l-1.1,5.7l-2.6,13l41.5-45.9h24.5L680.2,46l17.2,33.2h-27.6v-0.1L660.4,61z M683.9,95.9l-7.5-13.7 H704l7.6,13.7H683.9z"></path> <path class="st0" d="M257.1,1.5L252,27l-6.6,32.7l-4.1,20.6h-27.2l4.2-20.6l6.6-32.7l0.5-2.7h-27.7l-0.5,2.7l-6.5,32.7l-4.2,20.6 h-28l4.1-20.6l6.6-32.7l5.1-25.5L257.1,1.5z"></path> <path class="st1" d="M164.7,81.8h23.1H164.7z"></path> <path class="st1" d="M173,0l-0.6,3l-15.2,75.8l-0.6,3h5l-2.8,13.9l-0.6,3h31.1l4-19.9h-5l10.6-53h24.6l-10.7,53l-0.6,3h30.3 L258.9,0H173z M189.7,81.8l-2.8,13.9h-25l2.8-13.9H189.7z M240.1,78.8H216l11.3-56h-30.8l-0.6,3l-10.6,53h-25L175.5,3h79.8 L240.1,78.8z"></path> <path class="st0" d="M596.1,59.8L587.8,3h-27.5l-31.6,56.9l-11.4,20.5h82L596.1,59.8z M559.7,50.3l7.9-16.9h0.8l0.8,16.3l0.8,10.2 h-14.6L559.7,50.3z"></path> <path class="st1" d="M570.7,49.5l-0.8-17.7h-3.2l-5.3,11.3l-2.7,5.8l-0.3,0.7l-4,8.6l-1.4,3h18.6L570.7,49.5z M557.7,58.3l1.4-3.1 l2.6-5.6l5.4-11.7l0.6,11.8l0.6,8.5L557.7,58.3L557.7,58.3z M570.7,49.5l-0.8-17.7h-3.2l-5.3,11.3l-2.7,5.8l-0.3,0.7l-4,8.6l-1.4,3 h18.6L570.7,49.5z M557.7,58.3l1.4-3.1l2.6-5.6l5.4-11.7l0.6,11.8l0.6,8.5L557.7,58.3L557.7,58.3z M570.7,49.5l-0.8-17.7h-3.2 l-5.3,11.3l-2.7,5.8l-0.3,0.7l-4,8.6l-1.4,3h18.6L570.7,49.5z M557.7,58.3l1.4-3.1l2.6-5.6l5.4-11.7l0.6,11.8l0.6,8.5L557.7,58.3 L557.7,58.3z"></path> <path class="st0" d="M562.3,58.3h-3l-0.2-3.1l2.6-5.6L562.3,58.3z"></path> <path class="st1" d="M606.1,78.8h-5.5L589.1,1.5h-29.7l-1.7,3l-41.4,74.3l-1.7,3.1h5.6l-7.7,13.9l-1.7,3h32l8.3-16.9h25.6l1.3,13.9 l0.3,3h30.6L606.1,78.8z M540.9,95.8h-25l7.7-13.9h24.1L540.9,95.8z M519.8,78.8l41.3-74.3h25.3l11,74.3H519.8z M580.8,95.8 l-1.2-13.9h23.9l1.8,13.9H580.8z"></path> <path class="st0" d="M547.7,81.9l-6.8,13.9h-25l7.7-13.9H547.7z"></path> <path class="st0" d="M605.3,95.8h-24.5l-1.2-13.9h23.9L605.3,95.8z"></path> <path class="st0" d="M647.7,81.9l-2.8,14h-24l3-14H647.7z"></path> <path class="st1" d="M621.4,79.2h21.8H621.4z"></path> <path class="st0" d="M711.6,95.9h-27.7l-7.5-13.7H704L711.6,95.9z"></path> <path class="st1" d="M697.4,79.2h-26H697.4z"></path> <path class="st0" d="M246.3,80.3l-3.4,17h-27.2l3.4-17H246.3z"></path> <path class="st1" d="M217.9,78.8l-0.6,3l-2.8,13.9l-0.6,3h30.3l0.6-3l0.7-3.6l2-9.7l0.7-3.7L217.9,78.8L217.9,78.8z M242.6,91.1 l-0.9,4.6h-24.1l2.8-13.9h24.1L242.6,91.1z"></path> <path class="st0" d="M260.1,81.9h24l-6.7,13.9h-25L260.1,81.9z"></path> <path class="st0" d="M341.8,95.8h-24.5l-1.4-13.9h23.8L341.8,95.8z"></path> <path class="st0" d="M37.2,26.8l-2.3,3h1l2.2-3H37.2z M33.5,61.8h-1.8l1.4,3h1.8L33.5,61.8z M18.2,29.8l2.2-3h-6.3L0,45.6l9,19.2 h8.1l-1.4-3h-4.8L3.5,46l12.1-16.2L18.2,29.8z"></path> <path class="st0" d="M38,44.4L46.4,62h-9.7l-8.2-17.6l13.1-17.5h9.7L38,44.4z"></path> <path class="st2" d="M57.1,24.1H40.2l-2,2.7l-2.2,3L25.2,44.1l8.3,17.7l1.4,3H51l-9.7-20L57.1,24.1z M46.4,62h-9.7l-8.2-17.5 L41.6,27h9.7L38,44.4L46.4,62z"></path> <path class="st2" d="M22.4,24.1l-2,2.7l-2.2,3L7.4,44.1l8.3,17.7l1.4,3h16.1l-1.4-3l-8.2-17l11.5-15l2.3-3l2-2.7L22.4,24.1z M20.2,44.4L28.6,62h-9.7l-8.2-17.5L23.8,27h9.7L20.2,44.4z"></path> <path class="st0" d="M20.2,44.4L28.6,62h-9.7l-8.2-17.6l13.1-17.5h9.7L20.2,44.4z"></path> <path class="st0" d="M154.7,119.2c-8.1,0.8-15.9,3.2-23,6.8c-14.5,4.1-27.2,13.6-35.6,26.6l2.1-10.8c12.5-14.3,30.4-23,49.8-23 C150.3,118.9,152.5,119,154.7,119.2z"></path> <path class="st0" d="M134.6,249.5c-2.2,0.2-4.5,0.3-6.7,0.3c-25.9,0-46.5-14.8-54.8-38l2.1-10.6c4.2,21.2,18.3,36.5,37.6,41.8 C119.3,246.5,126.7,248.7,134.6,249.5z"></path> <path class="st0" d="M61.9,121.2L61,126h-8.3l-10.9,54.8h-3.1l-0.9,4.8h-8.3l-11.3,57.1h8.2l-0.9,4.9H12.3l13.2-66.8h11.4 l11.8-59.6L61.9,121.2z"></path> <path class="st0" d="M375.5,119.7l-1,4.9h-8.2l-11.4,56.3h-3.5l-1,4.9h-8.3l-11.9,58.7h8.3l-1,4.9h-13.2l13.9-68.5h11.7l12.4-61.2 L375.5,119.7z"></path> <path class="st0" d="M454.5,119.7l-4,4.9h-6.9l-29.2,35.3l-8.6,10.7l2-10.2l2.9-3.6l30.6-37.1L454.5,119.7z"></path> <path class="st0" d="M316.3,120l-0.9,4.9h-8.3l-8.4,41.7h-5l9.4-46.6L316.3,120z"></path> <path class="st0" d="M250.7,120l-1,4.9h-8.2l-11.4,55.9h-3.4l-0.9,4.8h-1.6l1-4.8l12.3-60.8H250.7z"></path> <path class="st0" d="M271.3,243.8h8.3l-1,4.9h-13.2l9.6-47.5h5L271.3,243.8z"></path> <path class="st0" d="M225.2,180.8l-1,4.8h-6.7l-11.8,58.2h8.3l-1,4.9h-13.2l13.7-67.9L225.2,180.8z"></path> <path class="st0" d="M411.1,244.5l-1,4.9h-13.2l7.4-36.8l0.4-0.5l6.1-7.3l-8,39.7L411.1,244.5z"></path> <path class="st0" d="M514.9,245.3c7.2,3.8,15.5,6.2,24.4,7c-2.2,0.2-4.5,0.3-6.8,0.3c-34.3,0-59.9-23.3-62.2-56.5 c-0.3-4.3-0.2-8.6,0.3-12.8l0.2-2.1h7.7c4.4-30.2,29.6-60.1,70.5-60.1c2.2,0,4.3,0.1,6.4,0.3c-9.8,0.8-18.6,3.4-26.3,7.3 c-26.1,7.6-42.2,29.9-45.7,52.5h0.6l-0.2,2.1c-0.1,0.9-0.2,1.8-0.2,2.7h-8.4c-0.3,3.2-0.3,6.5,0,9.8 C476.8,220.3,492.4,239,514.9,245.3L514.9,245.3z"></path> <path class="st0" d="M692.4,180.4h-1.7l-0.6,0.3c-3.2,1.9-7.2,3.2-11.8,3.7c-1.2,0.2-2.4,0.3-3.6,0.3l0.6-3.1 c0.6-0.3,1.1-0.6,1.6-0.9l0.6-0.3h7.5c5.2-3.3,7.6-8.3,7.2-14.6c-0.2-3.3-1.6-6.3-3.9-8.4c-2-1.9-4.4-3.2-7.5-3.9l0.2-0.8h5.2 c1.5,0,3,0.1,4.3,0.2c0.4,0.3,0.8,0.6,1.1,1c3.2,3,5.1,7,5.4,11.6C697.4,171.3,695.8,176.4,692.4,180.4z"></path> <path class="st0" d="M647.7,123.8l-1,4.8h-8.3l-10.2,51.8h0.7l-1,4.8h-8.3l-11.8,59.7h8.3l-1,4.8h-13.2l13.8-69.3h7.5l11.3-56.6 L647.7,123.8z"></path> <path class="st0" d="M214.4,174.3c-1-14.9-7-27.5-16.4-36.4s-22.2-14.1-36.8-14.1c-28.4,0-53.4,20.3-60.8,49.2l-0.5,1.8H86.8 l9.6-48.8H65.9L55,180.8h70.5c2.8-19.3,16.6-33,33.5-33c15.7,0,27.4,12.3,28.7,29.9c0.1,1,0.1,2.1,0.1,3.1h26.8 C214.6,178.6,214.6,176.4,214.4,174.3L214.4,174.3z"></path> <path class="st0" d="M203,185.6c-2.9,34-29.1,59.4-61.9,59.4c-28.8,0-50.3-19.9-53.6-49.4l-0.2-2.1H71.8L62,242.7H31.4l11.4-57.1 h71c-0.1,1.9-0.1,3.8,0.1,5.8c1.2,17.5,13,29.8,28.7,29.8c17.8,0,32-15.1,33.8-35.5H203L203,185.6z"></path> <path class="st1" d="M187.7,177.7c-1.2-17.6-13-29.9-28.7-29.9c-2.3,0-4.5,0.3-6.7,0.7c-3.6,0.8-7,2.3-10.2,4.4 c1.2-0.2,2.4-0.3,3.7-0.3c2.3,0,4.5,0.3,6.5,0.9c2.1-0.6,4.4-0.9,6.7-0.9c0.9,0,1.8,0,2.6,0.1c11.8,1.3,20.2,11.1,21.2,25.3 c0,0.9,0.1,1.8,0.1,2.8h4.9C187.8,179.7,187.8,178.7,187.7,177.7z M171.4,185.6c-1.6,16.2-11.9,28.4-25.2,30.4 c-1.2,0.2-2.5,0.3-3.8,0.3c-2.3,0-4.5-0.3-6.5-0.9c-2.1,0.6-4.4,0.9-6.7,0.9c-0.9,0-1.8,0-2.7-0.1c2.8,2,6,3.4,9.4,4.2 c2.1,0.5,4.2,0.7,6.5,0.7c17.8,0,32-15.1,33.8-35.5L171.4,185.6z M187.7,177.7c-1.2-17.6-13-29.9-28.7-29.9c-2.3,0-4.5,0.3-6.7,0.7 c-3.6,0.8-7,2.3-10.2,4.4c-8.6,5.7-14.8,15.7-16.6,27.9h-19.7l-0.3,2.7c-0.1,0.7-0.1,1.4-0.2,2.2h8.4c-0.1,1.9-0.1,3.8,0.1,5.8 c0.8,10.8,5.5,19.6,12.8,24.8c0.9,0.1,1.8,0.1,2.7,0.1c2.3,0,4.6-0.3,6.7-0.9c-9.8-2.8-16.5-11.9-17.3-24.4c-0.1-1.9-0.1-3.7,0-5.4 H130l0.2-2.2c1.5-15.1,10.5-26.7,22.3-29.9c2.1-0.6,4.4-0.9,6.7-0.9c0.9,0,1.8,0,2.6,0.1c11.8,1.3,20.2,11.1,21.2,25.3 c0,0.9,0.1,1.8,0.1,2.8h4.9C187.8,179.7,187.8,178.7,187.7,177.7L187.7,177.7z M171.4,185.6c-1.6,16.2-11.9,28.4-25.2,30.4 c-1.2,0.2-2.5,0.3-3.8,0.3c-2.3,0-4.5-0.3-6.5-0.9c-2.1,0.6-4.4,0.9-6.7,0.9c-0.9,0-1.8,0-2.7-0.1c2.8,2,6,3.4,9.4,4.2 c2.1,0.5,4.2,0.7,6.5,0.7c17.8,0,32-15.1,33.8-35.5L171.4,185.6z M187.7,177.7c-1.2-17.6-13-29.9-28.7-29.9c-2.3,0-4.5,0.3-6.7,0.7 c-3.6,0.8-7,2.3-10.2,4.4c-8.6,5.7-14.8,15.7-16.6,27.9h-19.7l-0.3,2.7c-0.1,0.7-0.1,1.4-0.2,2.2h8.4c-0.1,1.9-0.1,3.8,0.1,5.8 c0.8,10.8,5.5,19.6,12.8,24.8c0.9,0.1,1.8,0.1,2.7,0.1c2.3,0,4.6-0.3,6.7-0.9c-9.8-2.8-16.5-11.9-17.3-24.4c-0.1-1.9-0.1-3.7,0-5.4 H130l0.2-2.2c1.5-15.1,10.5-26.7,22.3-29.9c2.1-0.6,4.4-0.9,6.7-0.9c0.9,0,1.8,0,2.6,0.1c11.8,1.3,20.2,11.1,21.2,25.3 c0,0.9,0.1,1.8,0.1,2.8h4.9C187.8,179.7,187.8,178.7,187.7,177.7L187.7,177.7z M171.4,185.6c-1.6,16.2-11.9,28.4-25.2,30.4 c-1.2,0.2-2.5,0.3-3.8,0.3c-2.3,0-4.5-0.3-6.5-0.9c-2.1,0.6-4.4,0.9-6.7,0.9c-0.9,0-1.8,0-2.7-0.1c2.8,2,6,3.4,9.4,4.2 c2.1,0.5,4.2,0.7,6.5,0.7c17.8,0,32-15.1,33.8-35.5L171.4,185.6z M187.7,177.7c-1.2-17.6-13-29.9-28.7-29.9c-2.3,0-4.5,0.3-6.7,0.7 c-3.6,0.8-7,2.3-10.2,4.4c1.2-0.2,2.4-0.3,3.7-0.3c2.3,0,4.5,0.3,6.5,0.9c2.1-0.6,4.4-0.9,6.7-0.9c0.9,0,1.8,0,2.6,0.1 c11.8,1.3,20.2,11.1,21.2,25.3c0,0.9,0.1,1.8,0.1,2.8h4.9C187.8,179.7,187.8,178.7,187.7,177.7z M105.8,180.8l-0.3,2.7 c-0.1,0.7-0.1,1.4-0.2,2.2h11.3l0.2-2.2c0.1-0.9,0.2-1.8,0.4-2.7H105.8z M129.9,185.6l0.2-2.2c1.5-15.1,10.5-26.7,22.3-29.9 c-2-0.6-4.2-0.9-6.5-0.9c-1.2,0-2.5,0.1-3.7,0.3c-8.6,5.7-14.8,15.7-16.6,27.9h-8.3c-0.1,0.9-0.3,1.8-0.4,2.7l-0.2,2.2h-3 c-0.1,1.9-0.1,3.8,0.1,5.8c0.8,10.8,5.5,19.6,12.8,24.8c0.9,0.1,1.8,0.1,2.7,0.1c2.3,0,4.6-0.3,6.7-0.9 c-9.8-2.8-16.5-11.9-17.3-24.4c-0.1-1.9-0.1-3.7,0-5.4h11.2V185.6z M171.4,185.6c-1.6,16.2-11.9,28.4-25.2,30.4 c-1.2,0.2-2.5,0.3-3.8,0.3c-2.3,0-4.5-0.3-6.5-0.9c-2.1,0.6-4.4,0.9-6.7,0.9c-0.9,0-1.8,0-2.7-0.1c2.8,2,6,3.4,9.4,4.2 c2.1,0.5,4.2,0.7,6.5,0.7c17.8,0,32-15.1,33.8-35.5L171.4,185.6z M219.2,173.9c-2.3-32.4-26.1-55-58-55c-2.2,0-4.4,0.1-6.5,0.3 c-8.1,0.8-15.9,3.2-23,6.8c-16.8,8.6-30,24.3-35.5,43.9h-3.5l3.4-17.3l2.1-10.8l4.1-20.7H61.9l-1,4.8L50,180.7H38.7l-1,4.8 l-11.3,57.1l-1,4.8H66l7.1-35.7l2.1-10.6l0.6-3H83c2.9,20.4,13.9,36.3,29.9,44.7c6.5,3.5,13.9,5.7,21.8,6.5 c2.1,0.2,4.3,0.3,6.5,0.3c35.5,0,63.8-27.5,66.7-64.2h11.4l0.1-2.3C219.5,180.2,219.4,177,219.2,173.9L219.2,173.9z M157.8,242.7 c-5.3,1.5-10.9,2.3-16.7,2.3c-2.2,0-4.4-0.1-6.5-0.4c-25.5-2.8-44.1-21.8-47.2-49.1l-0.2-2.1H71.8l-1.5,7.9L62,242.7H31.4 l11.4-57.1h71c-0.1,1.9-0.1,3.8,0.1,5.8c0.8,10.8,5.5,19.6,12.8,24.8c2.8,2,6,3.4,9.4,4.2c2.1,0.5,4.2,0.7,6.5,0.7 c17.8,0,32-15.1,33.8-35.5H203C200.6,213.6,182.4,235.7,157.8,242.7L157.8,242.7z M152.3,153.5c2.1-0.6,4.4-0.9,6.7-0.9 c0.9,0,1.8,0,2.6,0.1c11.8,1.3,20.2,11.1,21.2,25.3c0,0.9,0.1,1.8,0.1,2.8h-11.3l-0.1,2.3c0,0.9-0.1,1.7-0.2,2.5 c-1.6,16.2-11.9,28.4-25.2,30.4c-1.2,0.2-2.5,0.3-3.8,0.3c-2.3,0-4.5-0.3-6.5-0.9c-9.8-2.8-16.5-11.9-17.3-24.4 c-0.1-1.9-0.1-3.7,0-5.4h11.3l0.2-2.2C131.6,168.3,140.5,156.7,152.3,153.5L152.3,153.5z M187.8,180.8c0-1,0-2-0.1-3.1 c-1.2-17.6-13-29.9-28.7-29.9c-2.3,0-4.5,0.3-6.7,0.7c-3.6,0.8-7,2.3-10.2,4.4c-8.6,5.7-14.8,15.7-16.6,27.9H55L65.9,126h30.5 l-4.9,24.9L87,174l-0.2,0.8H100l0.5-1.8c6.8-26.7,28.6-46,54.2-48.8c2.1-0.3,4.3-0.4,6.5-0.4c5.3,0,10.3,0.7,15,2 c8.4,2.3,15.8,6.5,21.8,12.1c9.4,8.9,15.4,21.6,16.4,36.4c0.2,2.1,0.2,4.3,0.2,6.5L187.8,180.8z M171.4,185.6 c-1.6,16.2-11.9,28.4-25.2,30.4c-1.2,0.2-2.5,0.3-3.8,0.3c-2.3,0-4.5-0.3-6.5-0.9c-9.8-2.8-16.5-11.9-17.3-24.4 c-0.1-1.9-0.1-3.7,0-5.4h11.3l0.2-2.2c1.5-15.1,10.5-26.7,22.3-29.9c-2-0.6-4.2-0.9-6.5-0.9c-1.2,0-2.5,0.1-3.7,0.3 c-8.6,5.7-14.8,15.7-16.6,27.9h-8.3c-0.1,0.9-0.3,1.8-0.4,2.7l-0.2,2.2h-3c-0.1,1.9-0.1,3.8,0.1,5.8c0.8,10.8,5.5,19.6,12.8,24.8 c2.8,2,6,3.4,9.4,4.2c2.1,0.5,4.2,0.7,6.5,0.7c17.8,0,32-15.1,33.8-35.5h-4.9L171.4,185.6z M105.8,180.8l-0.3,2.7 c-0.1,0.7-0.1,1.4-0.2,2.2h11.3l0.2-2.2c0.1-0.9,0.2-1.8,0.4-2.7H105.8z M187.7,177.7c-1.2-17.6-13-29.9-28.7-29.9 c-2.3,0-4.5,0.3-6.7,0.7c-3.6,0.8-7,2.3-10.2,4.4c1.2-0.2,2.4-0.3,3.7-0.3c2.3,0,4.5,0.3,6.5,0.9c2.1-0.6,4.4-0.9,6.7-0.9 c0.9,0,1.8,0,2.6,0.1c11.8,1.3,20.2,11.1,21.2,25.3c0,0.9,0.1,1.8,0.1,2.8h4.9C187.8,179.7,187.8,178.7,187.7,177.7z M171.4,185.6 c-1.6,16.2-11.9,28.4-25.2,30.4c-1.2,0.2-2.5,0.3-3.8,0.3c-2.3,0-4.5-0.3-6.5-0.9c-2.1,0.6-4.4,0.9-6.7,0.9c-0.9,0-1.8,0-2.7-0.1 c2.8,2,6,3.4,9.4,4.2c2.1,0.5,4.2,0.7,6.5,0.7c17.8,0,32-15.1,33.8-35.5L171.4,185.6z M187.7,177.7c-1.2-17.6-13-29.9-28.7-29.9 c-2.3,0-4.5,0.3-6.7,0.7c-3.6,0.8-7,2.3-10.2,4.4c-8.6,5.7-14.8,15.7-16.6,27.9h-19.7l-0.3,2.7c-0.1,0.7-0.1,1.4-0.2,2.2h8.4 c-0.1,1.9-0.1,3.8,0.1,5.8c0.8,10.8,5.5,19.6,12.8,24.8c0.9,0.1,1.8,0.1,2.7,0.1c2.3,0,4.6-0.3,6.7-0.9 c-9.8-2.8-16.5-11.9-17.3-24.4c-0.1-1.9-0.1-3.7,0-5.4H130l0.2-2.2c1.5-15.1,10.5-26.7,22.3-29.9c2.1-0.6,4.4-0.9,6.7-0.9 c0.9,0,1.8,0,2.6,0.1c11.8,1.3,20.2,11.1,21.2,25.3c0,0.9,0.1,1.8,0.1,2.8h4.9C187.8,179.7,187.8,178.7,187.7,177.7L187.7,177.7z M171.4,185.6c-1.6,16.2-11.9,28.4-25.2,30.4c-1.2,0.2-2.5,0.3-3.8,0.3c-2.3,0-4.5-0.3-6.5-0.9c-2.1,0.6-4.4,0.9-6.7,0.9 c-0.9,0-1.8,0-2.7-0.1c2.8,2,6,3.4,9.4,4.2c2.1,0.5,4.2,0.7,6.5,0.7c17.8,0,32-15.1,33.8-35.5L171.4,185.6z M187.7,177.7 c-1.2-17.6-13-29.9-28.7-29.9c-2.3,0-4.5,0.3-6.7,0.7c-3.6,0.8-7,2.3-10.2,4.4c1.2-0.2,2.4-0.3,3.7-0.3c2.3,0,4.5,0.3,6.5,0.9 c2.1-0.6,4.4-0.9,6.7-0.9c0.9,0,1.8,0,2.6,0.1c11.8,1.3,20.2,11.1,21.2,25.3c0,0.9,0.1,1.8,0.1,2.8h4.9 C187.8,179.7,187.8,178.7,187.7,177.7z M171.4,185.6c-1.6,16.2-11.9,28.4-25.2,30.4c-1.2,0.2-2.5,0.3-3.8,0.3 c-2.3,0-4.5-0.3-6.5-0.9c-2.1,0.6-4.4,0.9-6.7,0.9c-0.9,0-1.8,0-2.7-0.1c2.8,2,6,3.4,9.4,4.2c2.1,0.5,4.2,0.7,6.5,0.7 c17.8,0,32-15.1,33.8-35.5L171.4,185.6z M152.3,148.5c-3.6,0.8-7,2.3-10.2,4.4c1.2-0.2,2.4-0.3,3.7-0.3c2.3,0,4.5,0.3,6.5,0.9 c2.1-0.6,4.4-0.9,6.7-0.9c0.9,0,1.8,0,2.6,0.1C158.9,150.7,155.7,149.3,152.3,148.5z"></path> <path class="st0" d="M174.6,180.8h-3l-0.1,2.3c0,0.9-0.1,1.7-0.2,2.5H163c-1.2,13.3-7.6,24.3-16.9,30.4c-1.2,0.2-2.5,0.3-3.8,0.3 c-2.3,0-4.5-0.3-6.5-0.9c12.5-3.4,21.8-16.2,22.4-32.3l0.1-2.3h11.3c0-0.9,0-1.8-0.1-2.8c-0.9-12.6-7.6-21.7-17.3-24.5 c2.1-0.6,4.4-0.9,6.7-0.9c0.9,0,1.8,0,2.6,0.1c7.3,5.2,12.1,14,12.8,24.9C174.6,178.7,174.6,179.7,174.6,180.8z"></path> <path class="st0" d="M413,122.2h-35.5l-12.4,61.2h35.6L413,122.2z"></path> <path class="st0" d="M485.6,122.2h-29.9l-29.9,36.2l-20.3,25h67.7L485.6,122.2z"></path> <path class="st0" d="M353,122.5h-34.7l-9.4,46.6h-30.6l9.4-46.6h-35l-12.3,60.7h100.3L353,122.5z"></path> <path class="st0" d="M251,246.3l9.6-47.5h30.6l-9.6,47.5h34.7l12.7-63.1H228.7l-12.8,63.1L251,246.3z"></path> <path class="st1" d="M316.3,120l-1,4.8l-8.4,41.8h-25.7l9.4-46.6h-40l-1,4.8l-11.3,55.9h-11.7l-1,4.8L214,243.8l-1,4.8h40l9.6-47.5 h25.7l-8.6,42.7l-1,4.8h39.6l12.8-63.1h11.7L356,120L316.3,120z M314.3,243.8h-29.8l9.6-47.5h-35.5l-1,4.8l-8.6,42.7h-30.1 l11.8-58.2h95.4L314.3,243.8z M338.7,180.8h-95.4l11.3-55.9h30.1l-8.4,41.8l-1,4.8h35.5l9.4-46.6H350L338.7,180.8z"></path> <path class="st0" d="M419.7,183.4h-26H389h-35.7l-12.8,63.5H372l30.8-36.4l22.4-27h0.5l-12.6,63.4h35.5l12.8-63.5H419.7z"></path> <path class="st1" d="M403.7,180.9l-0.2,1.1l0.9-1.1H403.7z"></path> <path class="st1" d="M454.5,119.7l-4,4.8l-26.6,32.3l-19.5,24.1l-0.9,1.1l0.2-1.1l2.1-10.3l2-10.2l8.1-40.7h-40.4l-1,4.8 l-11.4,56.4h-11.8l-1,4.8l-11.9,58.7l-1,4.8H373l31.1-36.8l0.4-0.5l6.1-7.3l10.9-13.2l-10.6,53l-1,4.8h40.4l12.9-63.6H475l13.4-66 L454.5,119.7L454.5,119.7z M379.5,124.6h30.6l-8.8,43.9l-2,10.2l-0.5,2.2h-30.7L379.5,124.6z M412.8,194.7l-6.5,7.9L401,209 l-30.1,35.5h-27.5l11.9-58.7h42.5l-1.4,6.9h4.6l5.6-6.9h13.5L412.8,194.7z M446.6,244.5H416l11.7-58.7h30.8L446.6,244.5z M471.2,180.9h-60.6l17-21l29.2-35.3h25.8L471.2,180.9z"></path> <path class="st0" d="M622.2,183.5c0-1.9,0-3.9-0.2-5.8c-2.2-30.8-26-54.3-59.8-54.3c-38.9,0-64.8,28.2-68.4,60.1h31.1 c3-16.5,16-32.2,35.7-32.2c18.5,0,29.6,11.9,30.7,28.7c0.1,1.2,0.1,2.3,0.1,3.5H622.2z"></path> <path class="st0" d="M614.5,183.5c-0.5,34.5-27.2,66.7-68.8,66.7c-33.8,0-57.7-23.5-59.8-54.3c-0.3-4.2-0.2-8.3,0.3-12.4h31.1 c-0.6,3.4-0.8,6.7-0.6,10.1c1.2,16.8,12.2,28.7,30.7,28.7c22.3,0,35.9-20.1,36.3-38.8H614.5z"></path> <path class="st1" d="M554.1,149.4c-4.7,0.8-9,2.5-12.7,4.8c1.9-0.4,3.9-0.5,6-0.5c2.4,0,4.6,0.2,6.8,0.6c2-0.4,4.2-0.6,6.4-0.6 c2.1,0,4.1,0.2,6,0.5C563,151.8,558.8,150.2,554.1,149.4z M624.5,177.5c-2.3-33.3-27.9-56.5-62.2-56.5c-2.3,0-4.6,0.1-6.8,0.3 c-9.8,0.8-18.6,3.4-26.3,7.3c-21.3,10.8-34.4,31.6-37.4,52.5H484l-0.2,2.1c-0.1,0.9-0.2,1.8-0.2,2.7c-0.3,3.4-0.3,6.8,0,10.1 c1.6,22.2,13.5,40,31.5,49.3c7.2,3.8,15.5,6.2,24.4,7c2.1,0.2,4.2,0.3,6.4,0.3c44.5,0,69.5-33.9,71.1-66.7h7.7v-2.4 C624.6,181.4,624.6,179.4,624.5,177.5L624.5,177.5z M566,244.9c-6.2,1.8-13,2.8-20.3,2.8c-2.2,0-4.3-0.1-6.4-0.3 c-28.4-2.7-49.1-23.2-51.1-51.7c-0.2-3.3-0.2-6.5,0-9.8h26.1c-0.3,2.6-0.4,5.3-0.2,7.8c0.8,11.4,5.9,20.4,14,25.6 c3.6,2.4,7.8,4,12.4,4.8c2.1,0.4,4.4,0.5,6.7,0.5c22.8,0,37.2-19.3,38.6-38.8h26C610.6,210.9,594.7,236.6,566,244.9z M554.1,154.3 c2-0.4,4.2-0.6,6.4-0.6c2.1,0,4.1,0.2,6,0.5c13,2.2,21.3,11.7,22.3,26v0.9h-7.6v2.4c0,0.8-0.1,1.7-0.1,2.5 c-1.3,15.3-11.4,30.3-27.7,33.4c-1.9,0.4-4,0.6-6.1,0.6c-2.4,0-4.6-0.2-6.8-0.6c-12.5-2.4-20.6-11.9-21.5-25.8 c-0.2-2.4-0.1-4.9,0.2-7.5h7.7l0.4-2C529.7,171.1,538.9,157.4,554.1,154.3L554.1,154.3z M593.8,181c0-0.4,0-0.8-0.1-1.3 c-1.3-18.8-14.3-31-33.1-31c-2.3,0-4.4,0.2-6.5,0.6c-4.7,0.8-9,2.5-12.7,4.8c-9.8,6.1-16.1,16.6-18.4,26.8h-26.3 c4.1-26.2,25-51.9,58.8-55c2.2-0.2,4.5-0.3,6.8-0.3c6.2,0,12.1,0.8,17.6,2.4c22.5,6.4,38.1,25,39.8,49.6c0.1,1,0.1,2.1,0.1,3.2h-26 L593.8,181z M554.1,149.4c-4.7,0.8-9,2.5-12.7,4.8c1.9-0.4,3.9-0.5,6-0.5c2.4,0,4.6,0.2,6.8,0.6c2-0.4,4.2-0.6,6.4-0.6 c2.1,0,4.1,0.2,6,0.5C563,151.8,558.8,150.2,554.1,149.4z"></path> <path class="st0" d="M581.3,181v2.4c0,0.8-0.1,1.7-0.1,2.5h-8.4c-1,13.2-7.9,26.3-19.4,33.4c-1.9,0.4-4,0.6-6.1,0.6 c-2.4,0-4.6-0.2-6.8-0.6c16.9-3.4,27.1-19.8,27.5-35.8l0.1-2.4h7.6v-0.9c-1-13.9-9-23.4-21.5-25.8c2-0.4,4.2-0.6,6.4-0.6 c2.1,0,4.1,0.2,6,0.5c8.1,5.3,13.2,14.2,14,25.6c0,0.4,0,0.8,0.1,1.3h0.6L581.3,181z"></path> <path class="st0" d="M736.8,163.4c-0.7-10.5-3.2-18.7-9.8-24.9c-2-1.9-4.2-3.5-6.4-4.9c-8.4-5.2-18.9-7.4-32.5-7.4h-38.4l-1.5,7.4 l-9.8,49.2h34.2l6.4-32.6h7.2c8,0,13.1,1.7,17,5.4c2.8,2.6,4.4,6.1,4.7,10c0.5,7.6-2.8,13.5-8.9,17.2h35.2 C736.3,177.1,737.3,170.6,736.8,163.4L736.8,163.4z"></path> <path class="st0" d="M726.5,182.8c-2.7,6.8-7.1,12.5-13.1,16.9c0,0-0.5,0.4-0.7,0.5c-9.5,6.8-22.6,10.4-37.8,10.4h-15.4l-2.9,14.8 l-4.4,21.9H618l4.4-21.9l5.1-25.7l3.3-16.9H665l-0.9,4.4h8c7.8,0,14.3-1.5,19.2-4.4H726.5z"></path> <path class="st1" d="M710.2,165.5c-0.3-4.6-2.2-8.6-5.4-11.6c-4.5-4.2-10.2-6-18.6-6H677v0.2l-0.9,4.8c1.8,0.1,3.3,0.4,4.8,0.7 l0.2-0.8h5.2c1.5,0,3,0.1,4.3,0.2c4.8,0.5,8.3,2,11,4.5c2.3,2.2,3.7,5.1,3.9,8.4c0.4,6.3-2,11.3-7.2,14.6h7.4 C709,176.4,710.6,171.3,710.2,165.5L710.2,165.5z M654.8,180.4l-0.9,4.4h5.1c0.8,0,1.7,0,2.5-0.1l0.9-4.4h-7.6V180.4z M678.8,185.2 c-4.6,2.6-10.7,4.1-17.6,4.4h11c7.8,0,14.7-1.5,19.8-4.4H678.8z M710.2,165.5c-0.3-4.6-2.2-8.6-5.4-11.6c-4.5-4.2-10.2-6-18.6-6 H677v0.2l-0.9,4.8c1.8,0.1,3.3,0.4,4.8,0.7l0.2-0.8h5.2c1.5,0,3,0.1,4.3,0.2c4.8,0.5,8.3,2,11,4.5c2.3,2.2,3.7,5.1,3.9,8.4 c0.4,6.3-2,11.3-7.2,14.6h7.4C709,176.4,710.6,171.3,710.2,165.5L710.2,165.5z M654.8,180.4l-0.9,4.4h5.1c0.8,0,1.7,0,2.5-0.1 l0.9-4.4h-7.6V180.4z M678.8,185.2c-4.6,2.6-10.7,4.1-17.6,4.4h11c7.8,0,14.7-1.5,19.8-4.4H678.8z M710.2,165.5 c-0.3-4.6-2.2-8.6-5.4-11.6c-4.5-4.2-10.2-6-18.6-6H677v0.2l-0.9,4.8c1.8,0.1,3.3,0.4,4.8,0.7l0.2-0.8h5.2c1.5,0,3,0.1,4.3,0.2 c4.8,0.5,8.3,2,11,4.5c2.3,2.2,3.7,5.1,3.9,8.4c0.4,6.3-2,11.3-7.2,14.6h7.4C709,176.4,710.6,171.3,710.2,165.5L710.2,165.5z M654.8,180.4l-0.9,4.4h5.1c0.8,0,1.7,0,2.5-0.1l0.9-4.4h-7.6V180.4z M678.8,185.2c-4.6,2.6-10.7,4.1-17.6,4.4h11 c7.8,0,14.7-1.5,19.8-4.4H678.8z M739.2,163.2c-0.9-12.4-4-20.4-10.6-26.5c-2.1-1.9-4.4-3.7-6.8-5.2c-8.5-5.3-19.2-7.7-33.7-7.7 h-40.4l-1,4.8l-10.3,51.8h-7.6l-1,4.8L616,244.8l-1,4.8h39.2l7.3-36.7H675c15.7,0,29.3-3.7,39.2-10.9l0.7-0.5 c5.9-4.4,10.4-9.9,13.2-16.4h7.6l0.6-1.5c2-5.1,3-10.6,3-16.6C739.3,165.8,739.3,164.5,739.2,163.2L739.2,163.2z M712,197.7 l-0.7,0.5c-4.5,3.2-9.9,5.7-16,7.4s-13,2.5-20.4,2.5h-17.4l-1,4.8l-6.3,31.8H621l11.9-59.6h29.2l-0.9,4.4h11 c7.8,0,14.7-1.5,19.8-4.4h30.8C720.3,190.1,716.7,194.3,712,197.7L712,197.7z M681,152.7h5.2c1.5,0,3,0.1,4.3,0.2 c4.8,0.5,8.3,2,11,4.5c2.3,2.2,3.7,5.1,3.9,8.4c0.4,6.3-2,11.3-7.2,14.6h-7.5l-0.6,0.3c-3.2,1.9-7.2,3.2-11.8,3.7 c-1.2,0.2-2.4,0.3-3.6,0.3l0.6-3.1l5.5-28.1L681,152.7z M732.4,180.4h-26.8c3.5-4,5.1-9.1,4.7-14.9c-0.3-4.6-2.2-8.6-5.4-11.6 c-4.5-4.2-10.2-6-18.6-6H677v0.2l-0.9,4.8l-5.4,27.6h-29.2l10.3-51.8h36.4c7.4,0,13.6,0.7,19.1,2c4.6,1.1,8.6,2.8,12.1,5 c2.2,1.4,4.2,2.9,6.1,4.6c2.8,2.6,4.9,5.6,6.3,9.4c1.5,3.8,2.3,8.3,2.7,13.9C734.8,169.7,734.1,175.3,732.4,180.4L732.4,180.4z M678.8,185.2c-4.6,2.6-10.7,4.1-17.6,4.4h11c7.8,0,14.7-1.5,19.8-4.4H678.8z M654.8,180.4l-0.9,4.4h5.1c0.8,0,1.7,0,2.5-0.1 l0.9-4.4h-7.6V180.4z M710.2,165.5c-0.3-4.6-2.2-8.6-5.4-11.6c-4.5-4.2-10.2-6-18.6-6H677v0.2l-0.9,4.8c1.8,0.1,3.3,0.4,4.8,0.7 l0.2-0.8h5.2c1.5,0,3,0.1,4.3,0.2c4.8,0.5,8.3,2,11,4.5c2.3,2.2,3.7,5.1,3.9,8.4c0.4,6.3-2,11.3-7.2,14.6h7.4 C709,176.4,710.6,171.3,710.2,165.5L710.2,165.5z M678.8,185.2c-4.6,2.6-10.7,4.1-17.6,4.4h11c7.8,0,14.7-1.5,19.8-4.4H678.8z M654.8,180.4l-0.9,4.4h5.1c0.8,0,1.7,0,2.5-0.1l0.9-4.4h-7.6V180.4z M710.2,165.5c-0.3-4.6-2.2-8.6-5.4-11.6 c-4.5-4.2-10.2-6-18.6-6H677v0.2l-0.9,4.8c1.8,0.1,3.3,0.4,4.8,0.7l0.2-0.8h5.2c1.5,0,3,0.1,4.3,0.2c4.8,0.5,8.3,2,11,4.5 c2.3,2.2,3.7,5.1,3.9,8.4c0.4,6.3-2,11.3-7.2,14.6h7.4C709,176.4,710.6,171.3,710.2,165.5L710.2,165.5z M678.8,185.2 c-4.6,2.6-10.7,4.1-17.6,4.4h11c7.8,0,14.7-1.5,19.8-4.4H678.8z M710.2,165.5c-0.3-4.6-2.2-8.6-5.4-11.6c-4.5-4.2-10.2-6-18.6-6 H677v0.2l-0.9,4.8c1.8,0.1,3.3,0.4,4.8,0.7l0.2-0.8h5.2c1.5,0,3,0.1,4.3,0.2c4.8,0.5,8.3,2,11,4.5c2.3,2.2,3.7,5.1,3.9,8.4 c0.4,6.3-2,11.3-7.2,14.6h7.4C709,176.4,710.6,171.3,710.2,165.5L710.2,165.5z"></path> <path class="st1" d="M404.4,180.9l-0.9,1.1l0.2-1.1H404.4z"></path> <path class="st0" d="M765.8,181l-7.8-16.2h4.6l-1.5-3h-7.9l9.1,18.9l-14.7,19.2h9.4l2.3-3h-5.6L765.8,181z M778.9,161.8h-1.8l1.4,3 h1.8L778.9,161.8z M776.1,196.9l-2.2,3h1l2.3-3H776.1z"></path> <path class="st0" d="M801.4,182.2l-13.1,17.5h-9.8l13.4-17.5l-8.4-17.5h9.7L801.4,182.2z"></path> <path class="st0" d="M783.6,182.2l-11,14.7l-2.1,2.8h-9.8l13.4-17.5l-8.5-17.5h9.8l7.9,16.8L783.6,182.2z"></path> <path class="st1" d="M795,161.8h-16l1.5,3l8.2,17l-11.5,15l-2.3,3l-2,2.7h16.9l15-20L795,161.8z M788.3,199.7h-9.7l13.4-17.5 l-8.5-17.5h9.7l8.2,17.5L788.3,199.7z"></path> <path class="st1" d="M778.6,164.8l-1.4-3h-16l1.5,3l8.2,17l-11.5,15l-2.3,3l-2,2.7H772l2-2.7l2.2-3l10.7-14.4L778.6,164.8z M772.6,196.9l-2.1,2.8h-9.7l13.4-17.5l-8.5-17.5h9.7l7.9,16.9l0.3,0.7L772.6,196.9z"></path> </g> </svg> 