<svg width="14" height="14" viewBox="0 0 14 14" xmlns="http://www.w3.org/2000/svg">
    <path d="M13.422 5.633l-1.008-.168c-.336-.056-.572-.21-.665-.433-.092-.223-.034-.498.164-.775l.595-.832a.716.716 0 00-.074-.89l-.968-.969a.7.7 0 00-.494-.197.687.687 0 00-.397.123l-.832.595c-.19.135-.381.206-.555.206-.335 0-.58-.264-.653-.707L8.366.577A.715.715 0 007.685 0h-1.37a.716.716 0 00-.682.578l-.168 1.008c-.074.443-.318.707-.653.707-.174 0-.366-.071-.555-.206l-.832-.595a.688.688 0 00-.397-.123.7.7 0 00-.494.197l-.968.968a.716.716 0 00-.074.89l.595.833c.197.277.256.553.164.776-.093.223-.329.376-.665.432l-1.009.169A.716.716 0 000 6.315v1.37c0 .323.259.628.578.681l1.009.169c.336.055.571.21.664.432.092.223.034.498-.164.776l-.594.832a.716.716 0 00.073.89l.969.969a.7.7 0 00.493.197.686.686 0 00.397-.123l.832-.595c.19-.135.381-.206.556-.206.335 0 .579.264.653.707l.168 1.009a.715.715 0 00.681.577h1.37a.716.716 0 00.682-.577l.168-1.01c.074-.442.318-.706.653-.706.174 0 .366.071.555.206l.832.594c.112.08.252.123.398.123a.699.699 0 00.493-.196l.968-.969a.716.716 0 00.074-.89l-.594-.833c-.198-.277-.256-.552-.164-.775.092-.223.328-.377.664-.433l1.009-.168A.715.715 0 0014 7.685v-1.37a.716.716 0 00-.578-.682zM7 9.567a2.567 2.567 0 110-5.134 2.567 2.567 0 010 5.134z"
          fill="#C4C4C4"/>
</svg>