<?xml version="1.0" encoding="UTF-8"?> <svg xmlns="http://www.w3.org/2000/svg" viewBox="0 0 125.24 77.42"> <defs> <style>.cls-1{fill:#fff;}.cls-2{fill:#df002f;}.cls-3{fill:#d7b47c;}</style> </defs> <title>Ресурс 5</title> <g id="Слой_2" data-name="Слой 2"> <g id="Слой_1-2" data-name="Слой 1"> <polygon class="cls-1" points="0 43.03 62.64 77.42 125.24 43.03 125.24 43.03 62.62 8.64 0 43.03"></polygon> <path class="cls-2" d="M11.74,43l51-28,51.09,28-51.09,28Zm51-32.31L3.91,43l58.82,32.3L121.53,43Z"></path> <path class="cls-2" d="M65.93,50.18a5.35,5.35,0,0,0,.41-.78,9.14,9.14,0,0,0,1.31-.71,8.83,8.83,0,0,0,1.57-1.27,8,8,0,0,1-3.29,2.76m-9.87-3a3.77,3.77,0,0,0,.57,0,5.34,5.34,0,0,0,.59-.11h0a5.52,5.52,0,0,0,1.23,1.28,8.78,8.78,0,0,0,1.67.91h0a5.17,5.17,0,0,0,.22.81c.06.19.13.37.2.55A7.89,7.89,0,0,1,56.06,47.16Zm6.69-12a7.83,7.83,0,0,1,3.28.73l.12.09c.23.19.47.41.68.62a1.52,1.52,0,0,1,.3.38L65.67,38.5a14.36,14.36,0,0,0-2.31-.22,11.5,11.5,0,0,0-1.34,0h-.11l-2-1.71a5.1,5.1,0,0,1,1.34-1.32,8.47,8.47,0,0,1,1.44-.13ZM67.23,37a.85.85,0,0,1,.44.17c.3.16.58.33.85.51a7.78,7.78,0,0,1,2,4.75,7.55,7.55,0,0,1-1,1.18L67,42l0-.17a2,2,0,0,1-.06-.23,18.53,18.53,0,0,0-1.11-3L67.22,37ZM63.59,47.8l.28-3.63.64-.39c.53-.34,1.07-.7,1.62-1.07.09-.06.54-.38.69-.5l.13-.09,2.57,1.63a7.6,7.6,0,0,1,0,1.35,12.2,12.2,0,0,1-.15,1.47,3.38,3.38,0,0,1-.16.71h0a9.11,9.11,0,0,1-1.61,1.31,9.59,9.59,0,0,1-1.28.7c-.56-.26-1.12-.56-1.66-.87Zm-8-6.51c.05-.19.21-.81.43-1.42a15.88,15.88,0,0,1,.77-1.78,5.22,5.22,0,0,1,.66-.42,11.56,11.56,0,0,1,1.47-.7,4.14,4.14,0,0,1,1-.31l2,1.72a22.13,22.13,0,0,0-1.1,2.94c0,.15-.09.31-.12.42L57.41,43.2C56.81,42.61,55.76,41.49,55.55,41.29Zm1.1-3.24a17.63,17.63,0,0,0-.77,1.78c-.24.67-.41,1.37-.45,1.5v0a7.57,7.57,0,0,0-.49.66,7.78,7.78,0,0,1,1.7-4ZM60.17,49.1a9.26,9.26,0,0,1-1.65-.9A5.22,5.22,0,0,1,57.32,47l0,0a14.84,14.84,0,0,1,0-2,16,16,0,0,1,.18-1.62l3.16-1.45c.5.41,1,.78,1.58,1.18s1,.8,1.58,1.16l-.27,3.6A31.71,31.71,0,0,1,60.17,49.1Zm8.51-12a8.28,8.28,0,0,0-5.93-2.48h0a8.41,8.41,0,0,0,0,16.81h0A8.43,8.43,0,0,0,71.13,43,8.34,8.34,0,0,0,68.68,37.09Z"></path> <path class="cls-2" d="M91.71,35.07,73.29,45.19a10.8,10.8,0,1,1-1.22-7.56h2.08V28.82l3.09-1.69L62.72,19.19,19.39,43,33.84,51l9.72-5.33a14.38,14.38,0,0,0,5.2,8.86,17.64,17.64,0,0,0,3.54,2.23l-4,2.19,14.38,7.93L106.16,43ZM73.58,52.8l0,0A17.52,17.52,0,0,1,61.27,57.7a18.74,18.74,0,0,1-11.9-4,13.88,13.88,0,0,1,0-21.45,18.69,18.69,0,0,1,11.9-4A18,18,0,0,1,71,31.17l.5.32.34-.86,1.33-.74v6.77h-.6a11.75,11.75,0,1,0,.15,12.47h.84Z"></path> <polygon class="cls-3" points="57.45 0 56.18 2.58 53.34 2.99 55.4 4.99 54.91 7.81 57.45 6.42 59.99 7.81 59.51 4.99 61.56 2.99 58.72 2.58 57.45 0"></polygon> <polygon class="cls-3" points="47.24 0 45.97 2.58 43.13 2.99 45.18 4.99 44.7 7.81 47.24 6.42 49.77 7.81 49.29 4.99 51.35 2.99 48.51 2.58 47.24 0"></polygon> <polygon class="cls-3" points="67.61 0 66.34 2.58 63.5 2.99 65.55 4.99 65.07 7.81 67.61 6.42 70.15 7.81 69.66 4.99 71.72 2.99 68.88 2.58 67.61 0"></polygon> <polygon class="cls-3" points="77.82 0 76.55 2.58 73.71 2.99 75.77 4.99 75.29 7.81 77.82 6.42 80.36 7.81 79.88 4.99 81.94 2.99 79.09 2.58 77.82 0"></polygon> </g> </g> </svg> 