<?xml version="1.0" encoding="UTF-8"?> <svg xmlns="http://www.w3.org/2000/svg" viewBox="0 0 85.53 17.21"> <defs> <style>.cls-1{fill:#d8b57c;}</style> </defs> <title>Ресурс 3</title> <g id="Слой_2" data-name="Слой 2"> <g id="Слой_1-2" data-name="Слой 1"> <polygon class="cls-1" points="31.57 0 28.77 5.67 22.52 6.58 27.05 11 25.98 17.21 31.57 14.14 37.17 17.21 36.1 11 40.63 6.58 34.37 5.67 31.57 0"></polygon> <polygon class="cls-1" points="9.06 0 6.26 5.67 0 6.58 4.53 11 3.46 17.21 9.06 14.14 14.65 17.21 13.59 11 18.12 6.58 11.86 5.67 9.06 0"></polygon> <polygon class="cls-1" points="53.95 0 51.16 5.67 44.9 6.58 49.43 11 48.36 17.21 53.95 14.14 59.55 17.21 58.48 11 63.01 6.58 56.75 5.67 53.95 0"></polygon> <polygon class="cls-1" points="76.47 0 73.67 5.67 67.41 6.58 71.94 11 70.87 17.21 76.47 14.14 82.06 17.21 81 11 85.53 6.58 79.26 5.67 76.47 0"></polygon> </g> </g> </svg> 