<?xml version="1.0" encoding="UTF-8"?> <svg xmlns="http://www.w3.org/2000/svg" viewBox="0 0 189.59 75.05"> <defs> <style>.cls-1{fill:#e0002f;}.cls-2{fill:#1b1c20;}</style> </defs> <title>Ресурс 4</title> <g id="Слой_2" data-name="Слой 2"> <g id="Слой_1-2" data-name="Слой 1"> <polygon class="cls-1" points="127.78 29.56 127.24 27.69 132.78 27.69 132.78 22.81 116.46 22.81 116.46 27.69 121.7 27.69 121.7 44.14 127.78 44.14 127.78 29.56"></polygon> <path class="cls-1" d="M152.68,37.67h-5.25L150.05,31Zm2.54,6.47h6.58l-8.37-21.33h-7.66l.58,2,.5.22-7.48,19.09h5.52l.81-2.07h8.7Z"></path> <path class="cls-1" d="M73.5,37.67H68.25L70.87,31ZM76,44.14h6.58L74.25,22.81H66.59l.58,2,.51.22L60.19,44.14h5.52l.81-2.07h8.71Z"></path> <polygon class="cls-1" points="182.08 31.82 188.9 23.84 188.9 22.81 182.59 22.81 175.71 30.89 175.71 22.81 168.49 22.81 169.07 24.83 169.62 25.07 169.62 44.14 175.71 44.14 175.71 39.28 178.14 36.43 178.47 37.84 182.45 44.14 189.59 44.14 182.08 31.82"></polygon> <path class="cls-1" d="M20.6,37.43h-.44l0,0a8.21,8.21,0,0,1-6.57,3.15c-4.35-.06-6.95-3.3-6.95-7.3a7,7,0,0,1,7.19-7,7.15,7.15,0,0,1,5.54,2.63l0,0h1.54V22.54l-1.54.59-.22.49A14,14,0,0,0,12.63,22C5.56,22,0,27.15,0,33.47S5.27,44.79,12.63,44.94a14.24,14.24,0,0,0,8.93-3.08Z"></path> <path class="cls-1" d="M103.47,30.23A3.63,3.63,0,0,1,100,33.5,6.4,6.4,0,0,1,97.05,33V27.33a4.38,4.38,0,0,1,2.73-1,3.45,3.45,0,0,1,3.69,3.89m-3.33-8.16a9,9,0,0,0-4.08,1.2l-.59-.46H90.88l.58,2V44.14h5.71v-6.8a14.88,14.88,0,0,0,3.42.28c4.71-.16,8.78-3.21,8.79-8C109.4,24.37,104.44,21.8,100.14,22.07Z"></path> <polygon class="cls-1" points="34.19 22.73 30.33 22.73 31.1 25.39 31.85 25.73 31.85 26.1 31.84 44.06 38.15 44.06 38.15 29.2 37.53 27.19 44.91 27.19 44.91 44.06 51.22 44.06 51.22 22.73 34.19 22.73"></polygon> <path class="cls-2" d="M26,5c-1.53,0-2.48-.58-2.48-1.88A2.29,2.29,0,0,1,26,1V.65a7.73,7.73,0,0,0-1-.14A1.51,1.51,0,0,1,25,0l1.41,0c.44,0,1,0,1.39,0a1.54,1.54,0,0,1,.06.53A5.61,5.61,0,0,1,27,.66V1c1.53,0,2.48.57,2.48,1.86A2.3,2.3,0,0,1,27,5v.34a4.68,4.68,0,0,1,.94.14,1.43,1.43,0,0,1-.06.51c-.35,0-.95,0-1.39,0L25,6A1.55,1.55,0,0,1,25,5.52a10,10,0,0,0,1-.14Zm0-.59V1.58a2.09,2.09,0,0,0-1,.21,1.51,1.51,0,0,0-.42,1.12A1.37,1.37,0,0,0,26,4.45Zm1-2.87V4.45a2.26,2.26,0,0,0,1-.21,1.56,1.56,0,0,0,.43-1.13A1.37,1.37,0,0,0,27,1.58Z"></path> <path class="cls-2" d="M34.11,4.56,35,4.9a4.5,4.5,0,0,0,.27-.57L33.33.88a2.62,2.62,0,0,0-.67-.16,1.79,1.79,0,0,1,.07-.51L34,.23c.36,0,.87,0,1.21,0a1.41,1.41,0,0,1,.05.51l-.73.15,1.22,2.36,1-2.36L36,.72a1.78,1.78,0,0,1,.06-.51l1,0c.3,0,.74,0,1,0a1.67,1.67,0,0,1,0,.51,2.81,2.81,0,0,1-.62.16L35.86,4.69A3.81,3.81,0,0,1,35,6a2.25,2.25,0,0,1-1.29-.82A.87.87,0,0,1,34.11,4.56Z"></path> <path class="cls-2" d="M44.93.92V4.46q0,.36,0,.69a3.81,3.81,0,0,1,.9.16,1.43,1.43,0,0,1,0,.51c-.35,0-1,0-1.41,0L43,5.82a1.31,1.31,0,0,1-.09-.51,6.2,6.2,0,0,0,1-.16,2.11,2.11,0,0,0,0-.51V.92H42.73A9.38,9.38,0,0,0,42.6,2,1.48,1.48,0,0,1,42,2,9.74,9.74,0,0,1,41.88.29L42,.21c.51,0,1.37,0,2,0h1c.58,0,1.44,0,2,0l.09.08A8.83,8.83,0,0,1,46.84,2a1.61,1.61,0,0,1-.62,0A6.38,6.38,0,0,0,46.09.92Z"></path> <path class="cls-2" d="M55.48,4a2,2,0,0,1-2.15,1.87c-.42,0-.78,0-1.3,0l-1.22,0a1.79,1.79,0,0,1-.07-.51,4,4,0,0,0,.73-.16,2.78,2.78,0,0,0,0-.51V2c0-.49,0-.84,0-1.15a3.31,3.31,0,0,0-.73-.16,1.79,1.79,0,0,1,.07-.51L52,.23h1c.58,0,1.44,0,2,0l.08.08A5.83,5.83,0,0,1,55,1.72a1.3,1.3,0,0,1-.62,0,4.18,4.18,0,0,0-.13-.8H52.54V2.57a6,6,0,0,1,1-.08C54.75,2.49,55.48,3.17,55.48,4ZM53.09,5.12a2,2,0,0,0,1-.15,1,1,0,0,0,.32-.81c0-.59-.48-1-1.26-1l-.6,0v1.9Z"></path> <path class="cls-2" d="M59.35,3.11A2.91,2.91,0,0,1,62,.07a2.53,2.53,0,0,1,2.52,2.84A2.91,2.91,0,0,1,61.88,6C60.23,6,59.35,4.71,59.35,3.11Zm3.57,1.8a2.46,2.46,0,0,0,.55-1.65C63.47,2,63,.86,61.81.86a1.42,1.42,0,0,0-.82.26,2.44,2.44,0,0,0-.55,1.65c0,1.27.48,2.4,1.67,2.4A1.41,1.41,0,0,0,62.92,4.91Z"></path> <path class="cls-2" d="M69.24,4.91a8.53,8.53,0,0,0,.88-4,5.55,5.55,0,0,0-.73-.16,1.78,1.78,0,0,1,.06-.51l1.21,0h1.72c.38,0,.89,0,1.18,0a1.67,1.67,0,0,1,0,.51,3.23,3.23,0,0,1-.68.16c0,.31,0,.66,0,1.15V4.46q0,.36,0,.69a2.34,2.34,0,0,1,.68.16,1.7,1.7,0,0,1,0,.51c-.29,0-.8,0-1.18,0L71,5.82A1.5,1.5,0,0,1,71,5.31a5.31,5.31,0,0,0,.87-.16,2.1,2.1,0,0,0,.05-.51V.92h-1c-.12,2.36-.52,4.25-1.66,5a2,2,0,0,1-1.19-.76.88.88,0,0,1,.41-.59Z"></path> <path class="cls-2" d="M78.24,2c0-.49,0-.84,0-1.15a3.31,3.31,0,0,0-.73-.16,1.79,1.79,0,0,1,.07-.51l1.21,0c.46,0,1.06,0,1.42,0a2.05,2.05,0,0,1,0,.51,5.34,5.34,0,0,1-.91.16c0,.31,0,.66,0,1.15v.5a6.07,6.07,0,0,1,1-.08c1.17,0,1.9.69,1.9,1.5a2,2,0,0,1-2.15,1.89c-.42,0-.79,0-1.31,0l-1.21,0a1.79,1.79,0,0,1-.07-.51,4,4,0,0,0,.73-.16,3.44,3.44,0,0,0,0-.65Zm1,1.15V5.12h.55a2,2,0,0,0,1-.15,1,1,0,0,0,.32-.84c0-.59-.48-1-1.26-1A5.91,5.91,0,0,0,79.27,3.18Z"></path> <path class="cls-2" d="M89.26.72a1.79,1.79,0,0,1,.07-.51l1.21,0c.38,0,.89,0,1.18,0a1.41,1.41,0,0,1,0,.51,3.13,3.13,0,0,1-.67.16c0,.33,0,.71,0,1.27V4.46a5.12,5.12,0,0,0,0,.69,2.27,2.27,0,0,1,.67.16,1.43,1.43,0,0,1,0,.51c-.29,0-.8,0-1.18,0l-1.21,0a1.79,1.79,0,0,1-.07-.51A4,4,0,0,0,90,5.15a4.35,4.35,0,0,0,0-.63V3.29c-.55,0-1.12-.06-1.64-.06h-.82V4.46a5.12,5.12,0,0,0,0,.69,2.27,2.27,0,0,1,.67.16,1.43,1.43,0,0,1,0,.51c-.29,0-.79,0-1.18,0l-1.21,0a1.79,1.79,0,0,1-.07-.51,3.82,3.82,0,0,0,.73-.16,3.28,3.28,0,0,0,0-.63V2c0-.49,0-.84,0-1.15a3.19,3.19,0,0,0-.73-.16,1.79,1.79,0,0,1,.07-.51l1.21,0c.39,0,.89,0,1.18,0a1.41,1.41,0,0,1,0,.51,3.13,3.13,0,0,1-.67.16c0,.33,0,.71,0,1.27v.4H90V2c0-.49,0-.84,0-1.15A3.31,3.31,0,0,0,89.26.72Z"></path> <path class="cls-2" d="M99.22,4.12c-.44,0-.89,0-1.28,0h-.57L97,5.16l.73.15a1.7,1.7,0,0,1,0,.51c-.3,0-.77,0-1.07,0l-1,0a1.79,1.79,0,0,1-.07-.51,3.26,3.26,0,0,0,.67-.16L97.94.31a3.4,3.4,0,0,1,1-.13l1.79,5a2,2,0,0,1,.62.16,1.7,1.7,0,0,1,0,.51c-.28,0-.78,0-1.17,0l-1.23,0a1.79,1.79,0,0,1-.07-.51l.79-.15Zm-1.65-.67H99l-.56-1.58,0-.76h0Z"></path> <path class="cls-2" d="M105,5.67a.71.71,0,0,1,.12-.55,1.1,1.1,0,0,0,.25,0,.71.71,0,0,0,.63-.31,8.22,8.22,0,0,0,.82-1.42A1.46,1.46,0,0,1,105.61,2,1.94,1.94,0,0,1,107.48.18c.38,0,1,.05,1.39.05s.88,0,1.18,0a1.67,1.67,0,0,1,0,.51,3.23,3.23,0,0,1-.68.16c0,.31,0,.66,0,1.15V4.46q0,.36,0,.69a2.34,2.34,0,0,1,.68.16,1.7,1.7,0,0,1,0,.51c-.3,0-.81,0-1.19,0l-1.21,0a1.79,1.79,0,0,1-.07-.51,3.66,3.66,0,0,0,.73-.16,2.78,2.78,0,0,0,0-.51V3.46a6.23,6.23,0,0,1-.77,0h0c-.31,1.08-.76,2.38-1.31,2.38A3.58,3.58,0,0,1,105,5.67ZM107,1a1,1,0,0,0-.28.76,1.07,1.07,0,0,0,1.2,1,3.54,3.54,0,0,0,.46,0V.92l-.77,0A1.26,1.26,0,0,0,107,1Z"></path> <path class="cls-2" d="M120,5.8l-1.22,0a1.78,1.78,0,0,1-.06-.51,3.72,3.72,0,0,0,.72-.16,2.64,2.64,0,0,0,0-.63V2c0-.49,0-.84,0-1.15a3.11,3.11,0,0,0-.72-.16,1.78,1.78,0,0,1,.06-.51l1.22,0c.36,0,.85,0,1.13,0a1.67,1.67,0,0,1,0,.51,2.63,2.63,0,0,1-.63.16c0,.33,0,.71,0,1.27v3h1.74V2c0-.49,0-.84-.05-1.15a2.72,2.72,0,0,0-.67-.16,1.79,1.79,0,0,1,.07-.51l1.16,0c.36,0,.85,0,1.12,0a1.67,1.67,0,0,1,0,.51,2.72,2.72,0,0,1-.61.16,11.2,11.2,0,0,0,0,1.27v3h1.73V2c0-.49,0-.84,0-1.15a2.72,2.72,0,0,0-.67-.16,2.22,2.22,0,0,1,.06-.51l1.16,0c.38,0,.89,0,1.18,0a1.41,1.41,0,0,1,.05.51,3.13,3.13,0,0,1-.67.16c0,.31,0,.66,0,1.15V4.46a5.12,5.12,0,0,0,0,.69,2.27,2.27,0,0,1,.67.16,1.43,1.43,0,0,1-.05.51c-.29,0-.8,0-1.18,0Z"></path> <path class="cls-2" d="M135.9.53a.87.87,0,0,1-.19.71l-.82-.07L134,3a12.66,12.66,0,0,0,1.14,1.81.79.79,0,0,0,.68.33,1,1,0,0,0,.24,0,.68.68,0,0,1,.13.55,3.56,3.56,0,0,1-1.26.22c-.3,0-.57-.25-.89-.76a13.86,13.86,0,0,1-1-1.87h-.61v1.2a5.12,5.12,0,0,0,0,.69,2.27,2.27,0,0,1,.67.16,1.7,1.7,0,0,1-.05.51c-.29,0-.79,0-1.18,0l-1.21,0a1.79,1.79,0,0,1-.07-.51,3.82,3.82,0,0,0,.73-.16,3.28,3.28,0,0,0,0-.63V2c0-.49,0-.84,0-1.15a3.19,3.19,0,0,0-.73-.16,1.79,1.79,0,0,1,.07-.51l1.21,0c.39,0,.89,0,1.18,0a1.67,1.67,0,0,1,.05.51,3.13,3.13,0,0,1-.67.16c0,.33,0,.71,0,1.27v.43h.93l.82-1.7a2.93,2.93,0,0,1,.5-.77A2.72,2.72,0,0,1,135.9.53Z"></path> <path class="cls-2" d="M139.67,3.11a2.91,2.91,0,0,1,2.69-3,2.54,2.54,0,0,1,2.52,2.84A2.91,2.91,0,0,1,142.2,6C140.54,6,139.67,4.71,139.67,3.11Zm3.57,1.8a2.46,2.46,0,0,0,.55-1.65c0-1.27-.47-2.4-1.67-2.4a1.47,1.47,0,0,0-.82.26,2.49,2.49,0,0,0-.55,1.65c0,1.27.49,2.4,1.68,2.4A1.44,1.44,0,0,0,143.24,4.91Z"></path> <path class="cls-2" d="M149.55,4.91c.58-.85.76-2.16.89-4a5.36,5.36,0,0,0-.74-.16,1.79,1.79,0,0,1,.07-.51l1.21,0h1.71c.39,0,.89,0,1.19,0a1.67,1.67,0,0,1,.05.51,3.23,3.23,0,0,1-.68.16c0,.31,0,.66,0,1.15V4.46q0,.36,0,.69a2.34,2.34,0,0,1,.68.16,1.7,1.7,0,0,1-.05.51c-.3,0-.8,0-1.19,0l-1.35,0a1.51,1.51,0,0,1-.08-.51,5.24,5.24,0,0,0,.88-.16,2.78,2.78,0,0,0,0-.51V.92h-1c-.12,2.36-.52,4.25-1.66,5a1.93,1.93,0,0,1-1.19-.76.88.88,0,0,1,.41-.59Z"></path> <path class="cls-2" d="M161.37,4.12c-.45,0-.89,0-1.28,0h-.58l-.36,1.09.73.15a1.7,1.7,0,0,1,0,.51c-.3,0-.77,0-1.07,0l-1,0a1.79,1.79,0,0,1-.07-.51,3.26,3.26,0,0,0,.67-.16L160.09.31a3.4,3.4,0,0,1,1-.13l1.79,5a2,2,0,0,1,.62.16,1.7,1.7,0,0,1-.05.51c-.28,0-.78,0-1.17,0l-1.23,0a1.79,1.79,0,0,1-.07-.51l.79-.15Zm-1.65-.67h1.41l-.56-1.58,0-.76h0Z"></path> <path class="cls-2" d="M48.46,65.18a3.22,3.22,0,0,1,.13-1c.67,0,1.41,0,2.28,0s1.68,0,2.23,0a3,3,0,0,1,.09,1,5.14,5.14,0,0,1-1.27.3c-.05.58-.06,1.24-.06,2.17v1.12H54c.36-2.44,2.07-4.81,4.67-4.81,2.87,0,4.46,2.34,4.46,5.36,0,2.73-1.81,5.73-4.73,5.73S54,72.84,54,70H51.86v2.26a11,11,0,0,0,.06,1.31,5.14,5.14,0,0,1,1.27.3,3,3,0,0,1-.09,1c-.55,0-1.49,0-2.23,0s-1.61,0-2.28,0a3.22,3.22,0,0,1-.13-1,7.47,7.47,0,0,0,1.37-.3,5,5,0,0,0,.08-1V67.65c0-.93,0-1.59-.08-2.17A7.47,7.47,0,0,0,48.46,65.18Zm11.71,7.89A5,5,0,0,0,61.1,70c0-2.39-.8-4.51-2.82-4.51a2.26,2.26,0,0,0-1.36.49A5,5,0,0,0,56,69.05c0,2.39.8,4.51,2.81,4.51A2.27,2.27,0,0,0,60.17,73.07Z"></path> <path class="cls-2" d="M78.74,65.18a3.56,3.56,0,0,1,.12-1c.68,0,1.42,0,2.28,0s1.68,0,2.23,0a3.33,3.33,0,0,1,.1,1,5.25,5.25,0,0,1-1.27.3c0,.63-.07,1.35-.07,2.39v4.35a10.91,10.91,0,0,0,.07,1.31,5.25,5.25,0,0,1,1.27.3,3.33,3.33,0,0,1-.1,1c-.55,0-1.5,0-2.23,0s-1.6,0-2.28,0a3.56,3.56,0,0,1-.12-1,7.66,7.66,0,0,0,1.37-.3,7.71,7.71,0,0,0,.07-1.18V70c-1-.06-2.1-.11-3.08-.11H75.56v2.31a10.91,10.91,0,0,0,.07,1.31,5.25,5.25,0,0,1,1.27.3,3.34,3.34,0,0,1-.09,1c-.55,0-1.5,0-2.24,0s-1.6,0-2.28,0a3.56,3.56,0,0,1-.12-1,7.66,7.66,0,0,0,1.37-.3,6.62,6.62,0,0,0,.07-1.18v-4.7c0-.93,0-1.59-.07-2.17a7.66,7.66,0,0,0-1.37-.3,3.56,3.56,0,0,1,.12-1c.68,0,1.42,0,2.28,0s1.69,0,2.24,0a3.34,3.34,0,0,1,.09,1,5.25,5.25,0,0,1-1.27.3c0,.63-.07,1.35-.07,2.39v.77h4.62v-1c0-.93,0-1.59-.07-2.17A7.66,7.66,0,0,0,78.74,65.18Z"></path> <path class="cls-2" d="M93,65.18a3.56,3.56,0,0,1,.12-1c.68,0,1.42,0,2.28,0s1.68,0,2.23,0a3.33,3.33,0,0,1,.1,1,5.25,5.25,0,0,1-1.27.3c-.05.63-.07,1.35-.07,2.39v2.86L101,66.36l0-.88a7.66,7.66,0,0,0-1.37-.3,3.56,3.56,0,0,1,.12-1c.68,0,1.42,0,2.28,0s1.68,0,2.23,0a3.33,3.33,0,0,1,.1,1,5.23,5.23,0,0,1-1.28.3c0,.63-.06,1.35-.06,2.39v4.35c0,.46,0,.9.06,1.31a5.23,5.23,0,0,1,1.28.3,3.33,3.33,0,0,1-.1,1c-.55,0-1.51,0-2.23,0s-1.6,0-2.28,0a3.56,3.56,0,0,1-.12-1,7.66,7.66,0,0,0,1.37-.3,7.71,7.71,0,0,0,.07-1.18V68.09l-4.62,4.4a7,7,0,0,0,.07,1,5.25,5.25,0,0,1,1.27.3,3.33,3.33,0,0,1-.1,1c-.55,0-1.49,0-2.23,0s-1.6,0-2.28,0a3.56,3.56,0,0,1-.12-1,7.37,7.37,0,0,0,1.36-.3,5.81,5.81,0,0,0,.08-1.18v-4.7c0-.93,0-1.59-.08-2.17A7.37,7.37,0,0,0,93,65.18Z"></path> <path class="cls-2" d="M113.34,69.69c0-2.72,1.93-5.73,5.06-5.73s4.74,2.34,4.74,5.36c0,2.73-1.93,5.73-5,5.73S113.34,72.7,113.34,69.69Zm6.72,3.38a4.61,4.61,0,0,0,1-3.11c0-2.39-.9-4.51-3.14-4.51a2.78,2.78,0,0,0-1.54.49,4.59,4.59,0,0,0-1,3.11c0,2.39.91,4.51,3.16,4.51A2.7,2.7,0,0,0,120.06,73.07Z"></path> <path class="cls-2" d="M137.58,64.18a2.88,2.88,0,0,1,3.16,3,4.15,4.15,0,0,1-4,3.83,8.33,8.33,0,0,1-1.15-.06v1.3c0,.46,0,.9.06,1.31a9.3,9.3,0,0,1,1.72.3,3,3,0,0,1-.11,1c-.66,0-1.78,0-2.63,0s-1.62,0-2.31,0a3.56,3.56,0,0,1-.12-1,7.37,7.37,0,0,0,1.36-.3,4.29,4.29,0,0,0,.08-1V67.65c0-.93,0-1.59-.08-2.17a7.37,7.37,0,0,0-1.36-.3,3.56,3.56,0,0,1,.12-1c.68,0,1.42,0,2.28,0C135.63,64.25,136.76,64.18,137.58,64.18Zm-2,1.36v4c.3,0,.63,0,1,0a3.35,3.35,0,0,0,1.57-.38,2.22,2.22,0,0,0,.59-1.7,1.81,1.81,0,0,0-1.68-2Z"></path> </g> </g> </svg> 