<?xml version="1.0" encoding="UTF-8"?> <!-- Generator: Adobe Illustrator 22.0.1, SVG Export Plug-In . SVG Version: 6.00 Build 0) -->
<svg xmlns="http://www.w3.org/2000/svg" xmlns:xlink="http://www.w3.org/1999/xlink" id="Слой_1" x="0px" y="0px"
     viewBox="0 0 1920 160.5" style="enable-background:new 0 0 1920 160.5;" xml:space="preserve"> <style
        type="text/css"> .st0{clip-path:url(#SVGID_2_);} .st1{fill:#FFFFFF;} .st2{clip-path:url(#SVGID_2_);fill:#FFFFFF;} </style>
    <g> <defs> <rect id="SVGID_1_" width="1920" height="160.5"></rect> </defs>
        <clipPath id="SVGID_2_"> <use xlink:href="#SVGID_1_" style="overflow:visible;"></use> </clipPath>
        <g class="st0"> <path class="st1" d="M537.7,37.7l7.4-0.8C541.6,37.2,539.3,37.5,537.7,37.7z"></path>
            <path class="st1" d="M484.1,37.6l-1.3,1.4C485.3,38.3,486.3,37.7,484.1,37.6z"></path>
            <path class="st1"
                  d="M44.8,54.5c-1-0.3-2.1-0.6-3.2-0.9c-2.6,1-5.1,2-7.3,2.9C37.5,55.9,41.1,55.2,44.8,54.5z"></path>
            <path class="st1" d="M52.4,41.9l14.2,1.9C63.5,43.2,58.9,42.5,52.4,41.9z"></path>
            <path class="st1" d="M830.5,34l8.6-3.1C825.6,31,831.5,32.5,830.5,34z"></path>
            <path class="st1" d="M516.7,70c4.5-0.6,6.5-1.2,6.3-1.9C518.3,68.7,515.7,69.3,516.7,70z"></path>
            <path class="st1" d="M1892.3,34.8c0.8,0.1,1.7,0.2,2.4,0.4C1894.9,34.8,1893.8,34.8,1892.3,34.8z"></path>
            <path class="st1" d="M1323.4,43.9c0.5,0.1,1,0.2,1.5,0.3C1331.8,42.9,1328.8,43.1,1323.4,43.9z"></path>
            <path class="st1"
                  d="M666,36.7L648.5,34c21.1-4.5,36.4-3,20-6.8c-2.5,9.5-68.1,1.1-70.5,10.6l-11.6-2c3.3,0.1,3.8-0.5,7.1-0.4 c-22.5-4.5-16.7,6.9-45.6,5.6c-10.1-0.7-17.1-2.1-10.3-3.2l-22.5,2.4c-6.5-0.2-4.9-1.8,1.6-1.7l-34.3,0.8l0.3-0.3 c-4.9,1.5-16,3.8-21.4,4.8c-8.7-1.3,4.4-1,2.1-2.2l-19,2.3c-7.7-2.5,8-4.9,21.1-4.5c-17.7-9.5-15.7,2.4-54-3.1l17.9-1.2 c-11.6-5.4-25.5-3.4-45.8-6.7c4.8,1.7,40.6,8.4,20,10.8c-5.8-0.7-13.5-1-24.6,0.9c-0.1-3.4-11-2.5-24.5-2.3l0.9-4.5 c-14.7,1.3-13.5,3.6-22.1,5.6c-16.4-0.4-19.8-3.9-23.6-6.8c-26.2-0.7,18.1,5.5-12.9,6.4c-21.8-1.7-37.1,0.2-63.1,2.9 c-15.3-1.5,2.7-2.7-2.8-4L217.4,41c-3.3-0.1-2.2-1.2-1.7-1.7c-11.4,1.4-0.9,4.5-18.8,5.7c-4.8,4.9-36.8-7.1-58.9-1.5 c-5.5-1.3,2.6-2.7,1-4.5c-30.4,3.7-26.1,2.7-51,7.7l-21.3-2.9c15.6,3.3-4.3,7.3-21.8,10.6c5.5,1.6,10.3,3,13.5,3.7l-27.9,2.4 c-3.4-0.7-0.6-2.3,4-4.1c-1.9,0.4-3.7,0.7-5.1,1.1c-10-1.6-4.8-4.2,2.3-6.7c3.4,0.9,6.8,1.8,10.1,2.7c6.9-2.7,13.3-5.8,11.9-8.4 c-1.8,0.5-5.3,1-9.1,1.2c1.8-0.7,3-1.4,2.1-1.8c-0.9-0.5-3.9,0.5-8.4,1.7l-6.4-5l-1.5,2l-36.5-3.1c-26.1,5.1-48.8,12.5-90.3,14.6 c10.3-3.7,2.2-6,2.8-10.3c11.3,4.6,32.1-2,53.6-1.1c-11.2-0.5-8.8-2.5-5.9-3.3l-38.3,4.2c0.9-3.5-8.1-2.6-18.2-4.1 c7.6,7-28.6,4.7-44.2,6.9c-1-2.4,2.8-4.8,21.8-4.2c-21-5.2-27.1,8.3-47.7,3.8c4.6-0.1,7.2,0.3,9-0.9c-10.8,2.1-37.4,0.5-31.1-1.6 l4.6-0.1c-30.8-0.8-93.9,0.1-98.5,6.1c-0.3-0.8,4-7.2,5.9-8.4l-55,20.1c4.8-5.1-13.8-17.3,11.8-20.2c-7.3-0.7-16.4-1.6-31.9,0.3 c5,0.7,12.5,7.4,5.7,7.9c-18.8-5.7-13.1-3-36.2-7.8c7.5,1.1-0.8,9.1-12.7,8.9c1.9-1.2-1-7.9,3.3-8.8l-29.5,7.9 c7.4-1.4,1.3-6.7-5.3-8.9c3.1,1.5-25.5-0.1-33.4,0.7l12.5,1.8c-33.4-1.1-32.9,11.1-66,10.8c4-1.6,9.9-10-7-11 c-7.7,4-34.1,19.4-63.4,22.6l-5.6-2.3l-22.5,2.7c14-6.1,53.2-18.9,74.6-23.9c-12.5-1.8-3.5-2.7-22.2-2.5 c-6.6-2.1,10.2-3.3,15.7-3.4l-43.5-1.3c1.9,4.7-33.3,4.8-31.6,8.7l47.3-5c1.9,4.7-27.3,13.4-58.1,12.6c-7.8-1.9,5.9-8.4,5.2-10 c-4,1.6-29.3,3.1-32.1,2l13.1-2.5c-17.2-1.7-28,6.3-48.6,1.8c-7.1-0.3-21.3-6-22.5-3.2c11.6,5.4,13.9,22,6.2,26 c-2.5-0.4-37.4-5.1-45.5-7.7c-11.7-4.2,17.6-10.1,7.6-13.7c-0.4,1.3-6.9,2.9-9.6,3.4c-7.5-1.1,3.1-4-13.2-3.4 c-2.7,4.8-33-0.3-7.7,4c-15.9,1.4-16.9-1-35.6-0.7c5.9,3.1-16.7,10.5-32.7,11.9c0.9-1.2-2.6-2.8-4.4-3.5 c-32.6-0.4-50.1-2.5-80.4-2.5c-2.8-1.2-17.5-2.5-11.2-4.6c-4.4,0.9-8.4,2.5-17.7,2.6c-18.1-4.1,20.9-0.7,7.1-5.6 c-1.2,2.8-24.2,3.9-37.6,5.6c4.1,4.3,30.8,0.8,44.2-1c0.1,5.9-23.2,12.1-54.9,14.9c-25.2,1.5-10.9-3.8-15.3-3 c-47.4-1-40.4,10.4-79.7,6.2c-15.6-3.7-0.7-7.5-4.2-10.2c20.6-1.5,31.6,2.3,45.5,2.2l-17.2-1.8c6.5-1.3,20.3-2.2,27.7-1.2 c-13.1-3.4-80.1-0.5-116.6-3.6c-6.5,1.3-17.7,2.6-12.4,4.1l11.6-0.5c10.6,3-21.8,4.2-7.1,5.6c-15.5,2.2-32.9,5.5-54.8,3.9 l-4.1-4.3c0.5,1.3,14.3,2.5,20.4,1.2c-9.1,1.9-33.5-5.8-43.5-0.1l15.3,2.9c-15.6,2.2-34.8,6.8-54.2,5.4c8.8,4.2,4.5-0.5,18.2,4.4 c-11.9-6.2,49.5,0.2,30.4-6.3c14.1,5.7,24.4,2.4,42.9,7.3c-0.6-1.4-6.5-2.7,9.7-2c0.7-0.4,2.5-0.9,3.6-1.3c0.5,0,0.7,0.1,1.1,0.1 c-0.3-0.1-0.6-0.1-0.9-0.2c0.7-0.2,0.8-0.3-0.3-0.1c-3.9-0.6-7-1.4-8.3-2.1c8.1-3.3,33.9-3.2,42.7-4.9c9.6,0.7-4,1.6,1.2,3.1 l13.1-2.5c1.3,3.1,25.6,5.2,2.9,7.1l20.5,0.1c12,1.7,28.6,2.4,38.8,1.1c9.6,0.7,24.4-3.5,16-1l32.1-2l0.3,0.8 c31.6,0.3,65.1-5.3,101.3,0.3c10.7-0.8,21.7-1.8,39.5-0.9l3.5,2.7c13.7-1,41.1,2.7,47-0.2c14.8,7.3,66.4,1.5,90.4,2.7l0.9-3.6 c16.6,0.2,32.4-0.9,53-2.3l-1.3-3.1c17.7-2.6,45.6,2.2,73.6,1.8c-1.9,1.2-9,0.9-14,0.2c33.5,7,70.6-5.3,101-0.2 c7.6-1.2,13-0.8,18.4,0c-0.7,0-1.3,0.1-1.9,0.2c0.8,0,1.9,0,3.1,0c3.3,0.5,6.8,1.2,10.5,1.7c-3.2-0.8-6.2-1.4-8.8-1.7 c5.8-0.1,14.7-0.5,23.4-1.3l3.7,3.4c0.7,0,1.3,0,2-0.1c8.5,1.2,6.8-1.6,2.3-4.1c4.4-0.6,8.4-1.2,11.5-2.1 c6.9,5.4,22.8-1.9,32.2,3.9c5.8-2.8,43.6-2.2,48.2-8.2c0.3,0.8,2.9,1.1-1.8,1.2c9.7,0.7,19.3,1.3,28-0.4l4.1,4.3l21.1-5.8 c12.8,2.6,18.2,4.1,5.4,7.4c30.8-5.1,25-2,51.1-7l-1.3,2.8c9.4-0.1,24.3-3.9,29.9-1.6c20.9,5.2,103.5,0.6,157.2,5.4 c-10.4-8.1,25,3.6,27.1-2.7c3.1,1.9,10.6,3,1.9,4.7c27.4-1.9,41.2,3,60.1-2.4c3.1,1.9-5.9,2.8-3.1,4c2.2-0.4,8.7-1.7,11.6-0.5 c2.8,1.1-4,1.6-8.3,2.5c28-0.4,30.8-6.3,32.8-11.9c14.2,2.6,21.3,2.2,31.5-1.4c4.9,1.8,13.2,3.7-4.2,4.4 c9.8,0.3,59.8,2.6,60.8-1.9c3.1,1.1,13.7,0.3,16.3-0.2c22,0.2,23.9,0.6,45.5,0.2l-6-0.7c8.5-5.4,17.9-1.2,35.3-1.9l-0.5,0.6 c39.9,3.8,17.2-1.9,56.5,2.5l-2.1-3.4c3.7-7.2,34.9,4.2,57.7,1.4l-8.2-1.9c12.5-2.5,34.9,9.8,47.4,10.6c2.7,0.6-4.3,1-8.1,1.5 c32.8,4.2,4.2-4.4,28.7-5.5c4.5,2.4-5.8,6,10.6,6.5c8.2,1.9,47.7-7.8,70.1-3.3c-4.9-1.8-9.9-3.6,1.5-5c17.4-0.7,47,6.8,62.7,1 c2.2,0.5,3,1,3.1,1.4c13.3-1.5,43.2-2.5,51.2-5.7c12.3,11.6,82.6-5.8,82.3,4.9l40.9-0.6l-1.1,1.1c26.1,0.7,35.4-1.9,44.6-4.5 c6,0.7,1.6,1.7,1.1,2.3c38.2,2.1,42,1.6,74-3.7l3.3,3.5c8.7-2,55.2,5.4,92.7,1.2c-0.4,0.4-1.1,1.1-4.1,1.6 c42.1-4.1,100.9,9.5,116.3-3.2l27.8-3.2c-36-0.9,5.3-5.5-9.5-7.6c14.1-0.8,36.6,3.8,19.2,4.4L1059,58c-6.4,6.6,44.7,2.3,43.7,6.7 c70.8-0.4,139.8,3.1,206.1,3.3l-7.6-5.1l23.1,0.3c6.1,1.2,8.2,4-8.3,3.8c8.7,2.9,27.7-2.5,28.1-3.6c32.3,2-12.6,6-2.7,6.1 l13.5-0.4l-3-0.6c10.9-2.1,11.9-4.3,31.7-4.1c12.6,1,6.4,3.1,11.4,3.3c0,0.4,1.6,0.5,7.6,0.1l29.1,0.4l-11.7-4 c12.9-2,27.4,0.2,13.9-4.4c19.7,7,108.7,2.4,120.8,4.5c18.1-3,35.9-3,58.1-2.6c-5.5-0.8-8.8-5.4,10.3-4.8c-7,9.4,34.9,4,50.4,10.7 c-13.8-4.5,54.2-1.2,32.6-7.5c15.9,0.7,1,3.5,13.1,5.7c37.9-3.7,83.5,2.2,130.3,0.9c0.7-1.2-7.1-3.1,2.9-5l24.7,6.1 c9.2-0.6,8.5-7.1,25.4-2.9c-2.4-1-6-2.6,0.3-3c91.8,5.8,187.5-5.2,280.7,5.9c-12.6-2.4-4.2-2.6,5.4-2.7c-6.3-0.6,0.1-3-1.1-4.7 l39,4.6c7.1-4.6,41.8-0.4,45.9-4.8l-12.4,0.8c16.4-5.3-23-11.6-20.6-18.3c-18.4,6-48.5-8.7-78.7-0.2c-6.7-1.4,5.7-2.2,2.1-3.7 c-7.6,2.9-16.9,3.5-34,2.2l1.9-0.7c-48.1,0.8-68.7-2-122.8-3.8l4,3.3c-11.6-0.4-14.1-1.5-19.5-2.3c-13.3,5,32.6,0.2,20.5,5.8 c-15.4-6.7-81.9,0-92.3-7.6c-17.9,0,5.2,3.8-12.6,3.8l-4.7-2.1l-4.5,2.7c-11.7-0.4-17.6-3-18.1-4.8c2.8,0.2,8.1-0.5,11.1-0.7 c-15.2-2.4-42.8,0.9-48,0.1l17.2,1.3c-48.7,2-108.3-0.6-155.4,3.7l3.6,1.6c-36,3-28.8-1.7-68.3-0.3l1.4-0.4 c-7.9,1.6-18.5,2.4-29.3,2.2c10-1.8-18.8-3.5-5.7-5.6c-39,3.2-19.3,2.5-45,8.3l-5.9-2.6c-8.8,2.4-9.5,3.6-29.2,4.3 c16.2-2.3-12.6-3.9,5.5-6.9c-41.4-5.6-61.4,5.8-80.4-2.4c-19,7.2,35.8,3.9,25.2,5.5c8.9,2.3-15.7,5.4-28.7,4.7 c-13.2-0.1-22.5-9.2-55.7-9c3.3,0,3.5-0.5,6.8-0.5c-12.4-1.8-24.4,2.5-39.7-0.4c-8.5,4.4-19.8-0.2-22.3,5.3l30.5-1.3 c-17.3,1.5-33.5,8-62,4.9c2.2-1.1,10.7-2.6,16.5-3.4c-8.3-1.6-16,1.1-24.7-0.6c2.5-5.6,37.1-1.3,55.6-5.5 c-8.9-2.3-35,4.1-25.7-1.9c-13.4,7.7-32.8-0.9-55.3,5l1.5-3.3c-3.6,0.5-10.9,2.1-17.5,2l11.9-4.3c-18.2,3.7-35.2-3.2-52.6-1.1 c36.6-0.2,8.2,4,23.7,6.4c-45.2,4.5-26-8.6-76.5-7c6.8-0.5,25.7,2,15,3.5c-9.6-0.7-22.3-1.9-28.3-3.7c-33.5,0.7,5.1,3.4-9.1,5.5 c-11.4-4-16.4,1.7-31.1,3l-0.1-3.4c-38.2-2.1-10.1,7.1-44.5,4.5l14.5-4.7l-17.9,1.2l3.7-3.8c-19.5,2.9-25.6,2.2-44.7,1.1 c4.4,2.4-2.5,6.1-19.4,6.3c-11.5-2,6.5-3.2-17.5-2.7c5.4-2.1,11.3-4.8,21.8-1.7c1.1-1.1,5.3-2.1,6.4-3.2 c-12.4-2.3-31.2-0.5-39.9-0.4c3.3,0.1,7.3,0.3,9.4,0.8l-34.7,4.7c-5.5-1.3-1.1-2.3,3.2-3.3c-7,0.4-11.9,1.9-22.3,2.2 c2.7-2.7,2-5.6,16.7-6.9l-33.1,3.1c-2.2-1.2-17-3.3-12.7-4.3c-18.4-1.6-45,5.4-69.3,3.3c-1.3,0.5-3.8,1-9,1.4 c-22.9-0.6-43.1-3.9-70.2-0.1l-15.4-4.9c-21.2,1.2,20.8,6.2-14.5,8.1c-25,1.6-9.3-4.2-18.1-5.5c-12.4,2.5-34.1,7.6-57.1,3.6 C653,36.3,658.9,37,666,36.7z M404.3,39.3c5.1-0.7,15.2-2.9,18.9-0.9C417.4,42.2,412.9,40.4,404.3,39.3z M6.3,48.1 c3.8-1.1,9.6-0.6,16.2,0.7C17.7,49,12.3,48.9,6.3,48.1z M-1102.3,73.4c0.2-0.1,0.4-0.1,0.5-0.2 C-1090.4,74.5-1094.4,74-1102.3,73.4z M-1125.8,71.9c-2.4,0.5-2.2,0.9-1.2,1.4c1.6-0.9,6.9-0.9,12.9-0.7 C-1115.7,71.8-1118.8,71.2-1125.8,71.9z M1397.6,66.5l-4.6-0.9C1403.3,64.6,1400.4,65.5,1397.6,66.5z"></path>
            <path class="st1" d="M51.4,43.4c1.4,0.6,1.8,1.2,2.2,1.8C55.6,44.6,55.6,44,51.4,43.4z"></path>
            <path class="st1" d="M828.9,34.6c0.3,0,0.5,0,0.8,0c0.4-0.2,0.7-0.4,0.8-0.6L828.9,34.6z"></path>
            <path class="st1" d="M365.3,30.2l-1.1,1.1c2.2,1.2,5.5,1.3,12,1.4L365.3,30.2z"></path>
            <polygon class="st1" points="555.3,33.3 552.1,33.2 558.2,37.3 "></polygon>
            <path class="st1" d="M714.8,27.8c-6.5-0.2-14.2,0.8-20.7,0.6C708.3,27.6,716.6,32.9,714.8,27.8z"></path> </g>
        <g class="st0"> <path class="st1"
                              d="M275.3,0.6c-1-0.3-2.1-0.6-3.2-0.9c-2.6,1-5.1,2-7.3,2.9C268,2,271.6,1.3,275.3,0.6z"></path>
            <path class="st1" d="M747.2,16.2c4.5-0.6,6.5-1.2,6.3-1.9C748.8,14.8,746.2,15.4,747.2,16.2z"></path>
            <path class="st1"
                  d="M350.9,15.8l-17.5-2.7c21.1-4.5,36.4-3,20-6.8c-2.5,9.5-68.1,1.1-70.5,10.6l-11.6-2c3.3,0.1,3.8-0.5,7.1-0.4 c-22.5-4.5-16.7,6.9-45.6,5.6c-10.1-0.7-17.1-2.1-10.3-3.2l-22.5,2.4c-6.5-0.2-4.9-1.8,1.6-1.7l-34.3,0.8l0.3-0.3 c-4.9,1.5-16,3.8-21.4,4.8c-8.7-1.3,4.4-1,2.1-2.2l-19,2.3c-7.7-2.5,8-4.9,21.1-4.5c-17.7-9.5-15.7,2.4-54-3.1l17.9-1.2 c-11.6-5.4-25.5-3.4-45.8-6.7c4.8,1.7,40.6,8.4,20,10.8c-5.8-0.7-13.5-1-24.6,0.9c-0.1-3.4-11-2.5-24.5-2.3l0.9-4.5 c-14.7,1.3-13.5,3.6-22.1,5.6C1.9,17.7-1.5,14.2-5.3,11.3c-26.2-0.7,18.1,5.5-12.9,6.4c-21.8-1.7-37.1,0.2-63.1,2.9 c-15.3-1.5,2.7-2.7-2.8-4l-13.5,3.6c-3.3-0.1-2.2-1.2-1.7-1.7c-11.4,1.4-0.9,4.5-18.8,5.7c-4.8,4.9-36.8-7.1-58.9-1.5 c-5.5-1.3,2.6-2.7,1-4.5c-30.4,3.7-26.1,2.7-51,7.7l-21.3-2.9c15.6,3.3-4.3,7.3-21.8,10.6c5.5,1.6,10.3,3,13.5,3.7l-27.9,2.4 c-3.4-0.7-0.6-2.3,4-4.1c-1.9,0.4-3.7,0.7-5.1,1.1c-10-1.6-4.8-4.2,2.3-6.7c3.4,0.9,6.8,1.8,10.1,2.7c6.9-2.7,13.3-5.8,11.9-8.4 c-1.8,0.5-5.3,1-9.1,1.2c1.8-0.7,3-1.4,2.1-1.8c-0.9-0.5-3.9,0.5-8.4,1.7l-6.4-5l-1.5,2l-36.5-3.1c-26.1,5.1-48.8,12.5-90.3,14.6 c10.3-3.7,2.2-6,2.8-10.3c11.3,4.6,32.1-2,53.6-1.1c-11.2-0.5-8.8-2.5-5.9-3.3l-38.3,4.2c0.9-3.5-8.1-2.6-18.2-4.1 c7.6,7-28.6,4.7-44.2,6.9c-1-2.4,2.8-4.8,21.8-4.2c-21-5.2-27.1,8.3-47.7,3.8c4.6-0.1,7.2,0.3,9-0.9c-10.8,2.1-37.4,0.5-31.1-1.6 l4.6-0.1c-30.8-0.8-93.9,0.1-98.5,6.1c-0.3-0.8,4-7.2,5.9-8.4l-55,20.1c4.8-5.1-13.8-17.3,11.8-20.2c-7.3-0.7-16.4-1.6-31.9,0.3 c5,0.7,12.5,7.4,5.7,7.9c-18.8-5.7-13.1-3-36.2-7.8c7.5,1.1-0.8,9.1-12.7,8.9c1.9-1.2-1-7.9,3.3-8.8l-29.5,7.9 c7.4-1.4,1.3-6.7-5.3-8.9c3.1,1.5-25.5-0.1-33.4,0.7l12.5,1.8c-33.4-1.1-32.9,11.1-66,10.8c4-1.6,9.9-10-7-11 c-7.7,4-34.1,19.4-63.4,22.6l-5.6-2.3l-22.5,2.7c14-6.1,53.2-18.9,74.6-23.9c-12.5-1.8-3.5-2.7-22.2-2.5 c-6.6-2.1,10.2-3.3,15.7-3.4l-43.5-1.3c1.9,4.7-33.3,4.8-31.6,8.7l47.3-5c1.9,4.7-27.3,13.4-58.1,12.6c-7.8-1.9,5.9-8.4,5.2-10 c-4,1.6-29.3,3.1-32.1,2l13.1-2.5c-17.2-1.7-28,6.3-48.6,1.8c-7.1-0.3-21.3-6-22.5-3.2c11.6,5.4,13.9,22,6.2,26 c-2.5-0.4-37.4-5.1-45.5-7.7c-11.7-4.2,17.6-10.1,7.6-13.7c-0.4,1.3-6.9,2.9-9.6,3.4c-7.5-1.1,3.1-4-13.2-3.4 c-2.7,4.8-33-0.3-7.7,4c-15.9,1.4-16.9-1-35.6-0.7c5.9,3.1-16.7,10.5-32.7,11.9c0.9-1.2-2.6-2.8-4.4-3.5 c-32.6-0.4-50.1-2.5-80.4-2.5c-2.8-1.2-17.5-2.5-11.2-4.6c-4.4,0.9-8.4,2.5-17.7,2.6c-18.1-4.1,20.9-0.7,7.1-5.6 c-1.2,2.8-24.2,3.9-37.6,5.6c4.1,4.3,30.8,0.8,44.2-1c0.1,5.9-23.2,12.1-54.9,14.9c-25.2,1.5-10.9-3.8-15.3-3 c-47.4-1-40.4,10.4-79.7,6.2c-15.6-3.7-0.7-7.5-4.2-10.2c20.6-1.5,31.6,2.3,45.5,2.2l-17.2-1.8c6.5-1.3,20.3-2.2,27.7-1.2 c-13.1-3.4-80.1-0.5-116.6-3.6c-6.5,1.3-17.7,2.6-12.4,4.1l11.6-0.5c10.6,3-21.8,4.2-7.1,5.6c-15.5,2.2-32.9,5.5-54.8,3.9 l-4.1-4.3c0.5,1.3,14.3,2.5,20.4,1.2c-9.1,1.9-33.5-5.8-43.5-0.1l15.3,2.9c-15.6,2.2-34.8,6.8-54.2,5.4c8.8,4.2,4.5-0.5,18.2,4.4 c-11.9-6.2,49.5,0.2,30.4-6.3c14.1,5.7,24.4,2.4,42.9,7.3c-0.6-1.4-6.5-2.7,9.7-2c0.7-0.4,2.5-0.9,3.6-1.3c0.5,0,0.7,0.1,1.1,0.1 c-0.3-0.1-0.6-0.1-0.9-0.2c0.7-0.2,0.8-0.3-0.3-0.1c-3.9-0.6-7-1.4-8.3-2.1c8.1-3.3,33.9-3.2,42.7-4.9c9.6,0.7-4,1.6,1.2,3.1 l13.1-2.5c1.3,3.1,25.6,5.2,2.9,7.1l20.5,0.1c12,1.7,28.6,2.4,38.8,1.1c9.6,0.7,24.4-3.5,16-1l32.1-2l0.3,0.8 c31.6,0.3,65.1-5.3,101.3,0.3c10.7-0.8,21.7-1.8,39.5-0.9l3.5,2.7c13.7-1,41.1,2.7,47-0.2c14.8,7.3,66.4,1.5,90.4,2.7l0.9-3.6 c16.6,0.2,32.4-0.9,53-2.3l-1.3-3.1c17.7-2.6,45.6,2.2,73.6,1.8c-1.9,1.2-9,0.9-14,0.2c33.5,7,70.6-5.3,101-0.2 c7.6-1.2,13-0.8,18.4,0c-0.7,0-1.3,0.1-1.9,0.2c0.8,0,1.9,0,3.1,0c3.3,0.5,6.8,1.2,10.5,1.7c-3.2-0.8-6.2-1.4-8.8-1.7 c5.8-0.1,14.7-0.5,23.4-1.3l3.7,3.4c0.7,0,1.3,0,2-0.1c8.5,1.2,6.8-1.6,2.3-4.1c4.4-0.6,8.4-1.2,11.5-2.1 c6.9,5.4,22.8-1.9,32.2,3.9c5.8-2.8,43.6-2.2,48.2-8.2c0.3,0.8,2.9,1.1-1.8,1.2c9.7,0.7,19.3,1.3,28-0.4l4.1,4.3l21.1-5.8 c12.8,2.6,18.2,4.1,5.4,7.4c30.8-5.1,25-2,51.1-7l-1.3,2.8c9.4-0.1,24.3-3.9,29.9-1.6c20.9,5.2,103.5,0.6,157.2,5.4 c-10.4-8.1,25,3.6,27.1-2.7c3.1,1.9,10.6,3,1.9,4.7c27.4-1.9,41.2,3,60.1-2.4c3.1,1.9-5.9,2.8-3.1,4c2.2-0.4,8.7-1.7,11.6-0.5 c2.8,1.1-4,1.6-8.3,2.5c28-0.4,30.8-6.3,32.8-11.9c14.2,2.6,21.3,2.2,31.5-1.4c4.9,1.8,13.2,3.7-4.2,4.4 c9.8,0.3,59.8,2.6,60.8-1.9c3.1,1.1,13.7,0.3,16.3-0.2c22,0.2,23.9,0.6,45.5,0.2l-6-0.7c8.5-5.4,17.9-1.2,35.3-1.9l-0.5,0.6 c39.9,3.8,17.2-1.9,56.5,2.5l-2.1-3.4c3.7-7.2,34.1,19.6,57,16.8L-8.2,40c12.5-2.5,34.9,9.8,47.4,10.6c2.7,0.6-4.3,1-8.1,1.5 c32.8,4.2,4.2-4.4,28.7-5.5c4.5,2.4-5.8,6,10.6,6.5c8.2,1.9,47.7-7.8,70.1-3.3c-4.9-1.8-9.9-3.6,1.5-5c17.4-0.7,47,6.8,62.7,1 c2.2,0.5,3,1,3.1,1.4c13.3-1.5,43.2-2.5,51.2-5.7c12.3,11.6,82.6-5.8,82.3,4.9l40.9-0.6l-1.1,1.1c26.1,0.7,35.4-1.9,44.6-4.5 c6,0.7,1.6,1.7,1.1,2.3c38.2,2.1,42,1.6,74-3.7l3.3,3.5c8.7-2,55.2,5.4,92.7,1.2c-0.4,0.4-1.1,1.1-4.1,1.6 c42.1-4.1,100.9,9.5,116.3-3.2l27.8-3.2c-36-0.9,5.3-5.5-9.5-7.6c14.1-0.8,36.6,3.8,19.2,4.4l-2.7-0.6c-6.4,6.6,44.7,2.3,43.7,6.7 c70.8-0.4,139.8,3.1,206.1,3.3l-7.6-5.1l23.1,0.3c6.1,1.2,8.2,4-8.3,3.8c8.7,2.9,27.7-2.5,28.1-3.6c32.3,2-12.6,6-2.7,6.1 l13.5-0.4l-3-0.6c10.9-2.1,11.9-4.3,31.7-4.1c12.6,1,6.4,3.1,11.4,3.3c0,0.4,1.6,0.5,7.6,0.1l29.1,0.4l-11.7-4 c12.9-2,27.4,0.2,13.9-4.4c19.7,7,108.7,2.4,120.8,4.5c18.1-3,35.9-3,58.1-2.6c-5.5-0.8-8.8-5.4,10.3-4.8c-7,9.4,34.9,4,50.4,10.7 c-13.8-4.5,54.2-1.2,32.6-7.5c15.9,0.7,1,3.5,13.1,5.7c37.9-3.7,83.5,2.2,130.3,0.9c0.7-1.2-7.1-3.1,2.9-5l24.7,6.1 c9.2-0.6,8.5-7.1,25.4-2.9c-2.4-1-6-2.6,0.3-3c91.8,5.8,187.5-5.2,280.7,5.9c-12.6-2.4-4.2-2.6,5.4-2.7c-6.3-0.6,0.1-3-1.1-4.7 l39,4.6c7.1-4.6,41.8-0.4,45.9-4.8l-12.4,0.8c16.4-5.3-23-11.6-20.6-18.3c-18.4,6-48.5-8.7-78.7-0.2c-6.7-1.4,5.7-2.2,2.1-3.7 c-7.6,2.9-16.9,3.5-34,2.2l1.9-0.7c-48.1,0.8-68.7-2-122.8-3.8l4,3.3c-11.6-0.4-14.1-1.5-19.5-2.3c-13.3,5,32.6,0.2,20.5,5.8 c-15.4-6.7-81.9,0-92.3-7.6c-17.9,0,5.2,3.8-12.6,3.8l-4.7-2.1l-4.5,2.7c-11.7-0.4-17.6-3-18.1-4.8c2.8,0.2,8.1-0.5,11.1-0.7 c-15.2-2.4-42.8,0.9-48,0.1l17.2,1.3c-48.7,2-108.3-0.6-155.4,3.7l3.6,1.6c-36,3-28.8-1.7-68.3-0.3l1.4-0.4 c-7.9,1.6-18.5,2.4-29.3,2.2c10-1.8-18.8-3.5-5.7-5.6c-39,3.2-19.3,2.5-45,8.3l-5.9-2.6c-8.8,2.4-9.5,3.6-29.2,4.3 c16.2-2.3-12.6-3.9,5.5-6.9c-41.4-5.6-61.4,5.8-80.4-2.4c-19,7.2,35.8,3.9,25.2,5.5c8.9,2.3-15.7,5.4-28.7,4.7 c-13.2-0.1-22.5-9.2-55.7-9c3.3,0,3.5-0.5,6.8-0.5c-12.4-1.8-24.4,2.5-39.7-0.4c-8.5,4.4-19.8-0.2-22.3,5.3l30.5-1.3 c-17.3,1.5-33.5,8-62,4.9c2.2-1.1,10.7-2.6,16.5-3.4c-8.3-1.6-16,1.1-24.7-0.6c2.5-5.6,37.1-1.3,55.6-5.5 c-8.9-2.3-35,4.1-25.7-1.9c-13.4,7.7-32.8-0.9-55.3,5l1.5-3.3c-3.6,0.5-10.9,2.1-17.5,2l11.9-4.3c-18.2,3.7-35.2-3.2-52.6-1.1 c36.6-0.2,8.2,4,23.7,6.4c-45.2,4.5-26-8.6-76.5-7c6.8-0.5,25.7,2,15,3.5c-9.6-0.7-22.3-1.9-28.3-3.7c-33.5,0.7,5.1,3.4-9.1,5.5 c-11.4-4-16.4,1.7-31.1,3l-0.1-3.4c-38.2-2.1-10.1,7.1-44.5,4.5l14.5-4.7L747,18.6l3.7-3.8c-19.5,2.9-25.6,2.2-44.7,1.1 c4.4,2.4-2.5,6.1-19.4,6.3c-11.5-2,6.5-3.2-17.5-2.7c5.4-2.1,11.3-4.8,21.8-1.7c1.1-1.1,5.3-2.1,6.4-3.2 c-12.4-2.3-31.2-0.5-39.9-0.4c3.3,0.1,7.3,0.3,9.4,0.8L632,19.6c-5.5-1.3-1.1-2.3,3.2-3.3c-7,0.4-11.9,1.9-22.3,2.2 c2.7-2.7,2-5.6,16.7-6.9l-33.1,3.1c-2.2-1.2-17-3.3-12.7-4.3c-18.4-1.6-45,5.4-69.3,3.3c-1.3,0.5-3.8,1-9,1.4 c-22.9-0.6-43.1-3.9-70.2-0.1l-15.4-4.9c-21.2,1.2,20.8,6.2-14.5,8.1c-25,1.6-9.3-4.2-18.1-5.5c-12.4,2.5-34.1,7.6-57.1,3.6 C337.8,15.5,343.8,16.2,350.9,15.8z M89.1,18.5c5.1-0.7,15.2-2.9,18.9-0.9C102.2,21.4,97.7,19.6,89.1,18.5z M-308.9,27.2 c3.8-1.1,9.6-0.6,16.2,0.7C-297.5,28.2-302.9,28.1-308.9,27.2z M-1417.5,52.6c0.2-0.1,0.4-0.1,0.5-0.2 C-1405.6,53.7-1409.6,53.2-1417.5,52.6z M-1441,51.1c-2.4,0.5-2.2,0.9-1.2,1.4c1.6-0.9,6.9-0.9,12.9-0.7 C-1430.9,51-1433.9,50.4-1441,51.1z M1082.4,45.7l-4.6-0.9C1088.2,43.8,1085.3,44.7,1082.4,45.7z"></path> </g>
        <g class="st0"> <path class="st1"
                              d="M1369.8,31.9c-6.2-0.2-4,2.7-4.9,3.2C1375.3,34.4,1369.6,31.1,1369.8,31.9z"></path>
            <polygon class="st1" points="1472.8,25 1471,26.2 1486.2,23.3 "></polygon>
            <path class="st1"
                  d="M1569.2,24.9c-9.1-5-34.9,0.9-52.1-0.9l-2.8-1.1l-7.7,4C1527.4,26.3,1554.5,23.6,1569.2,24.9z"></path>
            <path class="st1"
                  d="M1620.5,35.7c-3.2-1.9,11.1-1.7-12-0.6c1.2,0.2,1.5,0.3,2.2,0.5C1612.8,35.5,1615.7,35.5,1620.5,35.7z"></path>
            <path class="st1" d="M1610.7,35.6C1600.6,35.7,1617.4,37.2,1610.7,35.6L1610.7,35.6z"></path>
            <path class="st1"
                  d="M1657.6,34.4l-13.4,1.8c2.8,1.1,14.7,1.4,10.3,2.2C1668.2,37.4,1665.4,36.2,1657.6,34.4z"></path>
            <path class="st1" d="M1670.3,30.7l-6.9,0.7C1664.5,31.9,1666.4,32.1,1670.3,30.7z"></path>
            <path class="st1" d="M1648.6,33l14.7-1.6c-1.9-0.8-2.1-2.4-6.7,0.6C1657.8,30.5,1654.9,32,1648.6,33z"></path>
            <path class="st1" d="M1640.3,32.3c-7.5-1.1-17.2-1.7-3.8-3.5C1611,29.5,1614.8,33,1640.3,32.3z"></path>
            <path class="st1" d="M1574.1,19.8l-10-1.4l-8.7,1.7C1559.7,19.2,1574.7,21.3,1574.1,19.8z"></path>
            <path class="st1"
                  d="M1740.8,36.8c0.8-1.1-4.5-2.8-5.5-4.2l-9.9,1.2C1730.5,34.6,1740.2,35.2,1740.8,36.8z"></path>
            <path class="st1" d="M1735.3,32.6l14.8-1.8C1736.9,30.6,1734.5,31.5,1735.3,32.6z"></path>
            <polygon class="st1" points="1672.6,25.1 1648.4,29 1677.3,25.1 "></polygon>
            <polygon class="st1" points="1797.2,36.9 1788.9,39.3 1803.8,35.6 "></polygon>
            <path class="st1"
                  d="M1834.7,36.4c-6.2,2,8.5,3.4,2,4.7c10.2-0.4,18.8-2.1,26.6-3.7C1855,38.2,1846.1,38,1834.7,36.4z"></path>
            <path class="st1" d="M1876.4,35c-4.1,0.5-8.4,1.4-13.1,2.3C1867.7,36.9,1872,36.2,1876.4,35z"></path>
            <path class="st1"
                  d="M1775.3,31.3c1.1,0.6,3.3,2.3,11.6,3l-5.8-3C1779.3,31.3,1777.3,31.3,1775.3,31.3z"></path>
            <path class="st1"
                  d="M1780.9,31.2l0.2,0.1c6.3,0.1,10.7,0.1,12.5,0.1C1792,31.4,1788.2,31.4,1780.9,31.2z"></path>
            <path class="st1" d="M1773.8,31.3c0.5,0,0.9,0,1.5,0C1774.7,31,1774.4,30.9,1773.8,31.3z"></path>
            <path class="st1" d="M1711.3,27.8c8.7-1.7,26.8-3.5,9.3-6C1714.4,23.8,1724.4,25.3,1711.3,27.8z"></path>
            <path class="st1" d="M1766.6,27.5l-15.7-0.7c0.3,0.8,3.1,1.9-1.2,2.8L1766.6,27.5z"></path>
            <polygon class="st1" points="1774.3,26.6 1766.6,27.5 1772.4,27.8 "></polygon>
            <path class="st1"
                  d="M1849.5,32.3c6.8-1.3,14.2-1.4,22.6-1.7c-9-0.6-18.3-0.9-27.1-0.9C1843.8,30.7,1839.9,32.4,1849.5,32.3z"></path>
            <path class="st1" d="M1816.2,31.5c0.5-0.1,1.1-0.1,1.5-0.2C1816.7,31.1,1816,31,1816.2,31.5z"></path>
            <path class="st1"
                  d="M1843.5,29.2c-6.7-0.6-10.8,0.2-14.6,1.1c5-0.3,10.4-0.5,16.1-0.5C1845.6,29.3,1845.7,29,1843.5,29.2z"></path>
            <path class="st1" d="M1899.4,33.6c-3.5-0.6-7.5-1.1-11.7-1.6C1891.1,32.9,1898.1,34.4,1899.4,33.6z"></path>
            <path class="st1" d="M1819.9,32.1c-0.3,0-0.6,0.1-1,0.1C1821.1,32.9,1820.9,32.6,1819.9,32.1z"></path>
            <path class="st1"
                  d="M1819.9,32.1c3.5-0.4,6.2-1.2,8.9-1.8c-4.1,0.2-7.9,0.6-11.2,1C1818.5,31.5,1819.3,31.8,1819.9,32.1z"></path>
            <path class="st1"
                  d="M1923.6,29.7l-6.4,0.4c7.3,0.5,12.5,1.6,22.1,3.7c10.6-1.4,12.8-2.4,13.5-3.3l-31.4-0.3L1923.6,29.7z"></path>
            <path class="st1"
                  d="M1888.6,30.1c5-3,20.3-4.3,10.9-7.6c-18.7,0.2-13.1,2.5-24.3,3.9c30.2-0.8-8.7,1.7,13.2,3.4 c-5.9,0.5-11.3,0.7-16.3,0.8c5.4,0.4,10.7,0.8,15.6,1.4c-0.3-0.1-0.5-0.1-0.7-0.2l-0.1,0c0,0,0,0,0,0c-1.3-0.4-1.7-0.6-0.3-0.4 c0.1,0,0.5-0.1,0.6-0.1C1887.4,30.9,1888,30.5,1888.6,30.1c8.7,0.6,1.4,0.8-1.4,1.2c-0.1,0.1-0.3,0.3-0.4,0.4c0,0,0.1,0,0.1,0 l30.3-1.7C1910.8,29.7,1902.8,29.8,1888.6,30.1z"></path>
            <path class="st1" d="M1736.7,15.2c0.9,0.3,0.9,0.5,1,0.7C1739.7,15.6,1740.4,15.3,1736.7,15.2z"></path>
            <path class="st1"
                  d="M1749.2,17c-2.2,0.4-4,1.6-11.2,1.3c-6.2-0.9,0-1.4-0.3-2.4c-4.3,0.8-15.1,2.2-1.6,3.6l2.1-0.4 c12.2,1,27.8,4.8,25.7,5.2C1760.4,21.6,1757.3,19.7,1749.2,17z"></path>
            <path class="st1" d="M1819.8,22.8l25.2-1.5l-12.8-2.6l0.7,1.6C1818.4,19.7,1821.5,21.6,1819.8,22.8z"></path>
            <path class="st1"
                  d="M1919.3,13.6c-2.2,0.4-4.7,0.1-6.8,0.5l0.6,1.6C1922.5,15.5,1929,14.3,1919.3,13.6z"></path> </g>
        <rect y="50.7" class="st2" width="1920" height="109.8"></rect> </g> </svg>