<svg viewBox="0 0 9 16" xmlns="http://www.w3.org/2000/svg" >
    <path fill-rule="evenodd" clip-rule="evenodd"
          d="M4.5 0A4.5 4.5 0 0 0 .016 4.878.49.49 0 0 0 0 5v7.5a3.5 3.5 0 1 0 7 0V5.911 5.61c0-1.323-1.151-2.36-2.5-2.36A2.5 2.5 0 0 0 2 5.75v5.75a.5.5 0 0 0 1 0V5.689c0-.794.671-1.438 1.5-1.438.828 0 1.5.644 1.5 1.438V12.5a2.5 2.5 0 1 1-5 0V4.515A3.507 3.507 0 0 1 4.5 1C6.433 1 8 2.573 8 4.514V9.5a.5.5 0 0 0 1 0v-5A4.5 4.5 0 0 0 4.5 0zm4 11a.5.5 0 1 0 0 1 .5.5 0 0 0 0-1z"
          fill="#7E7E7E"/>
</svg>