<svg xmlns="http://www.w3.org/2000/svg" viewBox="0 0 95 95" fill="#7E7E7E">
    <g>
        <g>
            <path d="M51.9 95h-8.8a7.1 7.1 0 0 1-6.85-5.8l-1.08-6.49c-.12-.73-.54-2.45-1.73-2.45a4 4 0 0 0-2.12.86L26 84.94a6.92 6.92 0 0 1-4 1.26 7 7 0 0 1-4.93-2L10.8 78a7.09 7.09 0 0 1-.74-9l3.82-5.35a3.06 3.06 0 0 0 .78-2.58c-.24-.59-1.13-1.06-2.37-1.27L5.8 58.75A7.1 7.1 0 0 1 0 51.9v-8.8a7.1 7.1 0 0 1 5.8-6.85l6.49-1.08a3.05 3.05 0 0 0 2.37-1.27 3.06 3.06 0 0 0-.78-2.58L10.06 26a7.09 7.09 0 0 1 .74-9l6.2-6.2a7 7 0 0 1 9-.74l5.35 3.82a3.76 3.76 0 0 0 2.12.86c1.19 0 1.6-1.72 1.73-2.45l1.05-6.49A7.1 7.1 0 0 1 43.1 0h8.8a7.1 7.1 0 0 1 6.85 5.8l1.08 6.49c.12.74.54 2.45 1.73 2.45a4 4 0 0 0 2.12-.86L69 10.06a7 7 0 0 1 9 .74l6.2 6.2a7.09 7.09 0 0 1 .74 9l-3.82 5.35a3.06 3.06 0 0 0-.78 2.58 3.05 3.05 0 0 0 2.37 1.27l6.49 1.08A7.1 7.1 0 0 1 95 43.1v8.8a7.1 7.1 0 0 1-5.8 6.85l-6.48 1.08c-1.25.21-2.13.68-2.38 1.27a3.07 3.07 0 0 0 .78 2.58L84.94 69a7.09 7.09 0 0 1-.74 9L78 84.2a7 7 0 0 1-4.94 2 6.94 6.94 0 0 1-4-1.26l-5.35-3.82a4 4 0 0 0-2.12-.86c-1.19 0-1.6 1.71-1.73 2.45l-1.11 6.49A7.1 7.1 0 0 1 51.9 95zM33.44 75.26c3.43 0 6 2.54 6.66 6.63l1.08 6.49A2.13 2.13 0 0 0 43.1 90h8.8a2.13 2.13 0 0 0 1.92-1.62l1.08-6.49c.68-4.09 3.24-6.63 6.66-6.63a8.8 8.8 0 0 1 5 1.79l5.35 3.82a2.17 2.17 0 0 0 2.5-.2l6.23-6.23a2.11 2.11 0 0 0 .2-2.51l-3.82-5.35c-1.79-2.51-2.26-5.13-1.33-7.39s3.13-3.79 6.18-4.29l6.48-1.08A2.1 2.1 0 0 0 90 51.9v-8.8a2.13 2.13 0 0 0-1.62-1.92l-6.49-1.08c-3-.51-5.23-2-6.17-4.29s-.46-4.89 1.33-7.4l3.82-5.35a2.12 2.12 0 0 0-.2-2.5l-6.23-6.23a2.17 2.17 0 0 0-2.5-.2L66.59 18a8.8 8.8 0 0 1-5 1.79c-3.43 0-6-2.54-6.66-6.63l-1.11-6.54A2.13 2.13 0 0 0 51.9 5h-8.8a2.13 2.13 0 0 0-1.92 1.62l-1.08 6.49c-.68 4.09-3.24 6.63-6.66 6.63a8.78 8.78 0 0 1-5-1.79l-5.35-3.82a2.16 2.16 0 0 0-2.5.21l-6.23 6.22a2.12 2.12 0 0 0-.2 2.5L18 28.41c1.79 2.51 2.26 5.14 1.33 7.4s-3.13 3.78-6.17 4.29l-6.54 1.08A2.13 2.13 0 0 0 5 43.1v8.8a2.13 2.13 0 0 0 1.62 1.92l6.49 1.08c3 .5 5.23 2 6.17 4.29s.46 4.89-1.33 7.39l-3.82 5.36a2.12 2.12 0 0 0 .21 2.5l6.22 6.23a2.19 2.19 0 0 0 2.5.21l5.36-3.83a8.75 8.75 0 0 1 5.02-1.79z"/>
            <path d="M47.5 69.05A21.55 21.55 0 1 1 69.05 47.5 21.57 21.57 0 0 1 47.5 69.05zm0-38.1A16.55 16.55 0 1 0 64.05 47.5 16.56 16.56 0 0 0 47.5 31z"/>
        </g>
    </g>
</svg>