<svg width="36" height="36" viewBox="0 0 36 36" fill="none" xmlns="http://www.w3.org/2000/svg">
    <rect style="width:inherit" width="35" height="35" rx="17.5" fill="#2787F5"/>
    <path fill-rule="evenodd" clip-rule="evenodd"
          d="M9.428 10.938H6.875c-.73 0-.875.343-.875.721 0 .676.865 4.029 4.03 8.463 2.109 3.028 5.08 4.67 7.785 4.67 1.623 0 1.824-.365 1.824-.993V21.51c0-.729.153-.874.667-.874.379 0 1.028.189 2.542 1.649 1.731 1.73 2.016 2.507 2.99 2.507h2.553c.729 0 1.094-.365.883-1.084-.23-.717-1.056-1.758-2.153-2.991-.595-.703-1.487-1.46-1.758-1.839-.378-.486-.27-.703 0-1.135 0 0 3.11-4.38 3.435-5.867.162-.541 0-.938-.772-.938h-2.553c-.649 0-.948.343-1.11.721 0 0-1.298 3.164-3.137 5.219-.595.594-.866.784-1.19.784-.163 0-.398-.19-.398-.73v-5.056c0-.65-.188-.938-.729-.938h-4.011c-.406 0-.65.3-.65.586 0 .615.92.757 1.015 2.488v3.758c0 .824-.15.973-.474.973-.865 0-2.97-3.177-4.219-6.813-.244-.707-.49-.992-1.142-.992z"
          fill="#fff"/>
</svg>