<svg width="36" height="36" viewBox="0 0 35 35" fill="none" class="callibri_sphere_social_svg callibri_svg_whatsapp" xmlns="http://www.w3.org/2000/svg"><path d="M17.5 35C27.165 35 35 27.165 35 17.5S27.165 0 17.5 0 0 7.835 0 17.5 7.835 35 17.5 35z" fill="#52CE5F"></path><path d="M6.402 28.55l1.558-5.688a10.953 10.953 0 01-1.465-5.489c0-6.056 4.929-10.978 10.982-10.978A10.983 10.983 0 0128.46 17.38c-.003 6.055-4.93 10.978-10.983 10.978h-.006c-1.834 0-3.638-.46-5.248-1.336l-5.82 1.526zm6.092-3.515l.334.198a9.12 9.12 0 004.646 1.272h.003c5.032 0 9.126-4.094 9.128-9.125a9.128 9.128 0 00-9.124-9.132c-5.035 0-9.13 4.093-9.132 9.124a9.099 9.099 0 001.395 4.857l.218.345-.923 3.37 3.455-.909z" fill="#fff"></path><path d="M6.791 28.167l1.504-5.492a10.58 10.58 0 01-1.416-5.302c.003-5.845 4.76-10.598 10.603-10.598a10.603 10.603 0 0110.602 10.608c0 5.845-4.759 10.599-10.602 10.599h-.005c-1.77 0-3.511-.443-5.066-1.29l-5.62 1.475z" fill="url(#paintws_linear)"></path><path d="M6.402 28.55l1.558-5.688a10.953 10.953 0 01-1.465-5.489c0-6.056 4.929-10.978 10.982-10.978A10.983 10.983 0 0128.46 17.38c-.003 6.055-4.93 10.978-10.983 10.978h-.006c-1.834 0-3.638-.46-5.248-1.336l-5.82 1.526zm6.092-3.515l.334.198a9.12 9.12 0 004.646 1.272h.003c5.032 0 9.126-4.094 9.128-9.125a9.128 9.128 0 00-9.124-9.132c-5.035 0-9.13 4.093-9.132 9.124a9.099 9.099 0 001.395 4.857l.218.345-.923 3.37 3.455-.909z" fill="url(#paint1_linear)"></path><path fill-rule="evenodd" clip-rule="evenodd" d="M14.735 12.782c-.206-.457-.422-.466-.618-.474-.158-.007-.343-.006-.526-.006a1.008 1.008 0 00-.732.343c-.251.275-.96.938-.96 2.289 0 1.35.983 2.655 1.12 2.838.137.183 1.898 3.042 4.686 4.142 2.317.914 2.791.732 3.294.684.502-.048 1.623-.664 1.852-1.304.228-.641.229-1.19.158-1.305-.072-.115-.252-.183-.527-.32s-1.623-.801-1.875-.893c-.25-.09-.435-.137-.617.138-.183.275-.71.892-.87 1.075-.16.183-.32.207-.594.07-.274-.138-1.158-.428-2.206-1.363-.816-.727-1.367-1.625-1.527-1.9-.161-.275-.017-.421.12-.56.123-.123.274-.32.412-.48.137-.16.183-.275.274-.458.09-.183.045-.343-.023-.48-.069-.138-.598-1.494-.841-2.036z" fill="#fff"></path><defs><linearGradient id="paintws_linear" x1="17.437" y1="28.166" x2="17.437" y2="6.777" gradientUnits="userSpaceOnUse"><stop stop-color="#20B038"></stop><stop offset="1" stop-color="#60D66A"></stop></linearGradient><linearGradient id="paint1_linear" x1="17.431" y1="28.549" x2="17.431" y2="6.393" gradientUnits="userSpaceOnUse"><stop stop-color="#F9F9F9"></stop><stop offset="1" stop-color="#fff"></stop></linearGradient></defs></svg>