<svg xmlns="http://www.w3.org/2000/svg" viewBox="0 0 286.85 77.42"><defs><style>.cls-1{fill:#fff;}.cls-2{fill:#df002f;}.cls-3{fill:#d7b47c;}.cls-4{fill:#1b1c20;}</style></defs><title>Ресурс 1</title><g id="Слой_2" data-name="Слой 2"><g id="Слой_1-2" data-name="Слой 1"><polygon class="cls-1" points="0 43.03 62.64 77.42 125.24 43.03 125.24 43.03 62.62 8.64 0 43.03"/><path class="cls-2" d="M11.74,43l51-28,51.09,28-51.09,28Zm51-32.31L3.91,43l58.82,32.3L121.53,43Z"/><path class="cls-2" d="M65.93,50.18a5.35,5.35,0,0,0,.41-.78,9.14,9.14,0,0,0,1.31-.71,8.83,8.83,0,0,0,1.57-1.27,8,8,0,0,1-3.29,2.76m-9.87-3a3.77,3.77,0,0,0,.57,0,5.34,5.34,0,0,0,.59-.11h0a5.52,5.52,0,0,0,1.23,1.28,8.78,8.78,0,0,0,1.67.91h0a5.17,5.17,0,0,0,.22.81c.06.19.13.37.2.55A7.89,7.89,0,0,1,56.06,47.16Zm6.69-12a7.83,7.83,0,0,1,3.28.73l.12.09c.23.19.47.41.68.62a1.52,1.52,0,0,1,.3.38L65.67,38.5a14.36,14.36,0,0,0-2.31-.22,11.5,11.5,0,0,0-1.34,0h-.11l-2-1.71a5.1,5.1,0,0,1,1.34-1.32,8.47,8.47,0,0,1,1.44-.13ZM67.23,37a.85.85,0,0,1,.44.17c.3.16.58.33.85.51a7.78,7.78,0,0,1,2,4.75,7.55,7.55,0,0,1-1,1.18L67,42l0-.17a2,2,0,0,1-.06-.23,18.53,18.53,0,0,0-1.11-3L67.22,37ZM63.59,47.8l.28-3.63.64-.39c.53-.34,1.07-.7,1.62-1.07.09-.06.54-.38.69-.5l.13-.09,2.57,1.63a7.6,7.6,0,0,1,0,1.35,12.2,12.2,0,0,1-.15,1.47,3.38,3.38,0,0,1-.16.71h0a9.11,9.11,0,0,1-1.61,1.31,9.59,9.59,0,0,1-1.28.7c-.56-.26-1.12-.56-1.66-.87Zm-8-6.51c.05-.19.21-.81.43-1.42a15.88,15.88,0,0,1,.77-1.78,5.22,5.22,0,0,1,.66-.42,11.56,11.56,0,0,1,1.47-.7,4.14,4.14,0,0,1,1-.31l2,1.72a22.13,22.13,0,0,0-1.1,2.94c0,.15-.09.31-.12.42L57.41,43.2C56.81,42.61,55.76,41.49,55.55,41.29Zm1.1-3.24a17.63,17.63,0,0,0-.77,1.78c-.24.67-.41,1.37-.45,1.5v0a7.57,7.57,0,0,0-.49.66,7.78,7.78,0,0,1,1.7-4ZM60.17,49.1a9.26,9.26,0,0,1-1.65-.9A5.22,5.22,0,0,1,57.32,47l0,0a14.84,14.84,0,0,1,0-2,16,16,0,0,1,.18-1.62l3.16-1.45c.5.41,1,.78,1.58,1.18s1,.8,1.58,1.16l-.27,3.6A31.71,31.71,0,0,1,60.17,49.1Zm8.51-12a8.28,8.28,0,0,0-5.93-2.48h0a8.41,8.41,0,0,0,0,16.81h0A8.43,8.43,0,0,0,71.13,43,8.34,8.34,0,0,0,68.68,37.09Z"/><path class="cls-2" d="M91.71,35.07,73.29,45.19a10.8,10.8,0,1,1-1.22-7.56h2.08V28.82l3.09-1.69L62.72,19.19,19.39,43,33.84,51l9.72-5.33a14.38,14.38,0,0,0,5.2,8.86,17.64,17.64,0,0,0,3.54,2.23l-4,2.19,14.38,7.93L106.16,43ZM73.58,52.8l0,0A17.52,17.52,0,0,1,61.27,57.7a18.74,18.74,0,0,1-11.9-4,13.88,13.88,0,0,1,0-21.45,18.69,18.69,0,0,1,11.9-4A18,18,0,0,1,71,31.17l.5.32.34-.86,1.33-.74v6.77h-.6a11.75,11.75,0,1,0,.15,12.47h.84Z"/><polygon class="cls-3" points="57.45 0 56.18 2.58 53.34 2.99 55.4 4.99 54.91 7.81 57.45 6.42 59.99 7.81 59.51 4.99 61.56 2.99 58.72 2.58 57.45 0"/><polygon class="cls-3" points="47.24 0 45.97 2.58 43.13 2.99 45.18 4.99 44.7 7.81 47.24 6.42 49.77 7.81 49.29 4.99 51.35 2.99 48.51 2.58 47.24 0"/><polygon class="cls-3" points="67.61 0 66.34 2.58 63.5 2.99 65.55 4.99 65.07 7.81 67.61 6.42 70.15 7.81 69.66 4.99 71.72 2.99 68.88 2.58 67.61 0"/><polygon class="cls-3" points="77.82 0 76.55 2.58 73.71 2.99 75.77 4.99 75.29 7.81 77.82 6.42 80.36 7.81 79.88 4.99 81.94 2.99 79.09 2.58 77.82 0"/><polygon class="cls-2" points="237.56 34.29 237.13 32.8 241.55 32.8 241.55 28.91 228.54 28.91 228.54 32.8 232.71 32.8 232.71 45.92 237.56 45.92 237.56 34.29"/><path class="cls-2" d="M257.41,40.76h-4.18l2.09-5.35Zm2,5.16h5.25l-6.67-17h-6.11l.46,1.61.4.17-6,15.23h4.39l.65-1.65h6.94Z"/><path class="cls-2" d="M194.28,40.76h-4.19l2.09-5.35Zm2,5.16h5.25l-6.67-17h-6.11l.46,1.61.4.17-6,15.23h4.4l.64-1.65h6.94Z"/><polygon class="cls-2" points="280.86 36.09 286.3 29.73 286.3 28.91 281.27 28.91 275.78 35.35 275.78 28.91 270.02 28.91 270.49 30.52 270.93 30.71 270.93 45.92 275.78 45.92 275.78 42.04 277.72 39.77 277.98 40.9 281.16 45.92 286.85 45.92 280.86 36.09"/><path class="cls-2" d="M152.09,40.57h-.35l0,0a6.55,6.55,0,0,1-5.24,2.51,5.49,5.49,0,0,1-5.55-5.82,5.62,5.62,0,0,1,5.74-5.61,5.73,5.73,0,0,1,4.42,2.1l0,0h1.23V28.69l-1.23.47-.17.4a11.16,11.16,0,0,0-5.21-1.29c-5.63,0-10.06,4.1-10.06,9.14s4.2,9,10.06,9.14a11.29,11.29,0,0,0,7.13-2.45Z"/><path class="cls-2" d="M218.18,34.83a2.9,2.9,0,0,1-2.78,2.6,5.16,5.16,0,0,1-2.35-.43V32.51a3.54,3.54,0,0,1,2.18-.79,2.76,2.76,0,0,1,3,3.11m-2.66-6.51a7.39,7.39,0,0,0-3.26.95l-.46-.36h-3.66l.46,1.61v15.4h4.56V40.5a11.69,11.69,0,0,0,2.73.22c3.76-.13,7-2.56,7-6.35C222.9,30.16,219,28.1,215.52,28.32Z"/><polygon class="cls-2" points="162.93 28.84 159.85 28.84 160.47 30.97 161.06 31.23 161.06 31.53 161.06 45.86 166.09 45.86 166.09 34 165.59 32.4 171.48 32.4 171.48 45.86 176.51 45.86 176.51 28.84 162.93 28.84"/><path class="cls-4" d="M156.36,14.74c-1.22,0-2-.47-2-1.5a1.84,1.84,0,0,1,2-1.74v-.26a6.21,6.21,0,0,0-.8-.12.94.94,0,0,1,.07-.4h2.23a1.16,1.16,0,0,1,0,.42,3.68,3.68,0,0,1-.74.1v.26c1.22,0,2,.46,2,1.49a1.84,1.84,0,0,1-2,1.75V15a3,3,0,0,1,.74.11,1,1,0,0,1,0,.4h-2.23a.94.94,0,0,1-.07-.4c.26,0,.51-.06.8-.11Zm0-.47V12a1.81,1.81,0,0,0-.8.16,1.22,1.22,0,0,0-.34.9A1.09,1.09,0,0,0,156.36,14.27Zm.8-2.29v2.29a1.89,1.89,0,0,0,.8-.17,1.24,1.24,0,0,0,.34-.9A1.09,1.09,0,0,0,157.16,12Z"/><path class="cls-4" d="M162.86,14.35l.69.28a3.36,3.36,0,0,0,.22-.46l-1.52-2.75a2.65,2.65,0,0,0-.54-.13,1.39,1.39,0,0,1,.06-.4h2a1,1,0,0,1,0,.4l-.58.12,1,1.88.79-1.88-.58-.12a1.81,1.81,0,0,1,0-.4h1.61a1.64,1.64,0,0,1,0,.4,1.93,1.93,0,0,1-.5.13l-1.33,3a3,3,0,0,1-.68,1,1.79,1.79,0,0,1-1-.65A.76.76,0,0,1,162.86,14.35Z"/><path class="cls-4" d="M171.49,11.45v2.82a5,5,0,0,0,0,.56,3.6,3.6,0,0,1,.72.12,1.1,1.1,0,0,1-.05.41c-.28,0-.76,0-1.12,0l-1.13,0a1,1,0,0,1-.07-.41,5.13,5.13,0,0,0,.77-.12,2.73,2.73,0,0,0,0-.41v-3h-.93a6,6,0,0,0-.1.86.94.94,0,0,1-.5,0,7,7,0,0,1-.08-1.36l.07-.06H173l.08.06a7.89,7.89,0,0,1-.08,1.36,1,1,0,0,1-.49,0,7.76,7.76,0,0,0-.11-.86Z"/><path class="cls-4" d="M179.91,13.89a1.61,1.61,0,0,1-1.72,1.49c-.33,0-.62,0-1,0l-1,0a1.44,1.44,0,0,1-.05-.41,3.15,3.15,0,0,0,.58-.12,2.73,2.73,0,0,0,0-.41V12.34c0-.39,0-.67,0-.92a3.2,3.2,0,0,0-.58-.13,1.37,1.37,0,0,1,.05-.4h3.32l.07.06a5.06,5.06,0,0,1-.08,1.14,1.06,1.06,0,0,1-.5,0,3.4,3.4,0,0,0-.09-.64h-1.34v1.32a4.65,4.65,0,0,1,.83-.07C179.33,12.7,179.91,13.25,179.91,13.89ZM178,14.8a1.58,1.58,0,0,0,.79-.12.81.81,0,0,0,.26-.65c0-.46-.39-.76-1-.76a3.85,3.85,0,0,0-.48,0V14.8Z"/><path class="cls-4" d="M183,13.2a2.33,2.33,0,0,1,2.15-2.43,2,2,0,0,1,2,2.27A2.32,2.32,0,0,1,185,15.47,2,2,0,0,1,183,13.2Zm2.85,1.43a1.93,1.93,0,0,0,.44-1.32c0-1-.38-1.91-1.33-1.91a1.19,1.19,0,0,0-.65.21,2,2,0,0,0-.44,1.32c0,1,.39,1.91,1.34,1.91A1.08,1.08,0,0,0,185.84,14.63Z"/><path class="cls-4" d="M190.88,14.63a6.75,6.75,0,0,0,.7-3.21,3.51,3.51,0,0,0-.58-.13,1.37,1.37,0,0,1,.05-.4h3.27a1,1,0,0,1,0,.4,2.06,2.06,0,0,1-.53.13c0,.24,0,.52,0,.92v1.93a5,5,0,0,0,0,.56,2.06,2.06,0,0,1,.53.12,1.1,1.1,0,0,1,0,.41c-.23,0-.63,0-.94,0l-1.08,0a1.17,1.17,0,0,1-.06-.41,4.27,4.27,0,0,0,.7-.12,1.84,1.84,0,0,0,0-.41v-3h-.76c-.09,1.88-.41,3.4-1.32,4a1.6,1.6,0,0,1-.95-.6.78.78,0,0,1,.32-.48Z"/><path class="cls-4" d="M198.05,12.34c0-.4,0-.68,0-.92a2.86,2.86,0,0,0-.58-.13,1.39,1.39,0,0,1,.06-.4h2.09a1,1,0,0,1,0,.4,3.44,3.44,0,0,1-.72.13c0,.24,0,.52,0,.92v.4a4.57,4.57,0,0,1,.83-.07c.93,0,1.51.55,1.51,1.2a1.61,1.61,0,0,1-1.71,1.51c-.34,0-.63,0-1,0l-1,0a1.45,1.45,0,0,1-.06-.41,2.85,2.85,0,0,0,.58-.12,3,3,0,0,0,0-.52Zm.83.91V14.8h.44a1.52,1.52,0,0,0,.78-.12.79.79,0,0,0,.26-.67c0-.47-.38-.78-1-.78Z"/><path class="cls-4" d="M206.85,11.29a1.37,1.37,0,0,1,.05-.4h1.91a1.26,1.26,0,0,1,0,.4,2.14,2.14,0,0,1-.54.13c0,.26,0,.57,0,1v1.84a5,5,0,0,0,0,.56,2.14,2.14,0,0,1,.54.12,1.36,1.36,0,0,1,0,.41c-.23,0-.64,0-.95,0l-1,0a1.44,1.44,0,0,1-.05-.41,2.9,2.9,0,0,0,.57-.12,2.81,2.81,0,0,0,0-.5v-1c-.44,0-.89-.05-1.31-.05h-.65v1a5,5,0,0,0,0,.56,2.14,2.14,0,0,1,.54.12,1.78,1.78,0,0,1,0,.41c-.24,0-.64,0-.95,0l-1,0a1.45,1.45,0,0,1-.06-.41,2.85,2.85,0,0,0,.58-.12,2.8,2.8,0,0,0,0-.5v-2c0-.4,0-.68,0-.92a2.86,2.86,0,0,0-.58-.13,1.39,1.39,0,0,1,.06-.4H206a1.64,1.64,0,0,1,0,.4,2.14,2.14,0,0,1-.54.13c0,.26,0,.57,0,1v.33h2v-.42c0-.4,0-.68,0-.92A2.93,2.93,0,0,0,206.85,11.29Z"/><path class="cls-4" d="M214.78,14l-1,0h-.46l-.3.86.59.12a1.36,1.36,0,0,1,0,.41c-.24,0-.62,0-.85,0l-.79,0a1.44,1.44,0,0,1,0-.41,2.53,2.53,0,0,0,.53-.12L213.77,11a2.46,2.46,0,0,1,.77-.11l1.43,4a1.76,1.76,0,0,1,.49.12,1.1,1.1,0,0,1,0,.41c-.22,0-.62,0-.93,0l-1,0a1.45,1.45,0,0,1-.06-.41l.63-.12Zm-1.31-.53h1.13l-.45-1.26,0-.61h0Z"/><path class="cls-4" d="M219.38,15.24a.59.59,0,0,1,.09-.43h.2a.56.56,0,0,0,.51-.25,6.63,6.63,0,0,0,.65-1.14,1.16,1.16,0,0,1-1-1.11,1.55,1.55,0,0,1,1.49-1.46c.31,0,.78,0,1.11,0h.94a1.26,1.26,0,0,1,0,.4,2.14,2.14,0,0,1-.54.13c0,.24,0,.52,0,.92v1.93a5,5,0,0,0,0,.56,2.14,2.14,0,0,1,.54.12,1.36,1.36,0,0,1,0,.41c-.23,0-.64,0-.95,0l-1,0a1.44,1.44,0,0,1,0-.41,3.15,3.15,0,0,0,.58-.12,2.73,2.73,0,0,0,0-.41v-.94a5.93,5.93,0,0,1-.61,0h0c-.26.87-.61,1.91-1,1.91A2.74,2.74,0,0,1,219.38,15.24Zm1.58-3.7a.79.79,0,0,0-.22.6c0,.48.41.79,1,.79h.37V11.45l-.62,0A1,1,0,0,0,221,11.54Z"/><path class="cls-4" d="M231.38,15.34l-1,0a1.44,1.44,0,0,1,0-.41,3,3,0,0,0,.58-.12,2.8,2.8,0,0,0,0-.5v-2c0-.4,0-.68,0-.92a3,3,0,0,0-.58-.13,1.37,1.37,0,0,1,0-.4h1.87a1,1,0,0,1,0,.4,1.74,1.74,0,0,1-.5.13c0,.26,0,.57,0,1v2.36h1.38V12.34c0-.4,0-.68,0-.92a2.65,2.65,0,0,0-.54-.13,1.37,1.37,0,0,1,0-.4h1.83a1.64,1.64,0,0,1,0,.4,1.93,1.93,0,0,1-.5.13c0,.26,0,.57,0,1v2.36h1.37V12.34c0-.4,0-.68,0-.92a2.56,2.56,0,0,0-.53-.13,1.81,1.81,0,0,1,0-.4h1.88a1.28,1.28,0,0,1,0,.4,2,2,0,0,1-.53.13c0,.24,0,.52,0,.92v1.93a5,5,0,0,0,0,.56,2,2,0,0,1,.53.12,1.37,1.37,0,0,1,0,.41c-.24,0-.64,0-1,0Z"/><path class="cls-4" d="M244,11.14a.73.73,0,0,1-.15.57l-.66-.06-.7,1.46a9.64,9.64,0,0,0,.91,1.44.62.62,0,0,0,.54.27h.19a.48.48,0,0,1,.1.43,2.77,2.77,0,0,1-1,.18c-.24,0-.46-.2-.71-.61a10.64,10.64,0,0,1-.77-1.5h-.49v1a5,5,0,0,0,0,.56,2.14,2.14,0,0,1,.54.12,1.36,1.36,0,0,1,0,.41c-.23,0-.63,0-.94,0l-1,0a1.44,1.44,0,0,1,0-.41,3.15,3.15,0,0,0,.58-.12,2.8,2.8,0,0,0,0-.5v-2c0-.4,0-.68,0-.92a3.2,3.2,0,0,0-.58-.13,1.37,1.37,0,0,1,0-.4h1.91a1.26,1.26,0,0,1,0,.4,2.14,2.14,0,0,1-.54.13c0,.26,0,.57,0,1v.35H242l.65-1.36a2.55,2.55,0,0,1,.4-.62A2.25,2.25,0,0,1,244,11.14Z"/><path class="cls-4" d="M247,13.2a2.33,2.33,0,0,1,2.15-2.43,2,2,0,0,1,2,2.27,2.31,2.31,0,0,1-2.13,2.43A2,2,0,0,1,247,13.2Zm2.85,1.43a1.93,1.93,0,0,0,.44-1.32c0-1-.38-1.91-1.33-1.91a1.19,1.19,0,0,0-.65.21,2,2,0,0,0-.44,1.32c0,1,.38,1.91,1.33,1.91A1.11,1.11,0,0,0,249.89,14.63Z"/><path class="cls-4" d="M254.92,14.63a6.73,6.73,0,0,0,.71-3.21,3.41,3.41,0,0,0-.59-.13,1.39,1.39,0,0,1,.06-.4h3.27a1,1,0,0,1,0,.4,2.14,2.14,0,0,1-.54.13c0,.24,0,.52,0,.92v1.93a5.06,5.06,0,0,0,0,.56,2.14,2.14,0,0,1,.54.12,1.1,1.1,0,0,1,0,.41c-.23,0-.64,0-.94,0l-1.08,0a1.17,1.17,0,0,1-.06-.41,4.27,4.27,0,0,0,.7-.12,2.73,2.73,0,0,0,0-.41v-3h-.76c-.1,1.88-.42,3.4-1.32,4a1.57,1.57,0,0,1-.95-.6.74.74,0,0,1,.32-.48Z"/><path class="cls-4" d="M264.34,14l-1,0h-.46l-.3.86.59.12a1.36,1.36,0,0,1,0,.41c-.24,0-.62,0-.85,0l-.79,0a1.44,1.44,0,0,1-.05-.41,2.53,2.53,0,0,0,.53-.12L263.33,11a2.46,2.46,0,0,1,.77-.11l1.43,4A1.76,1.76,0,0,1,266,15a1.1,1.1,0,0,1,0,.41c-.22,0-.62,0-.93,0l-1,0A1.45,1.45,0,0,1,264,15l.63-.12ZM263,13.47h1.13l-.45-1.26,0-.61h0Z"/><path class="cls-4" d="M174.31,62.7a2.91,2.91,0,0,1,.1-.77c.54,0,1.13,0,1.82,0s1.34,0,1.78,0a2.41,2.41,0,0,1,.07.77,4.27,4.27,0,0,1-1,.24c0,.46,0,1,0,1.73v.88h1.71c.29-1.94,1.66-3.83,3.73-3.83,2.29,0,3.56,1.87,3.56,4.27,0,2.18-1.44,4.58-3.78,4.58s-3.48-1.77-3.56-4.06H177v1.8a8.53,8.53,0,0,0,0,1,4.27,4.27,0,0,1,1,.24,2.32,2.32,0,0,1-.07.76c-.44,0-1.19,0-1.78,0l-1.82,0a2.84,2.84,0,0,1-.1-.76,6.09,6.09,0,0,0,1.09-.24,3.78,3.78,0,0,0,.06-.76V64.67c0-.74,0-1.27-.06-1.73A4.74,4.74,0,0,0,174.31,62.7ZM183.65,69a4,4,0,0,0,.74-2.48c0-1.91-.64-3.6-2.25-3.6a1.79,1.79,0,0,0-1.09.39,4.05,4.05,0,0,0-.74,2.48c0,1.91.64,3.6,2.25,3.6A1.85,1.85,0,0,0,183.65,69Z"/><path class="cls-4" d="M198.45,62.7a2.91,2.91,0,0,1,.1-.77c.54,0,1.13,0,1.82,0s1.34,0,1.78,0a2.72,2.72,0,0,1,.08.77,4.24,4.24,0,0,1-1,.24c0,.5-.05,1.07-.05,1.9v3.47a8.53,8.53,0,0,0,.05,1,4.24,4.24,0,0,1,1,.24,2.61,2.61,0,0,1-.08.76c-.44,0-1.2,0-1.78,0l-1.82,0a2.84,2.84,0,0,1-.1-.76,5.9,5.9,0,0,0,1.09-.24,5.78,5.78,0,0,0,.07-.94V66.56c-.83,0-1.68-.09-2.46-.09h-1.23v1.84a8.53,8.53,0,0,0,.05,1,4.24,4.24,0,0,1,1,.24,2.61,2.61,0,0,1-.08.76c-.44,0-1.19,0-1.78,0l-1.81,0a2.48,2.48,0,0,1-.1-.76,6.28,6.28,0,0,0,1.09-.24,4.85,4.85,0,0,0,.06-.94V64.67c0-.74,0-1.27-.06-1.73a4.86,4.86,0,0,0-1.09-.24,2.55,2.55,0,0,1,.1-.77c.53,0,1.12,0,1.81,0s1.34,0,1.78,0a2.72,2.72,0,0,1,.08.77,4.24,4.24,0,0,1-1,.24c0,.5-.05,1.07-.05,1.9v.61h3.69v-.78c0-.74,0-1.27-.07-1.73A4.63,4.63,0,0,0,198.45,62.7Z"/><path class="cls-4" d="M209.8,62.7a2.91,2.91,0,0,1,.1-.77c.54,0,1.13,0,1.82,0s1.34,0,1.78,0a2.41,2.41,0,0,1,.07.77,4.27,4.27,0,0,1-1,.24c0,.5-.05,1.07-.05,1.9v2.28l3.66-3.48,0-.7A4.74,4.74,0,0,0,215,62.7a2.91,2.91,0,0,1,.1-.77c.54,0,1.13,0,1.82,0s1.34,0,1.78,0a2.73,2.73,0,0,1,.07.77,4.27,4.27,0,0,1-1,.24c0,.5-.05,1.07-.05,1.9v3.47a8.53,8.53,0,0,0,.05,1,4.27,4.27,0,0,1,1,.24,2.62,2.62,0,0,1-.07.76c-.44,0-1.21,0-1.78,0l-1.82,0a2.84,2.84,0,0,1-.1-.76,6.09,6.09,0,0,0,1.09-.24,5.79,5.79,0,0,0,.06-.94V65l-3.68,3.5a5.53,5.53,0,0,0,.05.83,4.27,4.27,0,0,1,1,.24,2.32,2.32,0,0,1-.07.76c-.44,0-1.19,0-1.78,0l-1.82,0a2.84,2.84,0,0,1-.1-.76,6.09,6.09,0,0,0,1.09-.24,4.85,4.85,0,0,0,.06-.94V64.67c0-.74,0-1.27-.06-1.73A4.74,4.74,0,0,0,209.8,62.7Z"/><path class="cls-4" d="M226,66.29c0-2.16,1.55-4.57,4-4.57s3.78,1.87,3.78,4.27c0,2.18-1.54,4.58-4,4.58S226,68.69,226,66.29Zm5.37,2.7a3.7,3.7,0,0,0,.82-2.48c0-1.91-.71-3.6-2.5-3.6a2.21,2.21,0,0,0-1.23.39,3.66,3.66,0,0,0-.83,2.48c0,1.91.73,3.6,2.52,3.6A2.25,2.25,0,0,0,231.41,69Z"/><path class="cls-4" d="M245.37,61.9a2.28,2.28,0,0,1,2.52,2.36,3.3,3.3,0,0,1-3.22,3.06,6.48,6.48,0,0,1-.91,0v1a8.53,8.53,0,0,0,.05,1,7.37,7.37,0,0,1,1.36.24,2.07,2.07,0,0,1-.08.76c-.53,0-1.42,0-2.1,0l-1.84,0a2.84,2.84,0,0,1-.1-.76,6.09,6.09,0,0,0,1.09-.24,3.78,3.78,0,0,0,.06-.76V64.67c0-.74,0-1.27-.06-1.73a4.74,4.74,0,0,0-1.09-.24,2.91,2.91,0,0,1,.1-.77c.54,0,1.13,0,1.82,0C243.82,62,244.72,61.9,245.37,61.9ZM243.76,63v3.2a6.44,6.44,0,0,0,.78,0,2.72,2.72,0,0,0,1.25-.3,1.78,1.78,0,0,0,.47-1.36,1.44,1.44,0,0,0-1.34-1.6C244.56,63,244.13,63,243.76,63Z"/></g></g></svg>