<svg width="20" height="14" viewBox="0 0 20 14" fill="none" xmlns="http://www.w3.org/2000/svg">
<path fill-rule="evenodd" clip-rule="evenodd" d="M0 2.06167V4.68667H20V2.06167C20 0.992075 19.1506 0.125 18.1029 0.125H1.89714C0.84938 0.125 0 0.992075 0 2.06167Z" fill="#4758A9"/>
<path fill-rule="evenodd" clip-rule="evenodd" d="M0 9.26573H20V4.69531H0V9.26573Z" fill="#ED5565"/>
<path fill-rule="evenodd" clip-rule="evenodd" d="M0 11.8945C0 12.9641 0.84938 13.8312 1.89714 13.8312H18.1029C19.1506 13.8312 20 12.9641 20 11.8945V9.26953H0V11.8945Z" fill="#57A863"/>
<path fill-rule="evenodd" clip-rule="evenodd" d="M11.0938 8.30049C10.7186 8.51353 10.2694 8.54298 9.87053 8.38068C9.47168 8.21838 9.16549 7.88155 9.0367 7.46341C8.94114 7.16538 8.93024 6.84582 9.00528 6.54174C9.10932 6.11749 9.39439 5.7633 9.78191 5.57681C10.1694 5.39031 10.6185 5.39121 11.0053 5.57924C11.0178 5.5828 11.0312 5.58111 11.0424 5.57453C11.0537 5.56796 11.0619 5.55705 11.0653 5.54424C11.0717 5.52242 11.0636 5.49886 11.0453 5.48591C10.5705 5.09195 9.93108 4.974 9.35131 5.17345C8.77155 5.3729 8.33245 5.8619 8.18813 6.46882C8.09276 6.83584 8.10568 7.22344 8.22527 7.58299C8.37249 8.05115 8.69655 8.44002 9.12562 8.66341C9.55469 8.8868 10.0533 8.92624 10.511 8.77299H10.5367C10.7617 8.68981 10.9678 8.56081 11.1424 8.39382C11.1597 8.3801 11.1666 8.35668 11.1596 8.33549C11.1514 8.30998 11.1248 8.29575 11.0996 8.30341L11.0938 8.30049ZM10.6082 7.74632C10.5339 7.79882 10.491 7.76965 10.5139 7.67924L10.5967 7.3409C10.597 7.33958 10.5973 7.33826 10.5976 7.33693L10.6738 7.34674C10.7651 7.36349 10.8435 7.42195 10.887 7.50471C10.8806 7.50816 10.8743 7.51189 10.8682 7.5159L10.6082 7.74632ZM11.2364 7.5681L11.1338 7.85132C11.1023 7.93882 11.0509 7.9359 11.0195 7.85132L10.8966 7.52465C10.8936 7.51786 10.8904 7.51121 10.887 7.50471C10.971 7.45947 11.0729 7.4632 11.1539 7.5159L11.2364 7.5681ZM11.4571 7.34384L11.5339 7.62382C11.5567 7.71424 11.5167 7.74632 11.4396 7.69674L11.2364 7.5681L11.2595 7.50424C11.2944 7.4194 11.3693 7.35929 11.4571 7.34384ZM11.5919 7.00652C11.5979 7.01324 11.6042 7.01971 11.6109 7.0259L11.8452 7.22424C11.9166 7.28549 11.8995 7.33507 11.8081 7.3409H11.4795C11.4719 7.34156 11.4645 7.34254 11.4571 7.34384L11.4539 7.33215C11.4318 7.23277 11.4621 7.12883 11.5339 7.05799L11.5919 7.00652ZM11.5332 6.7109H11.7567C11.8453 6.7109 11.8653 6.7634 11.7967 6.82465L11.5919 7.00652C11.5314 6.9389 11.5052 6.84561 11.5223 6.75465L11.5332 6.7109ZM11.1985 6.54912C11.2086 6.54445 11.2185 6.53908 11.2281 6.53299L11.5138 6.34049C11.5881 6.2909 11.6309 6.32007 11.6081 6.41049L11.5332 6.7109H11.4139C11.3177 6.70298 11.2344 6.64022 11.1985 6.54912ZM10.8835 6.47573L10.971 6.17715C10.9967 6.08674 11.0425 6.08674 11.0739 6.17715L11.1967 6.54465C11.1973 6.54615 11.1979 6.54764 11.1985 6.54912C11.1218 6.58447 11.0321 6.5791 10.9595 6.53299L10.8835 6.47573ZM10.6854 6.70891L10.5709 6.36382C10.5423 6.27632 10.5709 6.24715 10.6538 6.30257L10.8835 6.47573L10.8625 6.54757C10.8352 6.63024 10.7673 6.69097 10.6854 6.70891ZM10.6854 6.70891L10.6909 6.72549C10.7181 6.82057 10.6865 6.92301 10.6109 6.98507L10.5163 7.0517C10.5155 7.05087 10.5147 7.05005 10.5139 7.04924L10.2767 6.83049C10.2082 6.76924 10.2282 6.71674 10.3167 6.71382H10.651C10.6627 6.71302 10.6742 6.71137 10.6854 6.70891ZM10.5976 7.33693C10.62 7.23394 10.5893 7.12639 10.5163 7.0517L10.3252 7.18632C10.2509 7.24174 10.2681 7.3059 10.3566 7.3059L10.5976 7.33693Z" fill="white"/>
</svg>
