<svg width="20" height="14" viewBox="0 0 20 14" fill="none" xmlns="http://www.w3.org/2000/svg">
<path d="M0 2.0718C0 1.04731 0.813563 0.216797 1.81714 0.216797H18.1829C19.1864 0.216797 20 1.04731 20 2.0718V12.0701C20 13.0946 19.1864 13.9251 18.1829 13.9251H1.81714C0.813563 13.9251 0 13.0946 0 12.0701V2.0718Z" fill="#ED5565"/>
<path fill-rule="evenodd" clip-rule="evenodd" d="M0 12.0708C0 13.0953 0.813563 13.9258 1.81714 13.9258H18.1829C19.1864 13.9258 20 13.0953 20 12.0708V10.4258H0V12.0708Z" fill="#57A863"/>
<path fill-rule="evenodd" clip-rule="evenodd" d="M1.81714 0.216797C1.33471 0.216796 0.872082 0.412634 0.53122 0.761145C0.190357 1.10966 -0.000756291 1.58223 2.24941e-06 2.07471V12.0701C2.24941e-06 13.0946 0.813564 13.9251 1.81714 13.9251H4V0.216797H1.81714Z" fill="#ED5565"/>
<path fill-rule="evenodd" clip-rule="evenodd" d="M2.57226 0.216797V1.0918H1.42941V0.260547C1.55702 0.231787 1.68729 0.217119 1.81798 0.216797H2.57226ZM0.572266 1.67513H1.14369V1.0918H0.572266V1.67513ZM1.14369 5.17513H0.572266V4.5918H1.14369V5.17513ZM0.572266 5.75846H1.14369V6.3418H0.572266V5.75846ZM0.572266 7.50846H1.14369V6.92513H0.572266V7.50846ZM1.14369 2.8418H0.572266V2.25846H1.14369V2.8418ZM0.572266 8.67513H1.14369V8.0918H0.572266V8.67513ZM1.14369 4.00846H0.572266V3.42513H1.14369V4.00846ZM0.572266 13.3418H1.14369V12.7585H0.572266V13.3418ZM1.42941 13.0501V13.8814C1.55702 13.9101 1.68729 13.9248 1.81798 13.9251H2.57226V13.0501H1.42941ZM3.42941 0.216797V0.508464H2.85798V0.216797H3.42941ZM1.42941 12.7585H2.57226V11.5918H1.42941V12.7585ZM1.14369 9.8418H0.572266V9.25847H1.14369V9.8418ZM0.572266 11.0085H1.14369V10.4251H0.572266V11.0085ZM1.14369 12.1751H0.572266V11.5918H1.14369V12.1751ZM1.42941 4.00846H2.57226V2.8418H1.42941V4.00846ZM3.42941 7.50846H2.85798V6.92513H3.42941V7.50846ZM2.85798 6.3418H3.42941V5.75846H2.85798V6.3418ZM3.42941 9.8418H2.85798V9.25847H3.42941V9.8418ZM2.85798 5.17513H3.42941V4.5918H2.85798V5.17513ZM3.42941 8.67513H2.85798V8.0918H3.42941V8.67513ZM2.85798 1.67513H3.42941V1.0918H2.85798V1.67513ZM3.42941 2.8418H2.85798V2.25846H3.42941V2.8418ZM2.85798 4.00846H3.42941V3.42513H2.85798V4.00846ZM3.42941 11.0085H2.85798V10.4251H3.42941V11.0085ZM1.42941 8.38346H2.57226V7.2168H1.42941V8.38346ZM2.57226 6.92513H1.42941V5.75846H2.57226V6.92513ZM1.42941 11.3001H2.57226V10.1335H1.42941V11.3001ZM2.57226 9.8418H1.42941V8.67514H2.57226V9.8418ZM1.42941 5.4668H2.57226V4.30013H1.42941V5.4668ZM2.57226 2.55013H1.42941V1.38346H2.57226V2.55013ZM2.85798 12.1751H3.42941V11.5918H2.85798V12.1751ZM3.42941 13.3418H2.85798V12.7585H3.42941V13.3418Z" fill="white"/>
</svg>
