<svg width="20" height="14" viewBox="0 0 20 14" fill="none" xmlns="http://www.w3.org/2000/svg">
<path d="M0.09375 1.88625C0.09375 0.861762 0.895854 0.03125 1.8853 0.03125H18.0205C19.01 0.03125 19.8121 0.861762 19.8121 1.88625V11.8846C19.8121 12.9091 19.01 13.7396 18.0205 13.7396H1.8853C0.895854 13.7396 0.09375 12.9091 0.09375 11.8846V1.88625Z" fill="white"/>
<path fill-rule="evenodd" clip-rule="evenodd" d="M19.8121 5.71875H11.0797V0.03125H8.82614V5.71875H0.09375V8.05208H8.82614V13.7396H11.0797V8.05208H19.8121V5.71875Z" fill="#ED5565"/>
<path fill-rule="evenodd" clip-rule="evenodd" d="M8.82723 0.03125H1.88921C0.89976 0.03125 0.0976562 0.861762 0.0976562 1.88625V5.71875H8.83005L8.82723 0.03125Z" fill="white"/>
<path fill-rule="evenodd" clip-rule="evenodd" d="M5.7275 2.14518H5.16412V1.56185C5.16412 1.23968 4.91188 0.978516 4.60074 0.978516H4.31905C4.0079 0.978516 3.75567 1.23968 3.75567 1.56185V2.14518H3.19229C2.88114 2.14518 2.62891 2.40635 2.62891 2.72852V3.02018C2.62891 3.34235 2.88114 3.60352 3.19229 3.60352H3.75567V4.18685C3.75567 4.50902 4.0079 4.77018 4.31905 4.77018H4.60074C4.91188 4.77018 5.16412 4.50902 5.16412 4.18685V3.60352H5.7275C6.03864 3.60352 6.29088 3.34235 6.29088 3.02018V2.72852C6.29088 2.40635 6.03864 2.14518 5.7275 2.14518Z" fill="#ED5565"/>
<path fill-rule="evenodd" clip-rule="evenodd" d="M18.0294 0.03125H11.0801V5.71875H19.8125V1.88625C19.8125 0.865169 19.0155 0.0360664 18.0294 0.03125Z" fill="white"/>
<path fill-rule="evenodd" clip-rule="evenodd" d="M16.7138 2.14518H16.1504V1.56185C16.1504 1.23968 15.8982 0.978516 15.5871 0.978516H15.3054C14.9942 0.978516 14.742 1.23968 14.742 1.56185V2.14518H14.1786C13.8675 2.14518 13.6152 2.40635 13.6152 2.72852V3.02018C13.6152 3.34235 13.8675 3.60352 14.1786 3.60352H14.742V4.18685C14.742 4.50902 14.9942 4.77018 15.3054 4.77018H15.5871C15.8982 4.77018 16.1504 4.50902 16.1504 4.18685V3.60352H16.7138C17.025 3.60352 17.2772 3.34235 17.2772 3.02018V2.72852C17.2772 2.40635 17.025 2.14518 16.7138 2.14518Z" fill="#ED5565"/>
<path fill-rule="evenodd" clip-rule="evenodd" d="M8.82723 13.7402H1.88921C1.41406 13.7402 0.95837 13.5448 0.622389 13.1969C0.286408 12.849 0.0976562 12.3772 0.0976562 11.8852V8.05273H8.83005L8.82723 13.7402Z" fill="white"/>
<path fill-rule="evenodd" clip-rule="evenodd" d="M5.7275 11.625H5.16412V12.2083C5.16412 12.5305 4.91188 12.7917 4.60074 12.7917H4.31905C4.0079 12.7917 3.75567 12.5305 3.75567 12.2083V11.625H3.19229C2.88114 11.625 2.62891 11.3638 2.62891 11.0417V10.75C2.62891 10.4278 2.88114 10.1667 3.19229 10.1667H3.75567V9.58333C3.75567 9.26117 4.0079 9 4.31905 9H4.60074C4.91188 9 5.16412 9.26117 5.16412 9.58333V10.1667H5.7275C6.03864 10.1667 6.29088 10.4278 6.29088 10.75V11.0417C6.29088 11.3638 6.03864 11.625 5.7275 11.625Z" fill="#ED5565"/>
<path fill-rule="evenodd" clip-rule="evenodd" d="M18.0294 13.7402H11.0801V8.05273H19.8125V11.8852C19.8125 12.9063 19.0155 13.7354 18.0294 13.7402Z" fill="white"/>
<path fill-rule="evenodd" clip-rule="evenodd" d="M16.7138 11.625H16.1504V12.2083C16.1504 12.5305 15.8982 12.7917 15.5871 12.7917H15.3054C14.9942 12.7917 14.742 12.5305 14.742 12.2083V11.625H14.1786C13.8675 11.625 13.6152 11.3638 13.6152 11.0417V10.75C13.6152 10.4278 13.8675 10.1667 14.1786 10.1667H14.742V9.58333C14.742 9.26117 14.9942 9 15.3054 9H15.5871C15.8982 9 16.1504 9.26117 16.1504 9.58333V10.1667H16.7138C17.025 10.1667 17.2772 10.4278 17.2772 10.75V11.0417C17.2772 11.3638 17.025 11.625 16.7138 11.625Z" fill="#ED5565"/>
</svg>
