<svg width="20" height="14" viewBox="0 0 20 14" fill="none" xmlns="http://www.w3.org/2000/svg">
<path d="M0.191406 2.02102C0.191406 0.996528 0.99351 0.166016 1.98296 0.166016H18.1182C19.1076 0.166016 19.9097 0.996528 19.9097 2.02102V12.0193C19.9097 13.0438 19.1076 13.8743 18.1182 13.8743H1.98296C0.99351 13.8743 0.191406 13.0438 0.191406 12.0193V2.02102Z" fill="#3BAFDA"/>
<path fill-rule="evenodd" clip-rule="evenodd" d="M15.4106 6.95902C14.898 6.84585 14.3753 7.09976 14.1317 7.58027C13.5949 8.61612 12.5516 9.26248 11.4162 9.26248C10.2809 9.26248 9.23753 8.61612 8.70075 7.58027C8.45804 7.09863 7.93514 6.84343 7.42188 6.9561C7.82187 8.91052 9.48817 10.3085 11.4176 10.3085C13.3471 10.3085 15.0134 8.91052 15.4134 6.9561L15.4106 6.95902Z" fill="#F6D660"/>
<path fill-rule="evenodd" clip-rule="evenodd" d="M13.4083 6.78756C13.4124 6.67662 13.4403 6.56801 13.49 6.46964L13.6309 6.21589C13.6751 6.12407 13.6751 6.01605 13.6309 5.92423L13.4844 5.66464C13.435 5.56614 13.4071 5.45761 13.4027 5.34673V5.05506C13.3964 4.95168 13.3431 4.85753 13.259 4.80131L13.014 4.65548C12.923 4.59608 12.846 4.51635 12.7886 4.42215L12.6478 4.1684C12.5935 4.08138 12.5025 4.02619 12.4027 4.01965H12.121C12.0139 4.01505 11.9091 3.98618 11.814 3.93506L11.5604 3.78631C11.4718 3.7405 11.3674 3.7405 11.2787 3.78631L11.0365 3.93506C10.9415 3.98654 10.8366 4.01544 10.7295 4.01965H10.4478C10.3479 4.02619 10.257 4.08138 10.2027 4.1684L10.0562 4.4309C9.99855 4.52486 9.92161 4.60452 9.83086 4.66423L9.58016 4.8159C9.49642 4.87335 9.44412 4.96867 9.43931 5.07256V5.36423C9.43534 5.47519 9.40743 5.58382 9.35762 5.68215L9.21678 5.93589C9.17253 6.02772 9.17253 6.13574 9.21678 6.22756L9.36326 6.48714C9.41254 6.58569 9.44042 6.69419 9.44495 6.80506V7.09673C9.45127 7.20011 9.50457 7.29426 9.58861 7.35048L9.83368 7.49631C9.92466 7.55571 10.0017 7.63544 10.059 7.72964L10.1999 7.98339C10.2542 8.07041 10.3451 8.1256 10.4449 8.13214H10.7266C10.8337 8.13674 10.9385 8.16561 11.0337 8.21673L11.2872 8.36548C11.3759 8.41129 11.4802 8.41129 11.5689 8.36548L11.8111 8.21673C11.9061 8.16516 12.011 8.13625 12.1182 8.13214H12.3999C12.4997 8.1256 12.5907 8.07041 12.6449 7.98339L12.7914 7.72381C12.8491 7.62985 12.926 7.55019 13.0168 7.49048L13.2675 7.33881C13.3512 7.28135 13.4035 7.18604 13.4083 7.08214V6.78756Z" fill="#F6D660"/>
<rect x="1.88086" y="1.99414" width="1.03662" height="1.435" fill="#F6D660"/>
<rect x="1.88086" y="4.15039" width="1.03662" height="1.435" fill="#F6D660"/>
<rect x="1.88086" y="6.30273" width="1.03662" height="1.435" fill="#F6D660"/>
<rect x="1.88086" y="8.45508" width="1.03662" height="1.435" fill="#F6D660"/>
<rect x="1.88086" y="10.6113" width="1.03662" height="1.435" fill="#F6D660"/>
</svg>
