<svg width="20" height="14" viewBox="0 0 20 14" fill="none" xmlns="http://www.w3.org/2000/svg">
<path d="M0.191406 2.14016C0.191406 1.11567 0.99351 0.285156 1.98296 0.285156H18.1182C19.1076 0.285156 19.9097 1.11567 19.9097 2.14016V12.1385C19.9097 13.163 19.1076 13.9935 18.1182 13.9935H1.98296C0.99351 13.9935 0.191406 13.163 0.191406 12.1385V2.14016Z" fill="#ED5565"/>
<ellipse cx="10.1923" cy="7.13904" rx="2.24507" ry="2.32458" fill="#FFCE54"/>
<ellipse cx="6.4149" cy="7.13888" rx="0.588732" ry="0.609583" fill="#FFCE54"/>
<path fill-rule="evenodd" clip-rule="evenodd" d="M13.9696 6.52735C14.2963 6.52574 14.5624 6.79866 14.564 7.13693C14.5655 7.4752 14.3019 7.75072 13.9752 7.75234C13.6485 7.75395 13.3824 7.48104 13.3809 7.14277C13.3801 6.98032 13.4417 6.82422 13.5521 6.70881C13.6625 6.59339 13.8127 6.52812 13.9696 6.52735Z" fill="#FFCE54"/>
<path fill-rule="evenodd" clip-rule="evenodd" d="M9.60352 11.048C9.60352 10.7098 9.86836 10.4355 10.1951 10.4355C10.5218 10.4355 10.7866 10.7098 10.7866 11.048C10.7866 11.3863 10.5218 11.6605 10.1951 11.6605C10.0384 11.6613 9.88796 11.5974 9.77695 11.483C9.66593 11.3686 9.60351 11.2131 9.60352 11.051V11.048Z" fill="#FFCE54"/>
<path fill-rule="evenodd" clip-rule="evenodd" d="M9.60157 3.23064C9.60002 2.89238 9.8636 2.61685 10.1903 2.61524C10.517 2.61363 10.7831 2.88655 10.7847 3.22482C10.7862 3.56308 10.5226 3.83861 10.1959 3.84023C10.039 3.841 9.88829 3.77721 9.77682 3.66289C9.66535 3.54858 9.60231 3.39309 9.60157 3.23064Z" fill="#FFCE54"/>
<path fill-rule="evenodd" clip-rule="evenodd" d="M7.10455 9.47286C7.33625 9.2401 7.70577 9.24395 7.9329 9.4815C8.16003 9.71905 8.16003 10.1017 7.9329 10.3392C7.70577 10.5768 7.33625 10.5806 7.10455 10.3479C6.99027 10.2331 6.92578 10.0752 6.92578 9.91037C6.92578 9.7455 6.99027 9.58767 7.10455 9.47286Z" fill="#FFCE54"/>
<path fill-rule="evenodd" clip-rule="evenodd" d="M12.4444 3.94357C12.6761 3.7108 13.0456 3.71465 13.2727 3.9522C13.4999 4.18975 13.4999 4.57238 13.2727 4.80993C13.0456 5.04749 12.6761 5.05134 12.4444 4.81857C12.3301 4.70377 12.2656 4.54593 12.2656 4.38107C12.2656 4.2162 12.3301 4.05837 12.4444 3.94357Z" fill="#FFCE54"/>
<path fill-rule="evenodd" clip-rule="evenodd" d="M13.2028 9.37419C12.9695 9.13294 12.5915 9.1331 12.3584 9.37456C12.1253 9.61601 12.1253 10.0074 12.3584 10.2488C12.5915 10.4903 12.9695 10.4904 13.2028 10.2492C13.3149 10.1332 13.378 9.97582 13.378 9.81169C13.378 9.64757 13.3149 9.49017 13.2028 9.37419Z" fill="#FFCE54"/>
<path fill-rule="evenodd" clip-rule="evenodd" d="M7.79654 3.79021C7.56324 3.54896 7.18526 3.54912 6.95217 3.79057C6.71907 4.03202 6.71907 4.42339 6.95217 4.66484C7.18526 4.9063 7.56324 4.90646 7.79654 4.66521C7.90869 4.54923 7.97171 4.39183 7.97171 4.22771C7.97171 4.06358 7.90869 3.90619 7.79654 3.79021Z" fill="#FFCE54"/>
</svg>
