<svg width="20" height="14" viewBox="0 0 20 14" fill="none" xmlns="http://www.w3.org/2000/svg">
<path d="M0.191406 1.97414C0.191406 0.949653 0.99351 0.119141 1.98296 0.119141H18.1182C19.1076 0.119141 19.9097 0.949653 19.9097 1.97414V11.9725C19.9097 12.997 19.1076 13.8275 18.1182 13.8275H1.98296C0.99351 13.8275 0.191406 12.997 0.191406 11.9725V1.97414Z" fill="#57A863"/>
<rect x="2.16406" y="0.119141" width="2.8169" height="13.7083" fill="#ED5565"/>
<path fill-rule="evenodd" clip-rule="evenodd" d="M8.87685 1.49093C8.93601 1.50551 8.94164 1.54343 8.87685 1.57551L8.6684 1.69218C8.60834 1.73055 8.57041 1.79711 8.56699 1.87009V2.10343C8.56699 2.17051 8.53319 2.18509 8.49094 2.13551L8.33037 1.95468C8.28197 1.90538 8.20948 1.89153 8.14728 1.91968L7.91066 2.03634C7.85432 2.06551 7.83178 2.03634 7.86277 1.98093L7.98953 1.73884C8.01928 1.6751 8.01164 1.59942 7.96981 1.54343L7.81488 1.35384C7.77263 1.30426 7.78953 1.26926 7.85432 1.27801L8.09375 1.31009C8.16352 1.31454 8.23058 1.28147 8.27122 1.22259L8.38389 1.03593C8.4177 0.980509 8.45432 0.986342 8.46559 1.05051L8.5022 1.28676C8.51767 1.35655 8.56828 1.41229 8.6346 1.43259L8.87685 1.49093ZM10.0036 2.45051C10.0684 2.41843 10.0628 2.38051 10.0036 2.36593L9.76136 2.30759C9.69504 2.28729 9.64444 2.23155 9.62897 2.16176L9.59235 1.92551C9.58108 1.86134 9.54446 1.85551 9.51066 1.91093L9.39798 2.09759C9.35734 2.15647 9.29028 2.18954 9.22052 2.18509L8.98108 2.15301C8.91629 2.14426 8.89939 2.17926 8.94164 2.22884L9.09657 2.41843C9.1384 2.47442 9.14604 2.5501 9.11629 2.61384L8.98953 2.85593C8.95854 2.91134 8.98108 2.94051 9.03742 2.91134L9.27404 2.79468C9.33624 2.76653 9.40873 2.78038 9.45713 2.82968L9.6177 3.01051C9.65995 3.06009 9.69375 3.04551 9.69375 2.97843V2.74509C9.69717 2.67211 9.7351 2.60555 9.79516 2.56718L10.0036 2.45051ZM11.0882 2.89676C10.9845 2.83594 10.8762 2.78423 10.7642 2.74217L10.7586 2.74509C10.7253 2.72482 10.714 2.68059 10.7332 2.64593C10.7495 2.61786 10.7813 2.60375 10.8121 2.61092C11.6824 2.72091 12.4402 3.2786 12.8266 4.0935C13.213 4.9084 13.1758 5.87025 12.7276 6.65051C12.5947 6.88575 12.4275 7.09827 12.2318 7.28051C11.6152 7.86176 10.7708 8.10949 9.95142 7.94955C9.13201 7.78961 8.43268 7.24055 8.0628 6.46676C7.91251 6.14197 7.82905 5.78838 7.81773 5.42843C7.81352 5.39695 7.82947 5.36627 7.85717 5.35259C7.89299 5.33572 7.93529 5.35118 7.95294 5.38759C8.15166 6.12052 8.70766 6.69145 9.41715 6.8911C10.1266 7.09074 10.8853 6.88973 11.4149 6.36176C11.5772 6.21111 11.7168 6.03611 11.829 5.84259L11.8459 5.81343C12.1192 5.32265 12.1928 4.73956 12.0507 4.19252C11.9086 3.64549 11.5623 3.17936 11.0882 2.89676ZM8.59516 2.74218C8.65995 2.71009 8.65432 2.67218 8.59516 2.65759L8.35291 2.60218C8.28659 2.58188 8.23598 2.52614 8.22051 2.45634L8.18389 2.22009C8.17263 2.15301 8.13601 2.14718 8.1022 2.20259L7.98953 2.38926C7.94889 2.44814 7.88183 2.48121 7.81206 2.47676L7.57263 2.44468C7.50784 2.43593 7.49094 2.47093 7.53319 2.52051L7.68812 2.71009C7.72995 2.76609 7.73758 2.84177 7.70784 2.90551L7.58108 3.14759C7.55009 3.20301 7.57263 3.23218 7.62897 3.20301L7.86558 3.08634C7.92779 3.05819 8.00028 3.07205 8.04868 3.12134L8.20925 3.30218C8.2515 3.35176 8.2853 3.33718 8.2853 3.27009V3.03676C8.28872 2.96377 8.32665 2.89722 8.38671 2.85884L8.59516 2.74218ZM7.18671 3.24093C7.24587 3.25551 7.2515 3.29343 7.18671 3.32551L6.97826 3.44218C6.9182 3.48055 6.88027 3.54711 6.87685 3.62009V3.85343C6.87685 3.92051 6.84305 3.93509 6.8008 3.88551L6.64023 3.70468C6.59183 3.65538 6.51934 3.64153 6.45713 3.66968L6.22051 3.78634C6.16418 3.81551 6.14164 3.78634 6.17263 3.73093L6.29939 3.48884C6.32913 3.4251 6.3215 3.34942 6.27967 3.29343L6.12474 3.10384C6.08249 3.05426 6.09939 3.01926 6.16418 3.02801L6.40361 3.06009C6.47338 3.06454 6.54044 3.03147 6.58108 2.97259L6.69375 2.78593C6.72756 2.73051 6.76418 2.73634 6.77544 2.80051L6.81206 3.03676C6.82753 3.10655 6.87814 3.16229 6.94446 3.18259L7.18671 3.24093ZM8.31347 4.20051C8.37826 4.16843 8.37263 4.13051 8.31347 4.11593L8.07122 4.05759C8.0049 4.03729 7.95429 3.98155 7.93882 3.91176L7.9022 3.67551C7.89094 3.61134 7.85432 3.60551 7.82051 3.66093L7.70784 3.84759C7.6672 3.90647 7.60014 3.93954 7.53037 3.93509L7.29094 3.90301C7.22615 3.89426 7.20925 3.92926 7.2515 3.97884L7.40643 4.16843C7.44826 4.22442 7.45589 4.3001 7.42615 4.36384L7.29939 4.60593C7.2684 4.66134 7.29094 4.69051 7.34727 4.66134L7.58389 4.54468C7.6461 4.51653 7.71859 4.53038 7.76699 4.57968L7.92756 4.76051C7.96981 4.81009 8.00361 4.79551 8.00361 4.72843V4.49509C8.00703 4.42211 8.04496 4.35555 8.10502 4.31718L8.31347 4.20051Z" fill="white"/>
</svg>
