<svg width="20" height="14" viewBox="0 0 20 14" fill="none" xmlns="http://www.w3.org/2000/svg">
<path d="M0.09375 2.04836C0.09375 1.02387 0.895854 0.193359 1.8853 0.193359H18.0205C19.01 0.193359 19.8121 1.02387 19.8121 2.04836V12.0467C19.8121 13.0712 19.01 13.9017 18.0205 13.9017H1.8853C0.895854 13.9017 0.09375 13.0712 0.09375 12.0467V2.04836Z" fill="#ED5565"/>
<path fill-rule="evenodd" clip-rule="evenodd" d="M18.0301 0.193359H1.88921C0.89976 0.193359 0.0976562 1.02387 0.0976562 2.04836V4.86003H19.816V2.04253C19.8129 1.02259 19.0151 0.196562 18.0301 0.193359Z" fill="#3BAFDA"/>
<path fill-rule="evenodd" clip-rule="evenodd" d="M4.20382 3.79184L4.19968 3.79393L4.19537 3.79476L4.20382 3.79184ZM4.19968 3.79393C3.84584 3.97177 3.43426 3.97942 3.07438 3.81469C2.7131 3.64931 2.44086 3.32709 2.33058 2.93435C2.25649 2.65458 2.26335 2.35845 2.3503 2.08268C2.58385 1.35703 3.33485 0.95786 4.04044 1.18435C4.11237 1.20804 4.18213 1.2383 4.24889 1.27476C4.27375 1.28242 4.29997 1.26819 4.30805 1.24268C4.3125 1.22328 4.30595 1.20293 4.29115 1.19018C4.12225 1.03728 3.92471 0.922099 3.71086 0.851845C3.19899 0.676931 2.63723 0.765315 2.19864 1.08977C1.76005 1.41423 1.49723 1.93584 1.49115 2.49393C1.48546 2.66831 1.50638 2.84254 1.55312 3.01018C1.67379 3.45211 1.95927 3.8262 2.3466 4.04998C2.73393 4.27376 3.19131 4.32884 3.61791 4.20309H3.63762C3.85436 4.13664 4.05632 4.02663 4.23199 3.87934C4.24741 3.86703 4.25409 3.84628 4.24889 3.82684C4.24249 3.80463 4.22144 3.79087 4.19968 3.79393ZM5.16422 3.68685C5.3198 3.68685 5.44591 3.81743 5.44591 3.97851C5.44591 4.1396 5.3198 4.27018 5.16422 4.27018C5.00865 4.27018 4.88253 4.1396 4.88253 3.97851C4.8856 3.81971 5.01083 3.69265 5.16422 3.69268V3.68685ZM6.57268 3.97851C6.57268 3.81743 6.44656 3.68685 6.29099 3.68685V3.69268C6.13759 3.69265 6.01236 3.81971 6.0093 3.97851C6.0093 4.1396 6.13541 4.27018 6.29099 4.27018C6.44656 4.27018 6.57268 4.1396 6.57268 3.97851ZM6.29099 2.52018C6.44656 2.52018 6.57268 2.65076 6.57268 2.81185C6.57268 2.97293 6.44656 3.10351 6.29099 3.10351C6.13541 3.10351 6.0093 2.97293 6.0093 2.81185C6.01236 2.65305 6.13759 2.52598 6.29099 2.52601V2.52018ZM7.69944 1.64518C7.69944 1.4841 7.57332 1.35351 7.41775 1.35351V1.35935C7.26435 1.35931 7.13913 1.48638 7.13606 1.64518C7.13606 1.80626 7.26217 1.93685 7.41775 1.93685C7.57332 1.93685 7.69944 1.80626 7.69944 1.64518ZM7.41775 2.52018C7.57332 2.52018 7.69944 2.65076 7.69944 2.81185C7.69944 2.97293 7.57332 3.10351 7.41775 3.10351C7.26217 3.10351 7.13606 2.97293 7.13606 2.81185C7.13913 2.65305 7.26435 2.52598 7.41775 2.52601V2.52018ZM7.69944 3.97851C7.69944 3.81743 7.57332 3.68685 7.41775 3.68685V3.69268C7.26435 3.69265 7.13913 3.81971 7.13606 3.97851C7.13606 4.1396 7.26217 4.27018 7.41775 4.27018C7.57332 4.27018 7.69944 4.1396 7.69944 3.97851ZM8.54451 1.35351C8.70008 1.35351 8.8262 1.4841 8.8262 1.64518C8.8262 1.80626 8.70008 1.93685 8.54451 1.93685C8.38893 1.93685 8.26282 1.80626 8.26282 1.64518C8.26588 1.48638 8.39111 1.35931 8.54451 1.35935V1.35351ZM8.8262 2.81185C8.8262 2.65076 8.70008 2.52018 8.54451 2.52018V2.52601C8.39111 2.52598 8.26588 2.65305 8.26282 2.81185C8.26282 2.97293 8.38893 3.10351 8.54451 3.10351C8.70008 3.10351 8.8262 2.97293 8.8262 2.81185ZM8.54451 3.68685C8.70008 3.68685 8.8262 3.81743 8.8262 3.97851C8.8262 4.1396 8.70008 4.27018 8.54451 4.27018C8.38893 4.27018 8.26282 4.1396 8.26282 3.97851C8.26588 3.81971 8.39111 3.69265 8.54451 3.69268V3.68685ZM9.95296 1.64518C9.95296 1.4841 9.82684 1.35351 9.67127 1.35351V1.35935C9.51787 1.35931 9.39265 1.48638 9.38958 1.64518C9.38958 1.80626 9.51569 1.93685 9.67127 1.93685C9.82684 1.93685 9.95296 1.80626 9.95296 1.64518ZM9.67127 2.52018C9.82684 2.52018 9.95296 2.65076 9.95296 2.81185C9.95296 2.97293 9.82684 3.10351 9.67127 3.10351C9.51569 3.10351 9.38958 2.97293 9.38958 2.81185C9.39265 2.65305 9.51787 2.52598 9.67127 2.52601V2.52018ZM9.95296 3.97851C9.95296 3.81743 9.82684 3.68685 9.67127 3.68685V3.69268C9.51787 3.69265 9.39265 3.81971 9.38958 3.97851C9.38958 4.1396 9.51569 4.27018 9.67127 4.27018C9.82684 4.27018 9.95296 4.1396 9.95296 3.97851Z" fill="white"/>
<path fill-rule="evenodd" clip-rule="evenodd" d="M18.0301 13.901H1.88921C1.41406 13.901 0.95837 13.7056 0.622389 13.3577C0.286408 13.0098 0.0976562 12.538 0.0976562 12.046V9.23438H19.816V12.046C19.816 13.0683 19.0173 13.8978 18.0301 13.901Z" fill="#52C162"/>
<rect x="0.09375" y="5.29688" width="19.7183" height="3.5" fill="#F5F7FA"/>
</svg>
